<svg width="1280" height="220" viewBox="0 130 1280 220" xmlns="http://www.w3.org/2000/svg" xmlns:xlink="http://www.w3.org/1999/xlink" overflow="hidden"><g><rect x="0" y="0" width="1280" height="800" fill="#FFFFFF"/><g><g><g><g><path d="M27.8911 155.904 27.8911 5.1375" stroke="#808080" stroke-width="0.380556" stroke-linejoin="round" stroke-dasharray="0.380556 0.627917" stroke-opacity="0.4" fill="none" transform="matrix(1 0 0 1.00438 99 161)"/></g><path d="M0 0 0 2.37847" stroke="#000000" stroke-width="0.713542" stroke-linejoin="round" fill="none" transform="matrix(1 0 0 1.00438 126.891 317.587)"/><text font-family="Verdana,Verdana_MSFontService,sans-serif" font-weight="400" font-size="12" transform="matrix(0.475694 0 0 0.477778 125.077 326)">1</text><g><path d="M60.6763 155.904 60.6763 5.1375" stroke="#808080" stroke-width="0.380556" stroke-linejoin="round" stroke-dasharray="0.380556 0.627917" stroke-opacity="0.4" fill="none" transform="matrix(1 0 0 1.00438 99 161)"/></g><path d="M0 0 0 2.37847" stroke="#000000" stroke-width="0.713542" stroke-linejoin="round" fill="none" transform="matrix(1 0 0 1.00438 159.676 317.587)"/><text font-family="Verdana,Verdana_MSFontService,sans-serif" font-weight="400" font-size="12" transform="matrix(0.475694 0 0 0.477778 157.862 326)">2</text><g><path d="M93.4616 155.904 93.4616 5.1375" stroke="#808080" stroke-width="0.380556" stroke-linejoin="round" stroke-dasharray="0.380556 0.627917" stroke-opacity="0.4" fill="none" transform="matrix(1 0 0 1.00438 99 161)"/></g><path d="M0 0 0 2.37847" stroke="#000000" stroke-width="0.713542" stroke-linejoin="round" fill="none" transform="matrix(1 0 0 1.00438 192.462 317.587)"/><text font-family="Verdana,Verdana_MSFontService,sans-serif" font-weight="400" font-size="12" transform="matrix(0.475694 0 0 0.477778 190.647 326)">3</text><g><path d="M126.247 155.904 126.247 5.1375" stroke="#808080" stroke-width="0.380556" stroke-linejoin="round" stroke-dasharray="0.380556 0.627917" stroke-opacity="0.4" fill="none" transform="matrix(1 0 0 1.00438 99 161)"/></g><path d="M0 0 0 2.37847" stroke="#000000" stroke-width="0.713542" stroke-linejoin="round" fill="none" transform="matrix(1 0 0 1.00438 225.247 317.587)"/><text font-family="Verdana,Verdana_MSFontService,sans-serif" font-weight="400" font-size="12" transform="matrix(0.475694 0 0 0.477778 223.432 326)">4</text><g><path d="M159.032 155.904 159.032 5.1375" stroke="#808080" stroke-width="0.380556" stroke-linejoin="round" stroke-dasharray="0.380556 0.627917" stroke-opacity="0.4" fill="none" transform="matrix(1 0 0 1.00438 99 161)"/></g><path d="M0 0 0 2.37847" stroke="#000000" stroke-width="0.713542" stroke-linejoin="round" fill="none" transform="matrix(1 0 0 1.00438 258.032 317.587)"/><text font-family="Verdana,Verdana_MSFontService,sans-serif" font-weight="400" font-size="12" transform="matrix(0.475694 0 0 0.477778 256.217 326)">5</text><g><path d="M191.817 155.904 191.817 5.1375" stroke="#808080" stroke-width="0.380556" stroke-linejoin="round" stroke-dasharray="0.380556 0.627917" stroke-opacity="0.4" fill="none" transform="matrix(1 0 0 1.00438 99 161)"/></g><path d="M0 0 0 2.37847" stroke="#000000" stroke-width="0.713542" stroke-linejoin="round" fill="none" transform="matrix(1 0 0 1.00438 290.817 317.587)"/><text font-family="Verdana,Verdana_MSFontService,sans-serif" font-weight="400" font-size="12" transform="matrix(0.475694 0 0 0.477778 289.003 326)">6</text><g><path d="M224.602 155.904 224.602 5.1375" stroke="#808080" stroke-width="0.380556" stroke-linejoin="round" stroke-dasharray="0.380556 0.627917" stroke-opacity="0.4" fill="none" transform="matrix(1 0 0 1.00438 99 161)"/></g><path d="M0 0 0 2.37847" stroke="#000000" stroke-width="0.713542" stroke-linejoin="round" fill="none" transform="matrix(1 0 0 1.00438 323.602 317.587)"/><text font-family="Verdana,Verdana_MSFontService,sans-serif" font-weight="400" font-size="12" transform="matrix(0.475694 0 0 0.477778 321.788 326)">7</text><g><path d="M257.388 155.904 257.388 5.1375" stroke="#808080" stroke-width="0.380556" stroke-linejoin="round" stroke-dasharray="0.380556 0.627917" stroke-opacity="0.4" fill="none" transform="matrix(1 0 0 1.00438 99 161)"/></g><path d="M0 0 0 2.37847" stroke="#000000" stroke-width="0.713542" stroke-linejoin="round" fill="none" transform="matrix(1 0 0 1.00438 356.388 317.587)"/><text font-family="Verdana,Verdana_MSFontService,sans-serif" font-weight="400" font-size="12" transform="matrix(0.475694 0 0 0.477778 354.573 326)">8</text><g><path d="M16.4162 145.229 268.863 145.229" stroke="#808080" stroke-width="0.380556" stroke-linejoin="round" stroke-dasharray="0.380556 0.627917" stroke-opacity="0.4" fill="none" transform="matrix(1 0 0 1.00438 99 161)"/></g><path d="M0 0-2.37847 0" stroke="#000000" stroke-width="0.713542" stroke-linejoin="round" fill="none" transform="matrix(1 0 0 1.00438 115.416 306.865)"/><text font-family="Verdana,Verdana_MSFontService,sans-serif" font-weight="400" font-size="12" transform="matrix(0.475694 0 0 0.477778 104.115 309)">48</text><g><path d="M16.4162 123.387 268.863 123.387" stroke="#808080" stroke-width="0.380556" stroke-linejoin="round" stroke-dasharray="0.380556 0.627917" stroke-opacity="0.4" fill="none" transform="matrix(1 0 0 1.00438 99 161)"/></g><path d="M0 0-2.37847 0" stroke="#000000" stroke-width="0.713542" stroke-linejoin="round" fill="none" transform="matrix(1 0 0 1.00438 115.416 284.927)"/><text font-family="Verdana,Verdana_MSFontService,sans-serif" font-weight="400" font-size="12" transform="matrix(0.475694 0 0 0.477778 104.115 287)">50</text><g><path d="M16.4162 101.544 268.863 101.544" stroke="#808080" stroke-width="0.380556" stroke-linejoin="round" stroke-dasharray="0.380556 0.627917" stroke-opacity="0.4" fill="none" transform="matrix(1 0 0 1.00438 99 161)"/></g><path d="M0 0-2.37847 0" stroke="#000000" stroke-width="0.713542" stroke-linejoin="round" fill="none" transform="matrix(1 0 0 1.00438 115.416 262.989)"/><text font-family="Verdana,Verdana_MSFontService,sans-serif" font-weight="400" font-size="12" transform="matrix(0.475694 0 0 0.477778 104.115 265)">52</text><g><path d="M16.4162 79.7017 268.863 79.7017" stroke="#808080" stroke-width="0.380556" stroke-linejoin="round" stroke-dasharray="0.380556 0.627917" stroke-opacity="0.4" fill="none" transform="matrix(1 0 0 1.00438 99 161)"/></g><path d="M0 0-2.37847 0" stroke="#000000" stroke-width="0.713542" stroke-linejoin="round" fill="none" transform="matrix(1 0 0 1.00438 115.416 241.051)"/><text font-family="Verdana,Verdana_MSFontService,sans-serif" font-weight="400" font-size="12" transform="matrix(0.475694 0 0 0.477778 104.115 243)">54</text><g><path d="M16.4162 57.8592 268.863 57.8592" stroke="#808080" stroke-width="0.380556" stroke-linejoin="round" stroke-dasharray="0.380556 0.627917" stroke-opacity="0.4" fill="none" transform="matrix(1 0 0 1.00438 99 161)"/></g><path d="M0 0-2.37847 0" stroke="#000000" stroke-width="0.713542" stroke-linejoin="round" fill="none" transform="matrix(1 0 0 1.00438 115.416 219.113)"/><text font-family="Verdana,Verdana_MSFontService,sans-serif" font-weight="400" font-size="12" transform="matrix(0.475694 0 0 0.477778 104.115 221)">56</text><g><path d="M16.4162 36.0171 268.863 36.0171" stroke="#808080" stroke-width="0.380556" stroke-linejoin="round" stroke-dasharray="0.380556 0.627917" stroke-opacity="0.4" fill="none" transform="matrix(1 0 0 1.00438 99 161)"/></g><path d="M0 0-2.37847 0" stroke="#000000" stroke-width="0.713542" stroke-linejoin="round" fill="none" transform="matrix(1 0 0 1.00438 115.416 197.175)"/><text font-family="Verdana,Verdana_MSFontService,sans-serif" font-weight="400" font-size="12" transform="matrix(0.475694 0 0 0.477778 104.115 199)">58</text><g><path d="M16.4162 14.1747 268.863 14.1747" stroke="#808080" stroke-width="0.380556" stroke-linejoin="round" stroke-dasharray="0.380556 0.627917" stroke-opacity="0.4" fill="none" transform="matrix(1 0 0 1.00438 99 161)"/></g><path d="M0 0-2.37847 0" stroke="#000000" stroke-width="0.713542" stroke-linejoin="round" fill="none" transform="matrix(1 0 0 1.00438 115.416 175.237)"/><text font-family="Verdana,Verdana_MSFontService,sans-serif" font-weight="400" font-size="12" transform="matrix(0.475694 0 0 0.477778 104.115 177)">60</text><g><path d="M27.8911 149.051 257.388 149.051" stroke="#0066CC" stroke-width="1.18924" stroke-linejoin="round" stroke-dasharray="4.40017 1.90278" stroke-opacity="0.8" fill="none" transform="matrix(1 0 0 1.00438 99 161)"/></g><g><path d="M27.8911 119.564 60.6763 120.656 93.4616 87.3465 126.247 60.0436 159.032 11.9905 191.817 25.642 224.602 50.2148 257.388 60.0436" stroke="#FF3333" stroke-width="1.18924" stroke-linecap="square" stroke-linejoin="round" fill="none" transform="matrix(1 0 0 1.00438 99 161)"/></g><g><path d="M0 1.90278C0.504621 1.90278 0.988645 1.70229 1.34547 1.34547 1.70229 0.988645 1.90278 0.504621 1.90278 0 1.90278-0.504621 1.70229-0.988645 1.34547-1.34547 0.988645-1.70229 0.504621-1.90278 0-1.90278-0.504621-1.90278-0.988645-1.70229-1.34547-1.34547-1.70229-0.988645-1.90278-0.504621-1.90278 0-1.90278 0.504621-1.70229 0.988645-1.34547 1.34547-0.988645 1.70229-0.504621 1.90278 0 1.90278Z" stroke="#FFFFFF" stroke-width="0.713542" stroke-linejoin="round" fill="#FF3333" transform="matrix(1 0 0 1.00438 126.891 281.088)"/><path d="M0 1.90278C0.504621 1.90278 0.988645 1.70229 1.34547 1.34547 1.70229 0.988645 1.90278 0.504621 1.90278 0 1.90278-0.504621 1.70229-0.988645 1.34547-1.34547 0.988645-1.70229 0.504621-1.90278 0-1.90278-0.504621-1.90278-0.988645-1.70229-1.34547-1.34547-1.70229-0.988645-1.90278-0.504621-1.90278 0-1.90278 0.504621-1.70229 0.988645-1.34547 1.34547-0.988645 1.70229-0.504621 1.90278 0 1.90278Z" stroke="#FFFFFF" stroke-width="0.713542" stroke-linejoin="round" fill="#FF3333" transform="matrix(1 0 0 1.00438 159.676 282.185)"/><path d="M0 1.90278C0.504621 1.90278 0.988645 1.70229 1.34547 1.34547 1.70229 0.988645 1.90278 0.504621 1.90278 0 1.90278-0.504621 1.70229-0.988645 1.34547-1.34547 0.988645-1.70229 0.504621-1.90278 0-1.90278-0.504621-1.90278-0.988645-1.70229-1.34547-1.34547-1.70229-0.988645-1.90278-0.504621-1.90278 0-1.90278 0.504621-1.70229 0.988645-1.34547 1.34547-0.988645 1.70229-0.504621 1.90278 0 1.90278Z" stroke="#FFFFFF" stroke-width="0.713542" stroke-linejoin="round" fill="#FF3333" transform="matrix(1 0 0 1.00438 192.462 248.729)"/><path d="M0 1.90278C0.504621 1.90278 0.988645 1.70229 1.34547 1.34547 1.70229 0.988645 1.90278 0.504621 1.90278 0 1.90278-0.504621 1.70229-0.988645 1.34547-1.34547 0.988645-1.70229 0.504621-1.90278 0-1.90278-0.504621-1.90278-0.988645-1.70229-1.34547-1.34547-1.70229-0.988645-1.90278-0.504621-1.90278 0-1.90278 0.504621-1.70229 0.988645-1.34547 1.34547-0.988645 1.70229-0.504621 1.90278 0 1.90278Z" stroke="#FFFFFF" stroke-width="0.713542" stroke-linejoin="round" fill="#FF3333" transform="matrix(1 0 0 1.00438 225.247 221.307)"/><path d="M0 1.90278C0.504621 1.90278 0.988645 1.70229 1.34547 1.34547 1.70229 0.988645 1.90278 0.504621 1.90278 0 1.90278-0.504621 1.70229-0.988645 1.34547-1.34547 0.988645-1.70229 0.504621-1.90278 0-1.90278-0.504621-1.90278-0.988645-1.70229-1.34547-1.34547-1.70229-0.988645-1.90278-0.504621-1.90278 0-1.90278 0.504621-1.70229 0.988645-1.34547 1.34547-0.988645 1.70229-0.504621 1.90278 0 1.90278Z" stroke="#FFFFFF" stroke-width="0.713542" stroke-linejoin="round" fill="#FF3333" transform="matrix(1 0 0 1.00438 258.032 173.043)"/><path d="M0 1.90278C0.504621 1.90278 0.988645 1.70229 1.34547 1.34547 1.70229 0.988645 1.90278 0.504621 1.90278 0 1.90278-0.504621 1.70229-0.988645 1.34547-1.34547 0.988645-1.70229 0.504621-1.90278 0-1.90278-0.504621-1.90278-0.988645-1.70229-1.34547-1.34547-1.70229-0.988645-1.90278-0.504621-1.90278 0-1.90278 0.504621-1.70229 0.988645-1.34547 1.34547-0.988645 1.70229-0.504621 1.90278 0 1.90278Z" stroke="#FFFFFF" stroke-width="0.713542" stroke-linejoin="round" fill="#FF3333" transform="matrix(1 0 0 1.00438 290.817 186.754)"/><path d="M0 1.90278C0.504621 1.90278 0.988645 1.70229 1.34547 1.34547 1.70229 0.988645 1.90278 0.504621 1.90278 0 1.90278-0.504621 1.70229-0.988645 1.34547-1.34547 0.988645-1.70229 0.504621-1.90278 0-1.90278-0.504621-1.90278-0.988645-1.70229-1.34547-1.34547-1.70229-0.988645-1.90278-0.504621-1.90278 0-1.90278 0.504621-1.70229 0.988645-1.34547 1.34547-0.988645 1.70229-0.504621 1.90278 0 1.90278Z" stroke="#FFFFFF" stroke-width="0.713542" stroke-linejoin="round" fill="#FF3333" transform="matrix(1 0 0 1.00438 323.602 211.435)"/><path d="M0 1.90278C0.504621 1.90278 0.988645 1.70229 1.34547 1.34547 1.70229 0.988645 1.90278 0.504621 1.90278 0 1.90278-0.504621 1.70229-0.988645 1.34547-1.34547 0.988645-1.70229 0.504621-1.90278 0-1.90278-0.504621-1.90278-0.988645-1.70229-1.34547-1.34547-1.70229-0.988645-1.90278-0.504621-1.90278 0-1.90278 0.504621-1.70229 0.988645-1.34547 1.34547-0.988645 1.70229-0.504621 1.90278 0 1.90278Z" stroke="#FFFFFF" stroke-width="0.713542" stroke-linejoin="round" fill="#FF3333" transform="matrix(1 0 0 1.00438 356.388 221.307)"/></g><g><path d="M27.8911 122.84 60.6763 100.452 93.4616 93.8992 126.247 86.8004 159.032 92.2609 191.817 90.077 224.602 89.5309 257.388 99.3597" stroke="#00994D" stroke-width="1.18924" stroke-linecap="square" stroke-linejoin="round" fill="none" transform="matrix(1 0 0 1.00438 99 161)"/></g><g><path d="M-1.90278 1.90278 1.90278 1.90278 1.90278-1.90278-1.90278-1.90278Z" stroke="#FFFFFF" stroke-width="0.713542" fill="#00994D" transform="matrix(1 0 0 1.00438 126.891 284.378)"/><path d="M-1.90278 1.90278 1.90278 1.90278 1.90278-1.90278-1.90278-1.90278Z" stroke="#FFFFFF" stroke-width="0.713542" fill="#00994D" transform="matrix(1 0 0 1.00438 159.676 261.892)"/><path d="M-1.90278 1.90278 1.90278 1.90278 1.90278-1.90278-1.90278-1.90278Z" stroke="#FFFFFF" stroke-width="0.713542" fill="#00994D" transform="matrix(1 0 0 1.00438 192.462 255.31)"/><path d="M-1.90278 1.90278 1.90278 1.90278 1.90278-1.90278-1.90278-1.90278Z" stroke="#FFFFFF" stroke-width="0.713542" fill="#00994D" transform="matrix(1 0 0 1.00438 225.247 248.181)"/><path d="M-1.90278 1.90278 1.90278 1.90278 1.90278-1.90278-1.90278-1.90278Z" stroke="#FFFFFF" stroke-width="0.713542" fill="#00994D" transform="matrix(1 0 0 1.00438 258.032 253.665)"/><path d="M-1.90278 1.90278 1.90278 1.90278 1.90278-1.90278-1.90278-1.90278Z" stroke="#FFFFFF" stroke-width="0.713542" fill="#00994D" transform="matrix(1 0 0 1.00438 290.817 251.472)"/><path d="M-1.90278 1.90278 1.90278 1.90278 1.90278-1.90278-1.90278-1.90278Z" stroke="#FFFFFF" stroke-width="0.713542" fill="#00994D" transform="matrix(1 0 0 1.00438 323.602 250.923)"/><path d="M-1.90278 1.90278 1.90278 1.90278 1.90278-1.90278-1.90278-1.90278Z" stroke="#FFFFFF" stroke-width="0.713542" fill="#00994D" transform="matrix(1 0 0 1.00438 356.388 260.795)"/></g><g><path d="M27.8911 140.86 60.6763 123.387 93.4616 123.387 126.247 123.387 159.032 123.387 191.817 123.387 224.602 123.387 257.388 123.387" stroke="#FF9900" stroke-width="1.18924" stroke-linecap="square" stroke-linejoin="round" fill="none" transform="matrix(1 0 0 1.00438 99 161)"/></g><g><path d="M0 2.69093 2.69093 0 0-2.69093-2.69093 0Z" stroke="#FFFFFF" stroke-width="0.713542" fill="#FF9900" transform="matrix(1 0 0 1.00438 126.891 302.477)"/><path d="M0 2.69093 2.69093 0 0-2.69093-2.69093 0Z" stroke="#FFFFFF" stroke-width="0.713542" fill="#FF9900" transform="matrix(1 0 0 1.00438 159.676 284.927)"/><path d="M0 2.69093 2.69093 0 0-2.69093-2.69093 0Z" stroke="#FFFFFF" stroke-width="0.713542" fill="#FF9900" transform="matrix(1 0 0 1.00438 192.462 284.927)"/><path d="M0 2.69093 2.69093 0 0-2.69093-2.69093 0Z" stroke="#FFFFFF" stroke-width="0.713542" fill="#FF9900" transform="matrix(1 0 0 1.00438 225.247 284.927)"/><path d="M0 2.69093 2.69093 0 0-2.69093-2.69093 0Z" stroke="#FFFFFF" stroke-width="0.713542" fill="#FF9900" transform="matrix(1 0 0 1.00438 258.032 284.927)"/><path d="M0 2.69093 2.69093 0 0-2.69093-2.69093 0Z" stroke="#FFFFFF" stroke-width="0.713542" fill="#FF9900" transform="matrix(1 0 0 1.00438 290.817 284.927)"/><path d="M0 2.69093 2.69093 0 0-2.69093-2.69093 0Z" stroke="#FFFFFF" stroke-width="0.713542" fill="#FF9900" transform="matrix(1 0 0 1.00438 323.602 284.927)"/><path d="M0 2.69093 2.69093 0 0-2.69093-2.69093 0Z" stroke="#FFFFFF" stroke-width="0.713542" fill="#FF9900" transform="matrix(1 0 0 1.00438 356.388 284.927)"/></g><g><path d="M27.8911 97.1753 60.6763 86.8004 93.4616 79.7017 126.247 54.5831 159.032 48.0304 191.817 51.3065 224.602 39.8395 257.388 43.1159" stroke="#9933CC" stroke-width="1.18924" stroke-linecap="square" stroke-linejoin="round" fill="none" transform="matrix(1 0 0 1.00438 99 161)"/></g><g><path d="M0 1.90278 1.90278-1.90278-1.90278-1.90278Z" stroke="#FFFFFF" stroke-width="0.713542" fill="#9933CC" transform="matrix(1 0 0 1.00438 126.891 258.601)"/><path d="M0 1.90278 1.90278-1.90278-1.90278-1.90278Z" stroke="#FFFFFF" stroke-width="0.713542" fill="#9933CC" transform="matrix(1 0 0 1.00438 159.676 248.181)"/><path d="M0 1.90278 1.90278-1.90278-1.90278-1.90278Z" stroke="#FFFFFF" stroke-width="0.713542" fill="#9933CC" transform="matrix(1 0 0 1.00438 192.462 241.051)"/><path d="M0 1.90278 1.90278-1.90278-1.90278-1.90278Z" stroke="#FFFFFF" stroke-width="0.713542" fill="#9933CC" transform="matrix(1 0 0 1.00438 225.247 215.822)"/><path d="M0 1.90278 1.90278-1.90278-1.90278-1.90278Z" stroke="#FFFFFF" stroke-width="0.713542" fill="#9933CC" transform="matrix(1 0 0 1.00438 258.032 209.241)"/><path d="M0 1.90278 1.90278-1.90278-1.90278-1.90278Z" stroke="#FFFFFF" stroke-width="0.713542" fill="#9933CC" transform="matrix(1 0 0 1.00438 290.817 212.531)"/><path d="M0 1.90278 1.90278-1.90278-1.90278-1.90278Z" stroke="#FFFFFF" stroke-width="0.713542" fill="#9933CC" transform="matrix(1 0 0 1.00438 323.602 201.014)"/><path d="M0 1.90278 1.90278-1.90278-1.90278-1.90278Z" stroke="#FFFFFF" stroke-width="0.713542" fill="#9933CC" transform="matrix(1 0 0 1.00438 356.388 204.305)"/></g><g><path d="M27.8911 32.1947 257.388 32.1947" stroke="#0099CC" stroke-width="1.18924" stroke-linejoin="round" stroke-dasharray="4.40017 1.90278" stroke-opacity="0.8" fill="none" transform="matrix(1 0 0 1.00438 99 161)"/></g><g><path d="M27.8911 121.748 257.388 121.748" stroke="#FF3399" stroke-width="1.18924" stroke-linejoin="round" stroke-dasharray="4.40017 1.90278" stroke-opacity="0.8" fill="none" transform="matrix(1 0 0 1.00438 99 161)"/></g><g><path d="M27.8911 124.478 257.388 124.478" stroke="#CCCC00" stroke-width="1.18924" stroke-linejoin="round" stroke-dasharray="4.40017 1.90278" stroke-opacity="0.8" fill="none" transform="matrix(1 0 0 1.00438 99 161)"/></g><path d="M16.4162 155.904 16.4162 5.1375" stroke="#000000" stroke-width="0.713542" stroke-linecap="square" fill="none" transform="matrix(1 0 0 1.00438 99 161)"/><path d="M268.863 155.904 268.863 5.1375" stroke="#000000" stroke-width="0.713542" stroke-linecap="square" fill="none" transform="matrix(1 0 0 1.00438 99 161)"/><path d="M16.4162 155.904 268.863 155.904" stroke="#000000" stroke-width="0.713542" stroke-linecap="square" fill="none" transform="matrix(1 0 0 1.00438 99 161)"/><path d="M16.4162 5.1375 268.863 5.1375" stroke="#000000" stroke-width="0.713542" stroke-linecap="square" fill="none" transform="matrix(1 0 0 1.00438 99 161)"/></g></g></g><g><g><g><g><path d="M33.0402 155.904 33.0402 5.1375" stroke="#808080" stroke-width="0.380556" stroke-linejoin="round" stroke-dasharray="0.380556 0.627917" stroke-opacity="0.4" fill="none" transform="matrix(1 0 0 1.00438 684 161)"/></g><path d="M0 0 0 2.37847" stroke="#000000" stroke-width="0.713542" stroke-linejoin="round" fill="none" transform="matrix(1 0 0 1.00438 717.04 317.587)"/><text font-family="Verdana,Verdana_MSFontService,sans-serif" font-weight="400" font-size="12" transform="matrix(0.475694 0 0 0.477778 715.226 326)">1</text><g><path d="M65.1249 155.904 65.1249 5.1375" stroke="#808080" stroke-width="0.380556" stroke-linejoin="round" stroke-dasharray="0.380556 0.627917" stroke-opacity="0.4" fill="none" transform="matrix(1 0 0 1.00438 684 161)"/></g><path d="M0 0 0 2.37847" stroke="#000000" stroke-width="0.713542" stroke-linejoin="round" fill="none" transform="matrix(1 0 0 1.00438 749.125 317.587)"/><text font-family="Verdana,Verdana_MSFontService,sans-serif" font-weight="400" font-size="12" transform="matrix(0.475694 0 0 0.477778 747.31 326)">2</text><g><path d="M97.2096 155.904 97.2096 5.1375" stroke="#808080" stroke-width="0.380556" stroke-linejoin="round" stroke-dasharray="0.380556 0.627917" stroke-opacity="0.4" fill="none" transform="matrix(1 0 0 1.00438 684 161)"/></g><path d="M0 0 0 2.37847" stroke="#000000" stroke-width="0.713542" stroke-linejoin="round" fill="none" transform="matrix(1 0 0 1.00438 781.21 317.587)"/><text font-family="Verdana,Verdana_MSFontService,sans-serif" font-weight="400" font-size="12" transform="matrix(0.475694 0 0 0.477778 779.395 326)">3</text><g><path d="M129.294 155.904 129.294 5.1375" stroke="#808080" stroke-width="0.380556" stroke-linejoin="round" stroke-dasharray="0.380556 0.627917" stroke-opacity="0.4" fill="none" transform="matrix(1 0 0 1.00438 684 161)"/></g><path d="M0 0 0 2.37847" stroke="#000000" stroke-width="0.713542" stroke-linejoin="round" fill="none" transform="matrix(1 0 0 1.00438 813.294 317.587)"/><text font-family="Verdana,Verdana_MSFontService,sans-serif" font-weight="400" font-size="12" transform="matrix(0.475694 0 0 0.477778 811.48 326)">4</text><g><path d="M161.379 155.904 161.379 5.1375" stroke="#808080" stroke-width="0.380556" stroke-linejoin="round" stroke-dasharray="0.380556 0.627917" stroke-opacity="0.4" fill="none" transform="matrix(1 0 0 1.00438 684 161)"/></g><path d="M0 0 0 2.37847" stroke="#000000" stroke-width="0.713542" stroke-linejoin="round" fill="none" transform="matrix(1 0 0 1.00438 845.379 317.587)"/><text font-family="Verdana,Verdana_MSFontService,sans-serif" font-weight="400" font-size="12" transform="matrix(0.475694 0 0 0.477778 843.564 326)">5</text><g><path d="M193.464 155.904 193.464 5.1375" stroke="#808080" stroke-width="0.380556" stroke-linejoin="round" stroke-dasharray="0.380556 0.627917" stroke-opacity="0.4" fill="none" transform="matrix(1 0 0 1.00438 684 161)"/></g><path d="M0 0 0 2.37847" stroke="#000000" stroke-width="0.713542" stroke-linejoin="round" fill="none" transform="matrix(1 0 0 1.00438 877.464 317.587)"/><text font-family="Verdana,Verdana_MSFontService,sans-serif" font-weight="400" font-size="12" transform="matrix(0.475694 0 0 0.477778 875.649 326)">6</text><g><path d="M225.548 155.904 225.548 5.1375" stroke="#808080" stroke-width="0.380556" stroke-linejoin="round" stroke-dasharray="0.380556 0.627917" stroke-opacity="0.4" fill="none" transform="matrix(1 0 0 1.00438 684 161)"/></g><path d="M0 0 0 2.37847" stroke="#000000" stroke-width="0.713542" stroke-linejoin="round" fill="none" transform="matrix(1 0 0 1.00438 909.548 317.587)"/><text font-family="Verdana,Verdana_MSFontService,sans-serif" font-weight="400" font-size="12" transform="matrix(0.475694 0 0 0.477778 907.734 326)">7</text><g><path d="M257.633 155.904 257.633 5.1375" stroke="#808080" stroke-width="0.380556" stroke-linejoin="round" stroke-dasharray="0.380556 0.627917" stroke-opacity="0.4" fill="none" transform="matrix(1 0 0 1.00438 684 161)"/></g><path d="M0 0 0 2.37847" stroke="#000000" stroke-width="0.713542" stroke-linejoin="round" fill="none" transform="matrix(1 0 0 1.00438 941.633 317.587)"/><text font-family="Verdana,Verdana_MSFontService,sans-serif" font-weight="400" font-size="12" transform="matrix(0.475694 0 0 0.477778 939.818 326)">8</text><g><path d="M21.8106 151.702 268.863 151.702" stroke="#808080" stroke-width="0.380556" stroke-linejoin="round" stroke-dasharray="0.380556 0.627917" stroke-opacity="0.4" fill="none" transform="matrix(1 0 0 1.00438 684 161)"/></g><path d="M0 0-2.37847 0" stroke="#000000" stroke-width="0.713542" stroke-linejoin="round" fill="none" transform="matrix(1 0 0 1.00438 705.811 313.367)"/><text font-family="Verdana,Verdana_MSFontService,sans-serif" font-weight="400" font-size="12" transform="matrix(0.475694 0 0 0.477778 688.804 316)">57</text><text font-family="Verdana,Verdana_MSFontService,sans-serif" font-weight="400" font-size="12" transform="matrix(0.475694 0 0 0.477778 696.062 316)">.</text><text font-family="Verdana,Verdana_MSFontService,sans-serif" font-weight="400" font-size="12" transform="matrix(0.475694 0 0 0.477778 698.138 316)">5</text><g><path d="M21.8106 134.508 268.863 134.508" stroke="#808080" stroke-width="0.380556" stroke-linejoin="round" stroke-dasharray="0.380556 0.627917" stroke-opacity="0.4" fill="none" transform="matrix(1 0 0 1.00438 684 161)"/></g><path d="M0 0-2.37847 0" stroke="#000000" stroke-width="0.713542" stroke-linejoin="round" fill="none" transform="matrix(1 0 0 1.00438 705.811 296.097)"/><text font-family="Verdana,Verdana_MSFontService,sans-serif" font-weight="400" font-size="12" transform="matrix(0.475694 0 0 0.477778 688.804 298)">60</text><text font-family="Verdana,Verdana_MSFontService,sans-serif" font-weight="400" font-size="12" transform="matrix(0.475694 0 0 0.477778 696.062 298)">.</text><text font-family="Verdana,Verdana_MSFontService,sans-serif" font-weight="400" font-size="12" transform="matrix(0.475694 0 0 0.477778 698.138 298)">0</text><g><path d="M21.8106 117.313 268.863 117.313" stroke="#808080" stroke-width="0.380556" stroke-linejoin="round" stroke-dasharray="0.380556 0.627917" stroke-opacity="0.4" fill="none" transform="matrix(1 0 0 1.00438 684 161)"/></g><path d="M0 0-2.37847 0" stroke="#000000" stroke-width="0.713542" stroke-linejoin="round" fill="none" transform="matrix(1 0 0 1.00438 705.811 278.827)"/><text font-family="Verdana,Verdana_MSFontService,sans-serif" font-weight="400" font-size="12" transform="matrix(0.475694 0 0 0.477778 688.804 281)">62</text><text font-family="Verdana,Verdana_MSFontService,sans-serif" font-weight="400" font-size="12" transform="matrix(0.475694 0 0 0.477778 696.062 281)">.</text><text font-family="Verdana,Verdana_MSFontService,sans-serif" font-weight="400" font-size="12" transform="matrix(0.475694 0 0 0.477778 698.138 281)">5</text><g><path d="M21.8106 100.119 268.863 100.119" stroke="#808080" stroke-width="0.380556" stroke-linejoin="round" stroke-dasharray="0.380556 0.627917" stroke-opacity="0.4" fill="none" transform="matrix(1 0 0 1.00438 684 161)"/></g><path d="M0 0-2.37847 0" stroke="#000000" stroke-width="0.713542" stroke-linejoin="round" fill="none" transform="matrix(1 0 0 1.00438 705.811 261.557)"/><text font-family="Verdana,Verdana_MSFontService,sans-serif" font-weight="400" font-size="12" transform="matrix(0.475694 0 0 0.477778 688.804 264)">65</text><text font-family="Verdana,Verdana_MSFontService,sans-serif" font-weight="400" font-size="12" transform="matrix(0.475694 0 0 0.477778 696.062 264)">.</text><text font-family="Verdana,Verdana_MSFontService,sans-serif" font-weight="400" font-size="12" transform="matrix(0.475694 0 0 0.477778 698.138 264)">0</text><g><path d="M21.8106 82.9245 268.863 82.9245" stroke="#808080" stroke-width="0.380556" stroke-linejoin="round" stroke-dasharray="0.380556 0.627917" stroke-opacity="0.4" fill="none" transform="matrix(1 0 0 1.00438 684 161)"/></g><path d="M0 0-2.37847 0" stroke="#000000" stroke-width="0.713542" stroke-linejoin="round" fill="none" transform="matrix(1 0 0 1.00438 705.811 244.288)"/><text font-family="Verdana,Verdana_MSFontService,sans-serif" font-weight="400" font-size="12" transform="matrix(0.475694 0 0 0.477778 688.804 246)">67</text><text font-family="Verdana,Verdana_MSFontService,sans-serif" font-weight="400" font-size="12" transform="matrix(0.475694 0 0 0.477778 696.062 246)">.</text><text font-family="Verdana,Verdana_MSFontService,sans-serif" font-weight="400" font-size="12" transform="matrix(0.475694 0 0 0.477778 698.138 246)">5</text><g><path d="M21.8106 65.73 268.863 65.73" stroke="#808080" stroke-width="0.380556" stroke-linejoin="round" stroke-dasharray="0.380556 0.627917" stroke-opacity="0.4" fill="none" transform="matrix(1 0 0 1.00438 684 161)"/></g><path d="M0 0-2.37847 0" stroke="#000000" stroke-width="0.713542" stroke-linejoin="round" fill="none" transform="matrix(1 0 0 1.00438 705.811 227.018)"/><text font-family="Verdana,Verdana_MSFontService,sans-serif" font-weight="400" font-size="12" transform="matrix(0.475694 0 0 0.477778 688.804 229)">70</text><text font-family="Verdana,Verdana_MSFontService,sans-serif" font-weight="400" font-size="12" transform="matrix(0.475694 0 0 0.477778 696.062 229)">.</text><text font-family="Verdana,Verdana_MSFontService,sans-serif" font-weight="400" font-size="12" transform="matrix(0.475694 0 0 0.477778 698.138 229)">0</text><g><path d="M21.8106 48.5356 268.863 48.5356" stroke="#808080" stroke-width="0.380556" stroke-linejoin="round" stroke-dasharray="0.380556 0.627917" stroke-opacity="0.4" fill="none" transform="matrix(1 0 0 1.00438 684 161)"/></g><path d="M0 0-2.37847 0" stroke="#000000" stroke-width="0.713542" stroke-linejoin="round" fill="none" transform="matrix(1 0 0 1.00438 705.811 209.748)"/><text font-family="Verdana,Verdana_MSFontService,sans-serif" font-weight="400" font-size="12" transform="matrix(0.475694 0 0 0.477778 688.804 212)">72</text><text font-family="Verdana,Verdana_MSFontService,sans-serif" font-weight="400" font-size="12" transform="matrix(0.475694 0 0 0.477778 696.062 212)">.</text><text font-family="Verdana,Verdana_MSFontService,sans-serif" font-weight="400" font-size="12" transform="matrix(0.475694 0 0 0.477778 698.138 212)">5</text><g><path d="M21.8106 31.3412 268.863 31.3412" stroke="#808080" stroke-width="0.380556" stroke-linejoin="round" stroke-dasharray="0.380556 0.627917" stroke-opacity="0.4" fill="none" transform="matrix(1 0 0 1.00438 684 161)"/></g><path d="M0 0-2.37847 0" stroke="#000000" stroke-width="0.713542" stroke-linejoin="round" fill="none" transform="matrix(1 0 0 1.00438 705.811 192.478)"/><text font-family="Verdana,Verdana_MSFontService,sans-serif" font-weight="400" font-size="12" transform="matrix(0.475694 0 0 0.477778 688.804 195)">75</text><text font-family="Verdana,Verdana_MSFontService,sans-serif" font-weight="400" font-size="12" transform="matrix(0.475694 0 0 0.477778 696.062 195)">.</text><text font-family="Verdana,Verdana_MSFontService,sans-serif" font-weight="400" font-size="12" transform="matrix(0.475694 0 0 0.477778 698.138 195)">0</text><g><path d="M21.8106 14.1467 268.863 14.1467" stroke="#808080" stroke-width="0.380556" stroke-linejoin="round" stroke-dasharray="0.380556 0.627917" stroke-opacity="0.4" fill="none" transform="matrix(1 0 0 1.00438 684 161)"/></g><path d="M0 0-2.37847 0" stroke="#000000" stroke-width="0.713542" stroke-linejoin="round" fill="none" transform="matrix(1 0 0 1.00438 705.811 175.209)"/><text font-family="Verdana,Verdana_MSFontService,sans-serif" font-weight="400" font-size="12" transform="matrix(0.475694 0 0 0.477778 688.804 177)">77</text><text font-family="Verdana,Verdana_MSFontService,sans-serif" font-weight="400" font-size="12" transform="matrix(0.475694 0 0 0.477778 696.062 177)">.</text><text font-family="Verdana,Verdana_MSFontService,sans-serif" font-weight="400" font-size="12" transform="matrix(0.475694 0 0 0.477778 698.138 177)">5</text><g><path d="M33.0402 54.1745 257.633 54.1745" stroke="#0066CC" stroke-width="1.18924" stroke-linejoin="round" stroke-dasharray="4.40017 1.90278" stroke-opacity="0.8" fill="none" transform="matrix(1 0 0 1.00438 684 161)"/></g><g><path d="M33.0402 88.6561 65.1249 88.6561 97.2096 87.8903 129.294 87.425 161.379 88.1871 193.464 88.8107 225.548 89.1233 257.633 89.5842" stroke="#FF3333" stroke-width="1.18924" stroke-linecap="square" stroke-linejoin="round" fill="none" transform="matrix(1 0 0 1.00438 684 161)"/></g><g><path d="M0 1.90278C0.504621 1.90278 0.988645 1.70229 1.34547 1.34547 1.70229 0.988645 1.90278 0.504621 1.90278 0 1.90278-0.504621 1.70229-0.988645 1.34547-1.34547 0.988645-1.70229 0.504621-1.90278 0-1.90278-0.504621-1.90278-0.988645-1.70229-1.34547-1.34547-1.70229-0.988645-1.90278-0.504621-1.90278 0-1.90278 0.504621-1.70229 0.988645-1.34547 1.34547-0.988645 1.70229-0.504621 1.90278 0 1.90278Z" stroke="#FFFFFF" stroke-width="0.713542" stroke-linejoin="round" fill="#FF3333" transform="matrix(1 0 0 1.00438 717.04 250.044)"/><path d="M0 1.90278C0.504621 1.90278 0.988645 1.70229 1.34547 1.34547 1.70229 0.988645 1.90278 0.504621 1.90278 0 1.90278-0.504621 1.70229-0.988645 1.34547-1.34547 0.988645-1.70229 0.504621-1.90278 0-1.90278-0.504621-1.90278-0.988645-1.70229-1.34547-1.34547-1.70229-0.988645-1.90278-0.504621-1.90278 0-1.90278 0.504621-1.70229 0.988645-1.34547 1.34547-0.988645 1.70229-0.504621 1.90278 0 1.90278Z" stroke="#FFFFFF" stroke-width="0.713542" stroke-linejoin="round" fill="#FF3333" transform="matrix(1 0 0 1.00438 749.125 250.044)"/><path d="M0 1.90278C0.504621 1.90278 0.988645 1.70229 1.34547 1.34547 1.70229 0.988645 1.90278 0.504621 1.90278 0 1.90278-0.504621 1.70229-0.988645 1.34547-1.34547 0.988645-1.70229 0.504621-1.90278 0-1.90278-0.504621-1.90278-0.988645-1.70229-1.34547-1.34547-1.70229-0.988645-1.90278-0.504621-1.90278 0-1.90278 0.504621-1.70229 0.988645-1.34547 1.34547-0.988645 1.70229-0.504621 1.90278 0 1.90278Z" stroke="#FFFFFF" stroke-width="0.713542" stroke-linejoin="round" fill="#FF3333" transform="matrix(1 0 0 1.00438 781.21 249.275)"/><path d="M0 1.90278C0.504621 1.90278 0.988645 1.70229 1.34547 1.34547 1.70229 0.988645 1.90278 0.504621 1.90278 0 1.90278-0.504621 1.70229-0.988645 1.34547-1.34547 0.988645-1.70229 0.504621-1.90278 0-1.90278-0.504621-1.90278-0.988645-1.70229-1.34547-1.34547-1.70229-0.988645-1.90278-0.504621-1.90278 0-1.90278 0.504621-1.70229 0.988645-1.34547 1.34547-0.988645 1.70229-0.504621 1.90278 0 1.90278Z" stroke="#FFFFFF" stroke-width="0.713542" stroke-linejoin="round" fill="#FF3333" transform="matrix(1 0 0 1.00438 813.294 248.808)"/><path d="M0 1.90278C0.504621 1.90278 0.988645 1.70229 1.34547 1.34547 1.70229 0.988645 1.90278 0.504621 1.90278 0 1.90278-0.504621 1.70229-0.988645 1.34547-1.34547 0.988645-1.70229 0.504621-1.90278 0-1.90278-0.504621-1.90278-0.988645-1.70229-1.34547-1.34547-1.70229-0.988645-1.90278-0.504621-1.90278 0-1.90278 0.504621-1.70229 0.988645-1.34547 1.34547-0.988645 1.70229-0.504621 1.90278 0 1.90278Z" stroke="#FFFFFF" stroke-width="0.713542" stroke-linejoin="round" fill="#FF3333" transform="matrix(1 0 0 1.00438 845.379 249.573)"/><path d="M0 1.90278C0.504621 1.90278 0.988645 1.70229 1.34547 1.34547 1.70229 0.988645 1.90278 0.504621 1.90278 0 1.90278-0.504621 1.70229-0.988645 1.34547-1.34547 0.988645-1.70229 0.504621-1.90278 0-1.90278-0.504621-1.90278-0.988645-1.70229-1.34547-1.34547-1.70229-0.988645-1.90278-0.504621-1.90278 0-1.90278 0.504621-1.70229 0.988645-1.34547 1.34547-0.988645 1.70229-0.504621 1.90278 0 1.90278Z" stroke="#FFFFFF" stroke-width="0.713542" stroke-linejoin="round" fill="#FF3333" transform="matrix(1 0 0 1.00438 877.464 250.2)"/><path d="M0 1.90278C0.504621 1.90278 0.988645 1.70229 1.34547 1.34547 1.70229 0.988645 1.90278 0.504621 1.90278 0 1.90278-0.504621 1.70229-0.988645 1.34547-1.34547 0.988645-1.70229 0.504621-1.90278 0-1.90278-0.504621-1.90278-0.988645-1.70229-1.34547-1.34547-1.70229-0.988645-1.90278-0.504621-1.90278 0-1.90278 0.504621-1.70229 0.988645-1.34547 1.34547-0.988645 1.70229-0.504621 1.90278 0 1.90278Z" stroke="#FFFFFF" stroke-width="0.713542" stroke-linejoin="round" fill="#FF3333" transform="matrix(1 0 0 1.00438 909.548 250.514)"/><path d="M0 1.90278C0.504621 1.90278 0.988645 1.70229 1.34547 1.34547 1.70229 0.988645 1.90278 0.504621 1.90278 0 1.90278-0.504621 1.70229-0.988645 1.34547-1.34547 0.988645-1.70229 0.504621-1.90278 0-1.90278-0.504621-1.90278-0.988645-1.70229-1.34547-1.34547-1.70229-0.988645-1.90278-0.504621-1.90278 0-1.90278 0.504621-1.70229 0.988645-1.34547 1.34547-0.988645 1.70229-0.504621 1.90278 0 1.90278Z" stroke="#FFFFFF" stroke-width="0.713542" stroke-linejoin="round" fill="#FF3333" transform="matrix(1 0 0 1.00438 941.633 250.977)"/></g><g><path d="M33.0402 130.606 65.1249 86.8632 97.2096 67.7427 129.294 32.7622 161.379 30.6977 193.464 32.8314 225.548 34.6122 257.633 33.3723" stroke="#00994D" stroke-width="1.18924" stroke-linecap="square" stroke-linejoin="round" fill="none" transform="matrix(1 0 0 1.00438 684 161)"/></g><g><path d="M-1.90278 1.90278 1.90278 1.90278 1.90278-1.90278-1.90278-1.90278Z" stroke="#FFFFFF" stroke-width="0.713542" fill="#00994D" transform="matrix(1 0 0 1.00438 717.04 292.178)"/><path d="M-1.90278 1.90278 1.90278 1.90278 1.90278-1.90278-1.90278-1.90278Z" stroke="#FFFFFF" stroke-width="0.713542" fill="#00994D" transform="matrix(1 0 0 1.00438 749.125 248.244)"/><path d="M-1.90278 1.90278 1.90278 1.90278 1.90278-1.90278-1.90278-1.90278Z" stroke="#FFFFFF" stroke-width="0.713542" fill="#00994D" transform="matrix(1 0 0 1.00438 781.21 229.039)"/><path d="M-1.90278 1.90278 1.90278 1.90278 1.90278-1.90278-1.90278-1.90278Z" stroke="#FFFFFF" stroke-width="0.713542" fill="#00994D" transform="matrix(1 0 0 1.00438 813.294 193.906)"/><path d="M-1.90278 1.90278 1.90278 1.90278 1.90278-1.90278-1.90278-1.90278Z" stroke="#FFFFFF" stroke-width="0.713542" fill="#00994D" transform="matrix(1 0 0 1.00438 845.379 191.832)"/><path d="M-1.90278 1.90278 1.90278 1.90278 1.90278-1.90278-1.90278-1.90278Z" stroke="#FFFFFF" stroke-width="0.713542" fill="#00994D" transform="matrix(1 0 0 1.00438 877.464 193.975)"/><path d="M-1.90278 1.90278 1.90278 1.90278 1.90278-1.90278-1.90278-1.90278Z" stroke="#FFFFFF" stroke-width="0.713542" fill="#00994D" transform="matrix(1 0 0 1.00438 909.548 195.764)"/><path d="M-1.90278 1.90278 1.90278 1.90278 1.90278-1.90278-1.90278-1.90278Z" stroke="#FFFFFF" stroke-width="0.713542" fill="#00994D" transform="matrix(1 0 0 1.00438 941.633 194.518)"/></g><g><path d="M33.0402 149.051 65.1249 88.503 97.2096 80.5351 129.294 83.0643 161.379 87.8903 193.464 87.4298 225.548 86.0427 257.633 86.1949" stroke="#FF9900" stroke-width="1.18924" stroke-linecap="square" stroke-linejoin="round" fill="none" transform="matrix(1 0 0 1.00438 684 161)"/></g><g><path d="M0 2.69093 2.69093 0 0-2.69093-2.69093 0Z" stroke="#FFFFFF" stroke-width="0.713542" fill="#FF9900" transform="matrix(1 0 0 1.00438 717.04 310.704)"/><path d="M0 2.69093 2.69093 0 0-2.69093-2.69093 0Z" stroke="#FFFFFF" stroke-width="0.713542" fill="#FF9900" transform="matrix(1 0 0 1.00438 749.125 249.891)"/><path d="M0 2.69093 2.69093 0 0-2.69093-2.69093 0Z" stroke="#FFFFFF" stroke-width="0.713542" fill="#FF9900" transform="matrix(1 0 0 1.00438 781.21 241.888)"/><path d="M0 2.69093 2.69093 0 0-2.69093-2.69093 0Z" stroke="#FFFFFF" stroke-width="0.713542" fill="#FF9900" transform="matrix(1 0 0 1.00438 813.294 244.428)"/><path d="M0 2.69093 2.69093 0 0-2.69093-2.69093 0Z" stroke="#FFFFFF" stroke-width="0.713542" fill="#FF9900" transform="matrix(1 0 0 1.00438 845.379 249.275)"/><path d="M0 2.69093 2.69093 0 0-2.69093-2.69093 0Z" stroke="#FFFFFF" stroke-width="0.713542" fill="#FF9900" transform="matrix(1 0 0 1.00438 877.464 248.813)"/><path d="M0 2.69093 2.69093 0 0-2.69093-2.69093 0Z" stroke="#FFFFFF" stroke-width="0.713542" fill="#FF9900" transform="matrix(1 0 0 1.00438 909.548 247.419)"/><path d="M0 2.69093 2.69093 0 0-2.69093-2.69093 0Z" stroke="#FFFFFF" stroke-width="0.713542" fill="#FF9900" transform="matrix(1 0 0 1.00438 941.633 247.572)"/></g><g><path d="M33.0402 132.606 65.1249 43.6817 97.2096 13.3409 129.294 18.6019 161.379 44.3362 193.464 52.4853 225.548 57.4258 257.633 53.7397" stroke="#9933CC" stroke-width="1.18924" stroke-linecap="square" stroke-linejoin="round" fill="none" transform="matrix(1 0 0 1.00438 684 161)"/></g><g><path d="M0 1.90278 1.90278-1.90278-1.90278-1.90278Z" stroke="#FFFFFF" stroke-width="0.713542" fill="#9933CC" transform="matrix(1 0 0 1.00438 717.04 294.187)"/><path d="M0 1.90278 1.90278-1.90278-1.90278-1.90278Z" stroke="#FFFFFF" stroke-width="0.713542" fill="#9933CC" transform="matrix(1 0 0 1.00438 749.125 204.873)"/><path d="M0 1.90278 1.90278-1.90278-1.90278-1.90278Z" stroke="#FFFFFF" stroke-width="0.713542" fill="#9933CC" transform="matrix(1 0 0 1.00438 781.21 174.399)"/><path d="M0 1.90278 1.90278-1.90278-1.90278-1.90278Z" stroke="#FFFFFF" stroke-width="0.713542" fill="#9933CC" transform="matrix(1 0 0 1.00438 813.294 179.683)"/><path d="M0 1.90278 1.90278-1.90278-1.90278-1.90278Z" stroke="#FFFFFF" stroke-width="0.713542" fill="#9933CC" transform="matrix(1 0 0 1.00438 845.379 205.53)"/><path d="M0 1.90278 1.90278-1.90278-1.90278-1.90278Z" stroke="#FFFFFF" stroke-width="0.713542" fill="#9933CC" transform="matrix(1 0 0 1.00438 877.464 213.715)"/><path d="M0 1.90278 1.90278-1.90278-1.90278-1.90278Z" stroke="#FFFFFF" stroke-width="0.713542" fill="#9933CC" transform="matrix(1 0 0 1.00438 909.548 218.677)"/><path d="M0 1.90278 1.90278-1.90278-1.90278-1.90278Z" stroke="#FFFFFF" stroke-width="0.713542" fill="#9933CC" transform="matrix(1 0 0 1.00438 941.633 214.975)"/></g><g><path d="M33.0402 11.9905 257.633 11.9905" stroke="#0099CC" stroke-width="1.18924" stroke-linejoin="round" stroke-dasharray="4.40017 1.90278" stroke-opacity="0.8" fill="none" transform="matrix(1 0 0 1.00438 684 161)"/></g><g><path d="M33.0402 46.8771 257.633 46.8771" stroke="#FF3399" stroke-width="1.18924" stroke-linejoin="round" stroke-dasharray="4.40017 1.90278" stroke-opacity="0.8" fill="none" transform="matrix(1 0 0 1.00438 684 161)"/></g><g><path d="M33.0402 45.2045 257.633 45.2045" stroke="#CCCC00" stroke-width="1.18924" stroke-linejoin="round" stroke-dasharray="4.40017 1.90278" stroke-opacity="0.8" fill="none" transform="matrix(1 0 0 1.00438 684 161)"/></g><path d="M21.8106 155.904 21.8106 5.1375" stroke="#000000" stroke-width="0.713542" stroke-linecap="square" fill="none" transform="matrix(1 0 0 1.00438 684 161)"/><path d="M268.863 155.904 268.863 5.1375" stroke="#000000" stroke-width="0.713542" stroke-linecap="square" fill="none" transform="matrix(1 0 0 1.00438 684 161)"/><path d="M21.8106 155.904 268.863 155.904" stroke="#000000" stroke-width="0.713542" stroke-linecap="square" fill="none" transform="matrix(1 0 0 1.00438 684 161)"/><path d="M21.8106 5.1375 268.863 5.1375" stroke="#000000" stroke-width="0.713542" stroke-linecap="square" fill="none" transform="matrix(1 0 0 1.00438 684 161)"/></g></g></g><g><g><g><g><path d="M27.8911 155.904 27.8911 5.1375" stroke="#808080" stroke-width="0.380556" stroke-linejoin="round" stroke-dasharray="0.380556 0.627917" stroke-opacity="0.4" fill="none" transform="matrix(1 0 0 1.00438 962 161)"/></g><path d="M0 0 0 2.37847" stroke="#000000" stroke-width="0.713542" stroke-linejoin="round" fill="none" transform="matrix(1 0 0 1.00438 989.891 317.587)"/><text font-family="Verdana,Verdana_MSFontService,sans-serif" font-weight="400" font-size="12" transform="matrix(0.475694 0 0 0.477778 988.077 326)">1</text><g><path d="M60.6763 155.904 60.6763 5.1375" stroke="#808080" stroke-width="0.380556" stroke-linejoin="round" stroke-dasharray="0.380556 0.627917" stroke-opacity="0.4" fill="none" transform="matrix(1 0 0 1.00438 962 161)"/></g><path d="M0 0 0 2.37847" stroke="#000000" stroke-width="0.713542" stroke-linejoin="round" fill="none" transform="matrix(1 0 0 1.00438 1022.68 317.587)"/><text font-family="Verdana,Verdana_MSFontService,sans-serif" font-weight="400" font-size="12" transform="matrix(0.475694 0 0 0.477778 1020.86 326)">2</text><g><path d="M93.4616 155.904 93.4616 5.1375" stroke="#808080" stroke-width="0.380556" stroke-linejoin="round" stroke-dasharray="0.380556 0.627917" stroke-opacity="0.4" fill="none" transform="matrix(1 0 0 1.00438 962 161)"/></g><path d="M0 0 0 2.37847" stroke="#000000" stroke-width="0.713542" stroke-linejoin="round" fill="none" transform="matrix(1 0 0 1.00438 1055.46 317.587)"/><text font-family="Verdana,Verdana_MSFontService,sans-serif" font-weight="400" font-size="12" transform="matrix(0.475694 0 0 0.477778 1053.65 326)">3</text><g><path d="M126.247 155.904 126.247 5.1375" stroke="#808080" stroke-width="0.380556" stroke-linejoin="round" stroke-dasharray="0.380556 0.627917" stroke-opacity="0.4" fill="none" transform="matrix(1 0 0 1.00438 962 161)"/></g><path d="M0 0 0 2.37847" stroke="#000000" stroke-width="0.713542" stroke-linejoin="round" fill="none" transform="matrix(1 0 0 1.00438 1088.25 317.587)"/><text font-family="Verdana,Verdana_MSFontService,sans-serif" font-weight="400" font-size="12" transform="matrix(0.475694 0 0 0.477778 1086.43 326)">4</text><g><path d="M159.032 155.904 159.032 5.1375" stroke="#808080" stroke-width="0.380556" stroke-linejoin="round" stroke-dasharray="0.380556 0.627917" stroke-opacity="0.4" fill="none" transform="matrix(1 0 0 1.00438 962 161)"/></g><path d="M0 0 0 2.37847" stroke="#000000" stroke-width="0.713542" stroke-linejoin="round" fill="none" transform="matrix(1 0 0 1.00438 1121.03 317.587)"/><text font-family="Verdana,Verdana_MSFontService,sans-serif" font-weight="400" font-size="12" transform="matrix(0.475694 0 0 0.477778 1119.22 326)">5</text><g><path d="M191.817 155.904 191.817 5.1375" stroke="#808080" stroke-width="0.380556" stroke-linejoin="round" stroke-dasharray="0.380556 0.627917" stroke-opacity="0.4" fill="none" transform="matrix(1 0 0 1.00438 962 161)"/></g><path d="M0 0 0 2.37847" stroke="#000000" stroke-width="0.713542" stroke-linejoin="round" fill="none" transform="matrix(1 0 0 1.00438 1153.82 317.587)"/><text font-family="Verdana,Verdana_MSFontService,sans-serif" font-weight="400" font-size="12" transform="matrix(0.475694 0 0 0.477778 1152 326)">6</text><g><path d="M224.602 155.904 224.602 5.1375" stroke="#808080" stroke-width="0.380556" stroke-linejoin="round" stroke-dasharray="0.380556 0.627917" stroke-opacity="0.4" fill="none" transform="matrix(1 0 0 1.00438 962 161)"/></g><path d="M0 0 0 2.37847" stroke="#000000" stroke-width="0.713542" stroke-linejoin="round" fill="none" transform="matrix(1 0 0 1.00438 1186.6 317.587)"/><text font-family="Verdana,Verdana_MSFontService,sans-serif" font-weight="400" font-size="12" transform="matrix(0.475694 0 0 0.477778 1184.79 326)">7</text><g><path d="M257.388 155.904 257.388 5.1375" stroke="#808080" stroke-width="0.380556" stroke-linejoin="round" stroke-dasharray="0.380556 0.627917" stroke-opacity="0.4" fill="none" transform="matrix(1 0 0 1.00438 962 161)"/></g><path d="M0 0 0 2.37847" stroke="#000000" stroke-width="0.713542" stroke-linejoin="round" fill="none" transform="matrix(1 0 0 1.00438 1219.39 317.587)"/><text font-family="Verdana,Verdana_MSFontService,sans-serif" font-weight="400" font-size="12" transform="matrix(0.475694 0 0 0.477778 1217.57 326)">8</text><g><path d="M16.4162 151.603 268.863 151.603" stroke="#808080" stroke-width="0.380556" stroke-linejoin="round" stroke-dasharray="0.380556 0.627917" stroke-opacity="0.4" fill="none" transform="matrix(1 0 0 1.00438 962 161)"/></g><path d="M0 0-2.37847 0" stroke="#000000" stroke-width="0.713542" stroke-linejoin="round" fill="none" transform="matrix(1 0 0 1.00438 978.416 313.267)"/><text font-family="Verdana,Verdana_MSFontService,sans-serif" font-weight="400" font-size="12" transform="matrix(0.475694 0 0 0.477778 970.744 315)">0</text><g><path d="M16.4162 130.249 268.863 130.249" stroke="#808080" stroke-width="0.380556" stroke-linejoin="round" stroke-dasharray="0.380556 0.627917" stroke-opacity="0.4" fill="none" transform="matrix(1 0 0 1.00438 962 161)"/></g><path d="M0 0-2.37847 0" stroke="#000000" stroke-width="0.713542" stroke-linejoin="round" fill="none" transform="matrix(1 0 0 1.00438 978.416 291.819)"/><text font-family="Verdana,Verdana_MSFontService,sans-serif" font-weight="400" font-size="12" transform="matrix(0.475694 0 0 0.477778 967.115 294)">10</text><g><path d="M16.4162 108.895 268.863 108.895" stroke="#808080" stroke-width="0.380556" stroke-linejoin="round" stroke-dasharray="0.380556 0.627917" stroke-opacity="0.4" fill="none" transform="matrix(1 0 0 1.00438 962 161)"/></g><path d="M0 0-2.37847 0" stroke="#000000" stroke-width="0.713542" stroke-linejoin="round" fill="none" transform="matrix(1 0 0 1.00438 978.416 270.371)"/><text font-family="Verdana,Verdana_MSFontService,sans-serif" font-weight="400" font-size="12" transform="matrix(0.475694 0 0 0.477778 967.115 273)">20</text><g><path d="M16.4162 87.5406 268.863 87.5406" stroke="#808080" stroke-width="0.380556" stroke-linejoin="round" stroke-dasharray="0.380556 0.627917" stroke-opacity="0.4" fill="none" transform="matrix(1 0 0 1.00438 962 161)"/></g><path d="M0 0-2.37847 0" stroke="#000000" stroke-width="0.713542" stroke-linejoin="round" fill="none" transform="matrix(1 0 0 1.00438 978.416 248.924)"/><text font-family="Verdana,Verdana_MSFontService,sans-serif" font-weight="400" font-size="12" transform="matrix(0.475694 0 0 0.477778 967.115 251)">30</text><g><path d="M16.4162 66.1867 268.863 66.1867" stroke="#808080" stroke-width="0.380556" stroke-linejoin="round" stroke-dasharray="0.380556 0.627917" stroke-opacity="0.4" fill="none" transform="matrix(1 0 0 1.00438 962 161)"/></g><path d="M0 0-2.37847 0" stroke="#000000" stroke-width="0.713542" stroke-linejoin="round" fill="none" transform="matrix(1 0 0 1.00438 978.416 227.477)"/><text font-family="Verdana,Verdana_MSFontService,sans-serif" font-weight="400" font-size="12" transform="matrix(0.475694 0 0 0.477778 967.115 230)">40</text><g><path d="M16.4162 44.8329 268.863 44.8329" stroke="#808080" stroke-width="0.380556" stroke-linejoin="round" stroke-dasharray="0.380556 0.627917" stroke-opacity="0.4" fill="none" transform="matrix(1 0 0 1.00438 962 161)"/></g><path d="M0 0-2.37847 0" stroke="#000000" stroke-width="0.713542" stroke-linejoin="round" fill="none" transform="matrix(1 0 0 1.00438 978.416 206.029)"/><text font-family="Verdana,Verdana_MSFontService,sans-serif" font-weight="400" font-size="12" transform="matrix(0.475694 0 0 0.477778 967.115 208)">50</text><g><path d="M16.4162 23.4789 268.863 23.4789" stroke="#808080" stroke-width="0.380556" stroke-linejoin="round" stroke-dasharray="0.380556 0.627917" stroke-opacity="0.4" fill="none" transform="matrix(1 0 0 1.00438 962 161)"/></g><path d="M0 0-2.37847 0" stroke="#000000" stroke-width="0.713542" stroke-linejoin="round" fill="none" transform="matrix(1 0 0 1.00438 978.416 184.582)"/><text font-family="Verdana,Verdana_MSFontService,sans-serif" font-weight="400" font-size="12" transform="matrix(0.475694 0 0 0.477778 967.115 187)">60</text><g><path d="M27.8911 12.931 257.388 12.931" stroke="#0066CC" stroke-width="1.18924" stroke-linejoin="round" stroke-dasharray="4.40017 1.90278" stroke-opacity="0.8" fill="none" transform="matrix(1 0 0 1.00438 962 161)"/></g><g><path d="M27.8911 146.852 60.6763 86.2025 93.4616 57.1442 126.247 23.542 159.032 34.8808 191.817 39.5262 224.602 43.0923 257.388 47.646" stroke="#FF3333" stroke-width="1.18924" stroke-linecap="square" stroke-linejoin="round" fill="none" transform="matrix(1 0 0 1.00438 962 161)"/></g><g><path d="M0 1.90278C0.504621 1.90278 0.988645 1.70229 1.34547 1.34547 1.70229 0.988645 1.90278 0.504621 1.90278 0 1.90278-0.504621 1.70229-0.988645 1.34547-1.34547 0.988645-1.70229 0.504621-1.90278 0-1.90278-0.504621-1.90278-0.988645-1.70229-1.34547-1.34547-1.70229-0.988645-1.90278-0.504621-1.90278 0-1.90278 0.504621-1.70229 0.988645-1.34547 1.34547-0.988645 1.70229-0.504621 1.90278 0 1.90278Z" stroke="#FFFFFF" stroke-width="0.713542" stroke-linejoin="round" fill="#FF3333" transform="matrix(1 0 0 1.00438 989.891 308.495)"/><path d="M0 1.90278C0.504621 1.90278 0.988645 1.70229 1.34547 1.34547 1.70229 0.988645 1.90278 0.504621 1.90278 0 1.90278-0.504621 1.70229-0.988645 1.34547-1.34547 0.988645-1.70229 0.504621-1.90278 0-1.90278-0.504621-1.90278-0.988645-1.70229-1.34547-1.34547-1.70229-0.988645-1.90278-0.504621-1.90278 0-1.90278 0.504621-1.70229 0.988645-1.34547 1.34547-0.988645 1.70229-0.504621 1.90278 0 1.90278Z" stroke="#FFFFFF" stroke-width="0.713542" stroke-linejoin="round" fill="#FF3333" transform="matrix(1 0 0 1.00438 1022.68 247.58)"/><path d="M0 1.90278C0.504621 1.90278 0.988645 1.70229 1.34547 1.34547 1.70229 0.988645 1.90278 0.504621 1.90278 0 1.90278-0.504621 1.70229-0.988645 1.34547-1.34547 0.988645-1.70229 0.504621-1.90278 0-1.90278-0.504621-1.90278-0.988645-1.70229-1.34547-1.34547-1.70229-0.988645-1.90278-0.504621-1.90278 0-1.90278 0.504621-1.70229 0.988645-1.34547 1.34547-0.988645 1.70229-0.504621 1.90278 0 1.90278Z" stroke="#FFFFFF" stroke-width="0.713542" stroke-linejoin="round" fill="#FF3333" transform="matrix(1 0 0 1.00438 1055.46 218.394)"/><path d="M0 1.90278C0.504621 1.90278 0.988645 1.70229 1.34547 1.34547 1.70229 0.988645 1.90278 0.504621 1.90278 0 1.90278-0.504621 1.70229-0.988645 1.34547-1.34547 0.988645-1.70229 0.504621-1.90278 0-1.90278-0.504621-1.90278-0.988645-1.70229-1.34547-1.34547-1.70229-0.988645-1.90278-0.504621-1.90278 0-1.90278 0.504621-1.70229 0.988645-1.34547 1.34547-0.988645 1.70229-0.504621 1.90278 0 1.90278Z" stroke="#FFFFFF" stroke-width="0.713542" stroke-linejoin="round" fill="#FF3333" transform="matrix(1 0 0 1.00438 1088.25 184.645)"/><path d="M0 1.90278C0.504621 1.90278 0.988645 1.70229 1.34547 1.34547 1.70229 0.988645 1.90278 0.504621 1.90278 0 1.90278-0.504621 1.70229-0.988645 1.34547-1.34547 0.988645-1.70229 0.504621-1.90278 0-1.90278-0.504621-1.90278-0.988645-1.70229-1.34547-1.34547-1.70229-0.988645-1.90278-0.504621-1.90278 0-1.90278 0.504621-1.70229 0.988645-1.34547 1.34547-0.988645 1.70229-0.504621 1.90278 0 1.90278Z" stroke="#FFFFFF" stroke-width="0.713542" stroke-linejoin="round" fill="#FF3333" transform="matrix(1 0 0 1.00438 1121.03 196.034)"/><path d="M0 1.90278C0.504621 1.90278 0.988645 1.70229 1.34547 1.34547 1.70229 0.988645 1.90278 0.504621 1.90278 0 1.90278-0.504621 1.70229-0.988645 1.34547-1.34547 0.988645-1.70229 0.504621-1.90278 0-1.90278-0.504621-1.90278-0.988645-1.70229-1.34547-1.34547-1.70229-0.988645-1.90278-0.504621-1.90278 0-1.90278 0.504621-1.70229 0.988645-1.34547 1.34547-0.988645 1.70229-0.504621 1.90278 0 1.90278Z" stroke="#FFFFFF" stroke-width="0.713542" stroke-linejoin="round" fill="#FF3333" transform="matrix(1 0 0 1.00438 1153.82 200.699)"/><path d="M0 1.90278C0.504621 1.90278 0.988645 1.70229 1.34547 1.34547 1.70229 0.988645 1.90278 0.504621 1.90278 0 1.90278-0.504621 1.70229-0.988645 1.34547-1.34547 0.988645-1.70229 0.504621-1.90278 0-1.90278-0.504621-1.90278-0.988645-1.70229-1.34547-1.34547-1.70229-0.988645-1.90278-0.504621-1.90278 0-1.90278 0.504621-1.70229 0.988645-1.34547 1.34547-0.988645 1.70229-0.504621 1.90278 0 1.90278Z" stroke="#FFFFFF" stroke-width="0.713542" stroke-linejoin="round" fill="#FF3333" transform="matrix(1 0 0 1.00438 1186.6 204.281)"/><path d="M0 1.90278C0.504621 1.90278 0.988645 1.70229 1.34547 1.34547 1.70229 0.988645 1.90278 0.504621 1.90278 0 1.90278-0.504621 1.70229-0.988645 1.34547-1.34547 0.988645-1.70229 0.504621-1.90278 0-1.90278-0.504621-1.90278-0.988645-1.70229-1.34547-1.34547-1.70229-0.988645-1.90278-0.504621-1.90278 0-1.90278 0.504621-1.70229 0.988645-1.34547 1.34547-0.988645 1.70229-0.504621 1.90278 0 1.90278Z" stroke="#FFFFFF" stroke-width="0.713542" stroke-linejoin="round" fill="#FF3333" transform="matrix(1 0 0 1.00438 1219.39 208.855)"/></g><g><path d="M27.8911 129.626 60.6763 42.2515 93.4616 24.5518 126.247 21.792 159.032 28.7443 191.817 31.2711 224.602 38.5924 257.388 42.5941" stroke="#00994D" stroke-width="1.18924" stroke-linecap="square" stroke-linejoin="round" fill="none" transform="matrix(1 0 0 1.00438 962 161)"/></g><g><path d="M-1.90278 1.90278 1.90278 1.90278 1.90278-1.90278-1.90278-1.90278Z" stroke="#FFFFFF" stroke-width="0.713542" fill="#00994D" transform="matrix(1 0 0 1.00438 989.891 291.193)"/><path d="M-1.90278 1.90278 1.90278 1.90278 1.90278-1.90278-1.90278-1.90278Z" stroke="#FFFFFF" stroke-width="0.713542" fill="#00994D" transform="matrix(1 0 0 1.00438 1022.68 203.437)"/><path d="M-1.90278 1.90278 1.90278 1.90278 1.90278-1.90278-1.90278-1.90278Z" stroke="#FFFFFF" stroke-width="0.713542" fill="#00994D" transform="matrix(1 0 0 1.00438 1055.46 185.659)"/><path d="M-1.90278 1.90278 1.90278 1.90278 1.90278-1.90278-1.90278-1.90278Z" stroke="#FFFFFF" stroke-width="0.713542" fill="#00994D" transform="matrix(1 0 0 1.00438 1088.25 182.887)"/><path d="M-1.90278 1.90278 1.90278 1.90278 1.90278-1.90278-1.90278-1.90278Z" stroke="#FFFFFF" stroke-width="0.713542" fill="#00994D" transform="matrix(1 0 0 1.00438 1121.03 189.87)"/><path d="M-1.90278 1.90278 1.90278 1.90278 1.90278-1.90278-1.90278-1.90278Z" stroke="#FFFFFF" stroke-width="0.713542" fill="#00994D" transform="matrix(1 0 0 1.00438 1153.82 192.408)"/><path d="M-1.90278 1.90278 1.90278 1.90278 1.90278-1.90278-1.90278-1.90278Z" stroke="#FFFFFF" stroke-width="0.713542" fill="#00994D" transform="matrix(1 0 0 1.00438 1186.6 199.761)"/><path d="M-1.90278 1.90278 1.90278 1.90278 1.90278-1.90278-1.90278-1.90278Z" stroke="#FFFFFF" stroke-width="0.713542" fill="#00994D" transform="matrix(1 0 0 1.00438 1219.39 203.781)"/></g><g><path d="M27.8911 149.051 60.6763 126.397 93.4616 82.9264 126.247 69.7606 159.032 72.3217 191.817 74.7887 224.602 83.5201 257.388 91.2796" stroke="#FF9900" stroke-width="1.18924" stroke-linecap="square" stroke-linejoin="round" fill="none" transform="matrix(1 0 0 1.00438 962 161)"/></g><g><path d="M0 2.69093 2.69093 0 0-2.69093-2.69093 0Z" stroke="#FFFFFF" stroke-width="0.713542" fill="#FF9900" transform="matrix(1 0 0 1.00438 989.891 310.704)"/><path d="M0 2.69093 2.69093 0 0-2.69093-2.69093 0Z" stroke="#FFFFFF" stroke-width="0.713542" fill="#FF9900" transform="matrix(1 0 0 1.00438 1022.68 287.951)"/><path d="M0 2.69093 2.69093 0 0-2.69093-2.69093 0Z" stroke="#FFFFFF" stroke-width="0.713542" fill="#FF9900" transform="matrix(1 0 0 1.00438 1055.46 244.29)"/><path d="M0 2.69093 2.69093 0 0-2.69093-2.69093 0Z" stroke="#FFFFFF" stroke-width="0.713542" fill="#FF9900" transform="matrix(1 0 0 1.00438 1088.25 231.066)"/><path d="M0 2.69093 2.69093 0 0-2.69093-2.69093 0Z" stroke="#FFFFFF" stroke-width="0.713542" fill="#FF9900" transform="matrix(1 0 0 1.00438 1121.03 233.638)"/><path d="M0 2.69093 2.69093 0 0-2.69093-2.69093 0Z" stroke="#FFFFFF" stroke-width="0.713542" fill="#FF9900" transform="matrix(1 0 0 1.00438 1153.82 236.116)"/><path d="M0 2.69093 2.69093 0 0-2.69093-2.69093 0Z" stroke="#FFFFFF" stroke-width="0.713542" fill="#FF9900" transform="matrix(1 0 0 1.00438 1186.6 244.886)"/><path d="M0 2.69093 2.69093 0 0-2.69093-2.69093 0Z" stroke="#FFFFFF" stroke-width="0.713542" fill="#FF9900" transform="matrix(1 0 0 1.00438 1219.39 252.679)"/></g><g><path d="M27.8911 93.463 60.6763 28.4744 93.4616 19.8281 126.247 18.0982 159.032 17.35 191.817 17.6906 224.602 19.0738 257.388 19.8739" stroke="#9933CC" stroke-width="1.18924" stroke-linecap="square" stroke-linejoin="round" fill="none" transform="matrix(1 0 0 1.00438 962 161)"/></g><g><path d="M0 1.90278 1.90278-1.90278-1.90278-1.90278Z" stroke="#FFFFFF" stroke-width="0.713542" fill="#9933CC" transform="matrix(1 0 0 1.00438 989.891 254.872)"/><path d="M0 1.90278 1.90278-1.90278-1.90278-1.90278Z" stroke="#FFFFFF" stroke-width="0.713542" fill="#9933CC" transform="matrix(1 0 0 1.00438 1022.68 189.599)"/><path d="M0 1.90278 1.90278-1.90278-1.90278-1.90278Z" stroke="#FFFFFF" stroke-width="0.713542" fill="#9933CC" transform="matrix(1 0 0 1.00438 1055.46 180.915)"/><path d="M0 1.90278 1.90278-1.90278-1.90278-1.90278Z" stroke="#FFFFFF" stroke-width="0.713542" fill="#9933CC" transform="matrix(1 0 0 1.00438 1088.25 179.177)"/><path d="M0 1.90278 1.90278-1.90278-1.90278-1.90278Z" stroke="#FFFFFF" stroke-width="0.713542" fill="#9933CC" transform="matrix(1 0 0 1.00438 1121.03 178.426)"/><path d="M0 1.90278 1.90278-1.90278-1.90278-1.90278Z" stroke="#FFFFFF" stroke-width="0.713542" fill="#9933CC" transform="matrix(1 0 0 1.00438 1153.82 178.768)"/><path d="M0 1.90278 1.90278-1.90278-1.90278-1.90278Z" stroke="#FFFFFF" stroke-width="0.713542" fill="#9933CC" transform="matrix(1 0 0 1.00438 1186.6 180.157)"/><path d="M0 1.90278 1.90278-1.90278-1.90278-1.90278Z" stroke="#FFFFFF" stroke-width="0.713542" fill="#9933CC" transform="matrix(1 0 0 1.00438 1219.39 180.961)"/></g><g><path d="M27.8911 13.1967 257.388 13.1967" stroke="#0099CC" stroke-width="1.18924" stroke-linejoin="round" stroke-dasharray="4.40017 1.90278" stroke-opacity="0.8" fill="none" transform="matrix(1 0 0 1.00438 962 161)"/></g><g><path d="M27.8911 11.9905 257.388 11.9905" stroke="#FF3399" stroke-width="1.18924" stroke-linejoin="round" stroke-dasharray="4.40017 1.90278" stroke-opacity="0.8" fill="none" transform="matrix(1 0 0 1.00438 962 161)"/></g><g><path d="M27.8911 12.3535 257.388 12.3535" stroke="#CCCC00" stroke-width="1.18924" stroke-linejoin="round" stroke-dasharray="4.40017 1.90278" stroke-opacity="0.8" fill="none" transform="matrix(1 0 0 1.00438 962 161)"/></g><path d="M16.4162 155.904 16.4162 5.1375" stroke="#000000" stroke-width="0.713542" stroke-linecap="square" fill="none" transform="matrix(1 0 0 1.00438 962 161)"/><path d="M268.863 155.904 268.863 5.1375" stroke="#000000" stroke-width="0.713542" stroke-linecap="square" fill="none" transform="matrix(1 0 0 1.00438 962 161)"/><path d="M16.4162 155.904 268.863 155.904" stroke="#000000" stroke-width="0.713542" stroke-linecap="square" fill="none" transform="matrix(1 0 0 1.00438 962 161)"/><path d="M16.4162 5.1375 268.863 5.1375" stroke="#000000" stroke-width="0.713542" stroke-linecap="square" fill="none" transform="matrix(1 0 0 1.00438 962 161)"/></g></g></g><g><g><g><g><path d="M27.8911 155.904 27.8911 5.1375" stroke="#808080" stroke-width="0.380556" stroke-linejoin="round" stroke-dasharray="0.380556 0.627917" stroke-opacity="0.4" fill="none" transform="matrix(1 0 0 1.00438 373 161)"/></g><path d="M0 0 0 2.37847" stroke="#000000" stroke-width="0.713542" stroke-linejoin="round" fill="none" transform="matrix(1 0 0 1.00438 400.891 317.587)"/><text font-family="Verdana,Verdana_MSFontService,sans-serif" font-weight="400" font-size="12" transform="matrix(0.475694 0 0 0.477778 399.077 326)">1</text><g><path d="M60.6763 155.904 60.6763 5.1375" stroke="#808080" stroke-width="0.380556" stroke-linejoin="round" stroke-dasharray="0.380556 0.627917" stroke-opacity="0.4" fill="none" transform="matrix(1 0 0 1.00438 373 161)"/></g><path d="M0 0 0 2.37847" stroke="#000000" stroke-width="0.713542" stroke-linejoin="round" fill="none" transform="matrix(1 0 0 1.00438 433.676 317.587)"/><text font-family="Verdana,Verdana_MSFontService,sans-serif" font-weight="400" font-size="12" transform="matrix(0.475694 0 0 0.477778 431.862 326)">2</text><g><path d="M93.4616 155.904 93.4616 5.1375" stroke="#808080" stroke-width="0.380556" stroke-linejoin="round" stroke-dasharray="0.380556 0.627917" stroke-opacity="0.4" fill="none" transform="matrix(1 0 0 1.00438 373 161)"/></g><path d="M0 0 0 2.37847" stroke="#000000" stroke-width="0.713542" stroke-linejoin="round" fill="none" transform="matrix(1 0 0 1.00438 466.462 317.587)"/><text font-family="Verdana,Verdana_MSFontService,sans-serif" font-weight="400" font-size="12" transform="matrix(0.475694 0 0 0.477778 464.647 326)">3</text><g><path d="M126.247 155.904 126.247 5.1375" stroke="#808080" stroke-width="0.380556" stroke-linejoin="round" stroke-dasharray="0.380556 0.627917" stroke-opacity="0.4" fill="none" transform="matrix(1 0 0 1.00438 373 161)"/></g><path d="M0 0 0 2.37847" stroke="#000000" stroke-width="0.713542" stroke-linejoin="round" fill="none" transform="matrix(1 0 0 1.00438 499.247 317.587)"/><text font-family="Verdana,Verdana_MSFontService,sans-serif" font-weight="400" font-size="12" transform="matrix(0.475694 0 0 0.477778 497.432 326)">4</text><g><path d="M159.032 155.904 159.032 5.1375" stroke="#808080" stroke-width="0.380556" stroke-linejoin="round" stroke-dasharray="0.380556 0.627917" stroke-opacity="0.4" fill="none" transform="matrix(1 0 0 1.00438 373 161)"/></g><path d="M0 0 0 2.37847" stroke="#000000" stroke-width="0.713542" stroke-linejoin="round" fill="none" transform="matrix(1 0 0 1.00438 532.032 317.587)"/><text font-family="Verdana,Verdana_MSFontService,sans-serif" font-weight="400" font-size="12" transform="matrix(0.475694 0 0 0.477778 530.217 326)">5</text><g><path d="M191.817 155.904 191.817 5.1375" stroke="#808080" stroke-width="0.380556" stroke-linejoin="round" stroke-dasharray="0.380556 0.627917" stroke-opacity="0.4" fill="none" transform="matrix(1 0 0 1.00438 373 161)"/></g><path d="M0 0 0 2.37847" stroke="#000000" stroke-width="0.713542" stroke-linejoin="round" fill="none" transform="matrix(1 0 0 1.00438 564.817 317.587)"/><text font-family="Verdana,Verdana_MSFontService,sans-serif" font-weight="400" font-size="12" transform="matrix(0.475694 0 0 0.477778 563.003 326)">6</text><g><path d="M224.602 155.904 224.602 5.1375" stroke="#808080" stroke-width="0.380556" stroke-linejoin="round" stroke-dasharray="0.380556 0.627917" stroke-opacity="0.4" fill="none" transform="matrix(1 0 0 1.00438 373 161)"/></g><path d="M0 0 0 2.37847" stroke="#000000" stroke-width="0.713542" stroke-linejoin="round" fill="none" transform="matrix(1 0 0 1.00438 597.602 317.587)"/><text font-family="Verdana,Verdana_MSFontService,sans-serif" font-weight="400" font-size="12" transform="matrix(0.475694 0 0 0.477778 595.788 326)">7</text><g><path d="M257.388 155.904 257.388 5.1375" stroke="#808080" stroke-width="0.380556" stroke-linejoin="round" stroke-dasharray="0.380556 0.627917" stroke-opacity="0.4" fill="none" transform="matrix(1 0 0 1.00438 373 161)"/></g><path d="M0 0 0 2.37847" stroke="#000000" stroke-width="0.713542" stroke-linejoin="round" fill="none" transform="matrix(1 0 0 1.00438 630.388 317.587)"/><text font-family="Verdana,Verdana_MSFontService,sans-serif" font-weight="400" font-size="12" transform="matrix(0.475694 0 0 0.477778 628.573 326)">8</text><g><path d="M16.4162 151.219 268.863 151.219" stroke="#808080" stroke-width="0.380556" stroke-linejoin="round" stroke-dasharray="0.380556 0.627917" stroke-opacity="0.4" fill="none" transform="matrix(1 0 0 1.00438 373 161)"/></g><path d="M0 0-2.37847 0" stroke="#000000" stroke-width="0.713542" stroke-linejoin="round" fill="none" transform="matrix(1 0 0 1.00438 389.416 312.881)"/><text font-family="Verdana,Verdana_MSFontService,sans-serif" font-weight="400" font-size="12" transform="matrix(0.475694 0 0 0.477778 381.744 315)">0</text><g><path d="M16.4162 123.247 268.863 123.247" stroke="#808080" stroke-width="0.380556" stroke-linejoin="round" stroke-dasharray="0.380556 0.627917" stroke-opacity="0.4" fill="none" transform="matrix(1 0 0 1.00438 373 161)"/></g><path d="M0 0-2.37847 0" stroke="#000000" stroke-width="0.713542" stroke-linejoin="round" fill="none" transform="matrix(1 0 0 1.00438 389.416 284.787)"/><text font-family="Verdana,Verdana_MSFontService,sans-serif" font-weight="400" font-size="12" transform="matrix(0.475694 0 0 0.477778 378.115 287)">10</text><g><path d="M16.4162 95.2759 268.863 95.2759" stroke="#808080" stroke-width="0.380556" stroke-linejoin="round" stroke-dasharray="0.380556 0.627917" stroke-opacity="0.4" fill="none" transform="matrix(1 0 0 1.00438 373 161)"/></g><path d="M0 0-2.37847 0" stroke="#000000" stroke-width="0.713542" stroke-linejoin="round" fill="none" transform="matrix(1 0 0 1.00438 389.416 256.693)"/><text font-family="Verdana,Verdana_MSFontService,sans-serif" font-weight="400" font-size="12" transform="matrix(0.475694 0 0 0.477778 378.115 259)">20</text><g><path d="M16.4162 67.3041 268.863 67.3041" stroke="#808080" stroke-width="0.380556" stroke-linejoin="round" stroke-dasharray="0.380556 0.627917" stroke-opacity="0.4" fill="none" transform="matrix(1 0 0 1.00438 373 161)"/></g><path d="M0 0-2.37847 0" stroke="#000000" stroke-width="0.713542" stroke-linejoin="round" fill="none" transform="matrix(1 0 0 1.00438 389.416 228.599)"/><text font-family="Verdana,Verdana_MSFontService,sans-serif" font-weight="400" font-size="12" transform="matrix(0.475694 0 0 0.477778 378.115 231)">30</text><g><path d="M16.4162 39.3327 268.863 39.3327" stroke="#808080" stroke-width="0.380556" stroke-linejoin="round" stroke-dasharray="0.380556 0.627917" stroke-opacity="0.4" fill="none" transform="matrix(1 0 0 1.00438 373 161)"/></g><path d="M0 0-2.37847 0" stroke="#000000" stroke-width="0.713542" stroke-linejoin="round" fill="none" transform="matrix(1 0 0 1.00438 389.416 200.505)"/><text font-family="Verdana,Verdana_MSFontService,sans-serif" font-weight="400" font-size="12" transform="matrix(0.475694 0 0 0.477778 378.115 203)">40</text><g><path d="M16.4162 11.3612 268.863 11.3612" stroke="#808080" stroke-width="0.380556" stroke-linejoin="round" stroke-dasharray="0.380556 0.627917" stroke-opacity="0.4" fill="none" transform="matrix(1 0 0 1.00438 373 161)"/></g><path d="M0 0-2.37847 0" stroke="#000000" stroke-width="0.713542" stroke-linejoin="round" fill="none" transform="matrix(1 0 0 1.00438 389.416 172.411)"/><text font-family="Verdana,Verdana_MSFontService,sans-serif" font-weight="400" font-size="12" transform="matrix(0.475694 0 0 0.477778 378.115 175)">50</text><g><path d="M27.8911 13.459 257.388 13.459" stroke="#0066CC" stroke-width="1.18924" stroke-linejoin="round" stroke-dasharray="4.40017 1.90278" stroke-opacity="0.8" fill="none" transform="matrix(1 0 0 1.00438 373 161)"/></g><g><path d="M27.8911 148.072 60.6763 96.7444 93.4616 65.6259 126.247 23.1092 159.032 36.8153 191.817 38.6334 224.602 44.5075 257.388 48.5632" stroke="#FF3333" stroke-width="1.18924" stroke-linecap="square" stroke-linejoin="round" fill="none" transform="matrix(1 0 0 1.00438 373 161)"/></g><g><path d="M0 1.90278C0.504621 1.90278 0.988645 1.70229 1.34547 1.34547 1.70229 0.988645 1.90278 0.504621 1.90278 0 1.90278-0.504621 1.70229-0.988645 1.34547-1.34547 0.988645-1.70229 0.504621-1.90278 0-1.90278-0.504621-1.90278-0.988645-1.70229-1.34547-1.34547-1.70229-0.988645-1.90278-0.504621-1.90278 0-1.90278 0.504621-1.70229 0.988645-1.34547 1.34547-0.988645 1.70229-0.504621 1.90278 0 1.90278Z" stroke="#FFFFFF" stroke-width="0.713542" stroke-linejoin="round" fill="#FF3333" transform="matrix(1 0 0 1.00438 400.891 309.721)"/><path d="M0 1.90278C0.504621 1.90278 0.988645 1.70229 1.34547 1.34547 1.70229 0.988645 1.90278 0.504621 1.90278 0 1.90278-0.504621 1.70229-0.988645 1.34547-1.34547 0.988645-1.70229 0.504621-1.90278 0-1.90278-0.504621-1.90278-0.988645-1.70229-1.34547-1.34547-1.70229-0.988645-1.90278-0.504621-1.90278 0-1.90278 0.504621-1.70229 0.988645-1.34547 1.34547-0.988645 1.70229-0.504621 1.90278 0 1.90278Z" stroke="#FFFFFF" stroke-width="0.713542" stroke-linejoin="round" fill="#FF3333" transform="matrix(1 0 0 1.00438 433.676 258.168)"/><path d="M0 1.90278C0.504621 1.90278 0.988645 1.70229 1.34547 1.34547 1.70229 0.988645 1.90278 0.504621 1.90278 0 1.90278-0.504621 1.70229-0.988645 1.34547-1.34547 0.988645-1.70229 0.504621-1.90278 0-1.90278-0.504621-1.90278-0.988645-1.70229-1.34547-1.34547-1.70229-0.988645-1.90278-0.504621-1.90278 0-1.90278 0.504621-1.70229 0.988645-1.34547 1.34547-0.988645 1.70229-0.504621 1.90278 0 1.90278Z" stroke="#FFFFFF" stroke-width="0.713542" stroke-linejoin="round" fill="#FF3333" transform="matrix(1 0 0 1.00438 466.462 226.913)"/><path d="M0 1.90278C0.504621 1.90278 0.988645 1.70229 1.34547 1.34547 1.70229 0.988645 1.90278 0.504621 1.90278 0 1.90278-0.504621 1.70229-0.988645 1.34547-1.34547 0.988645-1.70229 0.504621-1.90278 0-1.90278-0.504621-1.90278-0.988645-1.70229-1.34547-1.34547-1.70229-0.988645-1.90278-0.504621-1.90278 0-1.90278 0.504621-1.70229 0.988645-1.34547 1.34547-0.988645 1.70229-0.504621 1.90278 0 1.90278Z" stroke="#FFFFFF" stroke-width="0.713542" stroke-linejoin="round" fill="#FF3333" transform="matrix(1 0 0 1.00438 499.247 184.21)"/><path d="M0 1.90278C0.504621 1.90278 0.988645 1.70229 1.34547 1.34547 1.70229 0.988645 1.90278 0.504621 1.90278 0 1.90278-0.504621 1.70229-0.988645 1.34547-1.34547 0.988645-1.70229 0.504621-1.90278 0-1.90278-0.504621-1.90278-0.988645-1.70229-1.34547-1.34547-1.70229-0.988645-1.90278-0.504621-1.90278 0-1.90278 0.504621-1.70229 0.988645-1.34547 1.34547-0.988645 1.70229-0.504621 1.90278 0 1.90278Z" stroke="#FFFFFF" stroke-width="0.713542" stroke-linejoin="round" fill="#FF3333" transform="matrix(1 0 0 1.00438 532.032 197.977)"/><path d="M0 1.90278C0.504621 1.90278 0.988645 1.70229 1.34547 1.34547 1.70229 0.988645 1.90278 0.504621 1.90278 0 1.90278-0.504621 1.70229-0.988645 1.34547-1.34547 0.988645-1.70229 0.504621-1.90278 0-1.90278-0.504621-1.90278-0.988645-1.70229-1.34547-1.34547-1.70229-0.988645-1.90278-0.504621-1.90278 0-1.90278 0.504621-1.70229 0.988645-1.34547 1.34547-0.988645 1.70229-0.504621 1.90278 0 1.90278Z" stroke="#FFFFFF" stroke-width="0.713542" stroke-linejoin="round" fill="#FF3333" transform="matrix(1 0 0 1.00438 564.817 199.803)"/><path d="M0 1.90278C0.504621 1.90278 0.988645 1.70229 1.34547 1.34547 1.70229 0.988645 1.90278 0.504621 1.90278 0 1.90278-0.504621 1.70229-0.988645 1.34547-1.34547 0.988645-1.70229 0.504621-1.90278 0-1.90278-0.504621-1.90278-0.988645-1.70229-1.34547-1.34547-1.70229-0.988645-1.90278-0.504621-1.90278 0-1.90278 0.504621-1.70229 0.988645-1.34547 1.34547-0.988645 1.70229-0.504621 1.90278 0 1.90278Z" stroke="#FFFFFF" stroke-width="0.713542" stroke-linejoin="round" fill="#FF3333" transform="matrix(1 0 0 1.00438 597.602 205.702)"/><path d="M0 1.90278C0.504621 1.90278 0.988645 1.70229 1.34547 1.34547 1.70229 0.988645 1.90278 0.504621 1.90278 0 1.90278-0.504621 1.70229-0.988645 1.34547-1.34547 0.988645-1.70229 0.504621-1.90278 0-1.90278-0.504621-1.90278-0.988645-1.70229-1.34547-1.34547-1.70229-0.988645-1.90278-0.504621-1.90278 0-1.90278 0.504621-1.70229 0.988645-1.34547 1.34547-0.988645 1.70229-0.504621 1.90278 0 1.90278Z" stroke="#FFFFFF" stroke-width="0.713542" stroke-linejoin="round" fill="#FF3333" transform="matrix(1 0 0 1.00438 630.388 209.776)"/></g><g><path d="M27.8911 136.044 60.6763 50.7309 93.4616 28.214 126.247 24.2281 159.032 34.088 191.817 37.7943 224.602 46.6752 257.388 51.0805" stroke="#00994D" stroke-width="1.18924" stroke-linecap="square" stroke-linejoin="round" fill="none" transform="matrix(1 0 0 1.00438 373 161)"/></g><g><path d="M-1.90278 1.90278 1.90278 1.90278 1.90278-1.90278-1.90278-1.90278Z" stroke="#FFFFFF" stroke-width="0.713542" fill="#00994D" transform="matrix(1 0 0 1.00438 400.891 297.64)"/><path d="M-1.90278 1.90278 1.90278 1.90278 1.90278-1.90278-1.90278-1.90278Z" stroke="#FFFFFF" stroke-width="0.713542" fill="#00994D" transform="matrix(1 0 0 1.00438 433.676 211.953)"/><path d="M-1.90278 1.90278 1.90278 1.90278 1.90278-1.90278-1.90278-1.90278Z" stroke="#FFFFFF" stroke-width="0.713542" fill="#00994D" transform="matrix(1 0 0 1.00438 466.462 189.338)"/><path d="M-1.90278 1.90278 1.90278 1.90278 1.90278-1.90278-1.90278-1.90278Z" stroke="#FFFFFF" stroke-width="0.713542" fill="#00994D" transform="matrix(1 0 0 1.00438 499.247 185.334)"/><path d="M-1.90278 1.90278 1.90278 1.90278 1.90278-1.90278-1.90278-1.90278Z" stroke="#FFFFFF" stroke-width="0.713542" fill="#00994D" transform="matrix(1 0 0 1.00438 532.032 195.237)"/><path d="M-1.90278 1.90278 1.90278 1.90278 1.90278-1.90278-1.90278-1.90278Z" stroke="#FFFFFF" stroke-width="0.713542" fill="#00994D" transform="matrix(1 0 0 1.00438 564.817 198.96)"/><path d="M-1.90278 1.90278 1.90278 1.90278 1.90278-1.90278-1.90278-1.90278Z" stroke="#FFFFFF" stroke-width="0.713542" fill="#00994D" transform="matrix(1 0 0 1.00438 597.602 207.88)"/><path d="M-1.90278 1.90278 1.90278 1.90278 1.90278-1.90278-1.90278-1.90278Z" stroke="#FFFFFF" stroke-width="0.713542" fill="#00994D" transform="matrix(1 0 0 1.00438 630.388 212.304)"/></g><g><path d="M27.8911 149.051 60.6763 131.709 93.4616 95.4157 126.247 82.8284 159.032 85.136 191.817 87.5834 224.602 95.9052 257.388 102.758" stroke="#FF9900" stroke-width="1.18924" stroke-linecap="square" stroke-linejoin="round" fill="none" transform="matrix(1 0 0 1.00438 373 161)"/></g><g><path d="M0 2.69093 2.69093 0 0-2.69093-2.69093 0Z" stroke="#FFFFFF" stroke-width="0.713542" fill="#FF9900" transform="matrix(1 0 0 1.00438 400.891 310.704)"/><path d="M0 2.69093 2.69093 0 0-2.69093-2.69093 0Z" stroke="#FFFFFF" stroke-width="0.713542" fill="#FF9900" transform="matrix(1 0 0 1.00438 433.676 293.286)"/><path d="M0 2.69093 2.69093 0 0-2.69093-2.69093 0Z" stroke="#FFFFFF" stroke-width="0.713542" fill="#FF9900" transform="matrix(1 0 0 1.00438 466.462 256.834)"/><path d="M0 2.69093 2.69093 0 0-2.69093-2.69093 0Z" stroke="#FFFFFF" stroke-width="0.713542" fill="#FF9900" transform="matrix(1 0 0 1.00438 499.247 244.191)"/><path d="M0 2.69093 2.69093 0 0-2.69093-2.69093 0Z" stroke="#FFFFFF" stroke-width="0.713542" fill="#FF9900" transform="matrix(1 0 0 1.00438 532.032 246.509)"/><path d="M0 2.69093 2.69093 0 0-2.69093-2.69093 0Z" stroke="#FFFFFF" stroke-width="0.713542" fill="#FF9900" transform="matrix(1 0 0 1.00438 564.817 248.967)"/><path d="M0 2.69093 2.69093 0 0-2.69093-2.69093 0Z" stroke="#FFFFFF" stroke-width="0.713542" fill="#FF9900" transform="matrix(1 0 0 1.00438 597.602 257.325)"/><path d="M0 2.69093 2.69093 0 0-2.69093-2.69093 0Z" stroke="#FFFFFF" stroke-width="0.713542" fill="#FF9900" transform="matrix(1 0 0 1.00438 630.388 264.208)"/></g><g><path d="M27.8911 102.898 60.6763 33.2489 93.4616 23.1092 126.247 20.6617 159.032 19.6827 191.817 20.0324 224.602 22.4798 257.388 22.8994" stroke="#9933CC" stroke-width="1.18924" stroke-linecap="square" stroke-linejoin="round" fill="none" transform="matrix(1 0 0 1.00438 373 161)"/></g><g><path d="M0 1.90278 1.90278-1.90278-1.90278-1.90278Z" stroke="#FFFFFF" stroke-width="0.713542" fill="#9933CC" transform="matrix(1 0 0 1.00438 400.891 264.349)"/><path d="M0 1.90278 1.90278-1.90278-1.90278-1.90278Z" stroke="#FFFFFF" stroke-width="0.713542" fill="#9933CC" transform="matrix(1 0 0 1.00438 433.676 194.395)"/><path d="M0 1.90278 1.90278-1.90278-1.90278-1.90278Z" stroke="#FFFFFF" stroke-width="0.713542" fill="#9933CC" transform="matrix(1 0 0 1.00438 466.462 184.21)"/><path d="M0 1.90278 1.90278-1.90278-1.90278-1.90278Z" stroke="#FFFFFF" stroke-width="0.713542" fill="#9933CC" transform="matrix(1 0 0 1.00438 499.247 181.752)"/><path d="M0 1.90278 1.90278-1.90278-1.90278-1.90278Z" stroke="#FFFFFF" stroke-width="0.713542" fill="#9933CC" transform="matrix(1 0 0 1.00438 532.032 180.769)"/><path d="M0 1.90278 1.90278-1.90278-1.90278-1.90278Z" stroke="#FFFFFF" stroke-width="0.713542" fill="#9933CC" transform="matrix(1 0 0 1.00438 564.817 181.12)"/><path d="M0 1.90278 1.90278-1.90278-1.90278-1.90278Z" stroke="#FFFFFF" stroke-width="0.713542" fill="#9933CC" transform="matrix(1 0 0 1.00438 597.602 183.578)"/><path d="M0 1.90278 1.90278-1.90278-1.90278-1.90278Z" stroke="#FFFFFF" stroke-width="0.713542" fill="#9933CC" transform="matrix(1 0 0 1.00438 630.388 184)"/></g><g><path d="M27.8911 13.2492 257.388 13.2492" stroke="#0099CC" stroke-width="1.18924" stroke-linejoin="round" stroke-dasharray="4.40017 1.90278" stroke-opacity="0.8" fill="none" transform="matrix(1 0 0 1.00438 373 161)"/></g><g><path d="M27.8911 11.9905 257.388 11.9905" stroke="#FF3399" stroke-width="1.18924" stroke-linejoin="round" stroke-dasharray="4.40017 1.90278" stroke-opacity="0.8" fill="none" transform="matrix(1 0 0 1.00438 373 161)"/></g><g><path d="M27.8911 14.0185 257.388 14.0185" stroke="#CCCC00" stroke-width="1.18924" stroke-linejoin="round" stroke-dasharray="4.40017 1.90278" stroke-opacity="0.8" fill="none" transform="matrix(1 0 0 1.00438 373 161)"/></g><path d="M16.4162 155.904 16.4162 5.1375" stroke="#000000" stroke-width="0.713542" stroke-linecap="square" fill="none" transform="matrix(1 0 0 1.00438 373 161)"/><path d="M268.863 155.904 268.863 5.1375" stroke="#000000" stroke-width="0.713542" stroke-linecap="square" fill="none" transform="matrix(1 0 0 1.00438 373 161)"/><path d="M16.4162 155.904 268.863 155.904" stroke="#000000" stroke-width="0.713542" stroke-linecap="square" fill="none" transform="matrix(1 0 0 1.00438 373 161)"/><path d="M16.4162 5.1375 268.863 5.1375" stroke="#000000" stroke-width="0.713542" stroke-linecap="square" fill="none" transform="matrix(1 0 0 1.00438 373 161)"/></g></g></g><text font-family="Sans Serif Collection,Sans Serif Collection_MSFontService,sans-serif" font-weight="400" font-size="16" transform="translate(184.373 348)">Looped Steps</text><text font-family="Sans Serif Collection,Sans Serif Collection_MSFontService,sans-serif" font-weight="400" font-size="16" transform="translate(458.773 348)">Looped Steps</text><text font-family="Sans Serif Collection,Sans Serif Collection_MSFontService,sans-serif" font-weight="400" font-size="16" transform="translate(769.344 348)">Looped Steps</text><text font-family="Sans Serif Collection,Sans Serif Collection_MSFontService,sans-serif" font-weight="400" font-size="16" transform="translate(1047.79 348)">Looped Steps</text><text font-family="Sans Serif Collection,Sans Serif Collection_MSFontService,sans-serif" font-weight="400" font-size="16" transform="matrix(-1.83697e-16 -1 1 -1.83697e-16 96.8111 279)">F1 Score</text><text font-family="Sans Serif Collection,Sans Serif Collection_MSFontService,sans-serif" font-weight="400" font-size="16" transform="matrix(-1.83697e-16 -1 1 -1.83697e-16 677.827 283)">Accuracy</text><text font-family="Sans Serif Collection,Sans Serif Collection_MSFontService,sans-serif" font-weight="400" font-size="16" transform="translate(212.31 161)">Safety</text><text font-family="Sans Serif Collection,Sans Serif Collection_MSFontService,sans-serif" font-weight="400" font-size="16" transform="translate(486.71 161)">Math</text><text font-family="Sans Serif Collection,Sans Serif Collection_MSFontService,sans-serif" font-weight="400" font-size="16" transform="translate(794.341 160)">Safety</text><text font-family="Sans Serif Collection,Sans Serif Collection_MSFontService,sans-serif" font-weight="400" font-size="16" transform="translate(1068.74 160)">Math</text><g><g><g><path d="M199.648 382.157 215.544 382.157 231.44 382.157" stroke="#FF3333" stroke-width="3.31166" stroke-linecap="square" stroke-linejoin="round" fill="none"/><path d="M215.544 387.455C216.949 387.455 218.297 386.897 219.291 385.903 220.284 384.91 220.843 383.562 220.843 382.157 220.843 380.751 220.284 379.404 219.291 378.41 218.297 377.416 216.949 376.858 215.544 376.858 214.139 376.858 212.791 377.416 211.797 378.41 210.804 379.404 210.245 380.751 210.245 382.157 210.245 383.562 210.804 384.91 211.797 385.903 212.791 386.897 214.139 387.455 215.544 387.455Z" stroke="#FFFFFF" stroke-width="1.98699" stroke-linejoin="round" fill="#FF3333"/><text font-family="Verdana,Verdana_MSFontService,sans-serif" font-weight="400" font-size="12" transform="matrix(1.32466 0 0 1.32466 244.157 388)">Ouro</text><text font-family="Verdana,Verdana_MSFontService,sans-serif" font-weight="400" font-size="12" transform="matrix(1.32466 0 0 1.32466 283.159 388)">-</text><text font-family="Verdana,Verdana_MSFontService,sans-serif" font-weight="400" font-size="12" transform="matrix(1.32466 0 0 1.32466 290.378 388)">1</text><text font-family="Verdana,Verdana_MSFontService,sans-serif" font-weight="400" font-size="12" transform="matrix(1.32466 0 0 1.32466 300.483 388)">.</text><text font-family="Verdana,Verdana_MSFontService,sans-serif" font-weight="400" font-size="12" transform="matrix(1.32466 0 0 1.32466 306.266 388)">4</text><text font-family="Verdana,Verdana_MSFontService,sans-serif" font-weight="400" font-size="12" transform="matrix(1.32466 0 0 1.32466 316.371 388)">B</text><path d="M199.648 405.489 215.544 405.489 231.44 405.489" stroke="#0066CC" stroke-width="3.31166" stroke-linejoin="round" stroke-dasharray="12.2531 5.29865" fill="none"/><text font-family="Verdana,Verdana_MSFontService,sans-serif" font-weight="400" font-size="12" transform="matrix(1.32466 0 0 1.32466 244.157 411)">Llama</text><text font-family="Verdana,Verdana_MSFontService,sans-serif" font-weight="400" font-size="12" transform="matrix(1.32466 0 0 1.32466 291.922 411)">-</text><text font-family="Verdana,Verdana_MSFontService,sans-serif" font-weight="400" font-size="12" transform="matrix(1.32466 0 0 1.32466 299.141 411)">3</text><text font-family="Verdana,Verdana_MSFontService,sans-serif" font-weight="400" font-size="12" transform="matrix(1.32466 0 0 1.32466 309.246 411)">.</text><text font-family="Verdana,Verdana_MSFontService,sans-serif" font-weight="400" font-size="12" transform="matrix(1.32466 0 0 1.32466 315.029 411)">1</text><text font-family="Verdana,Verdana_MSFontService,sans-serif" font-weight="400" font-size="12" transform="matrix(1.32466 0 0 1.32466 325.134 411)">-</text><text font-family="Verdana,Verdana_MSFontService,sans-serif" font-weight="400" font-size="12" transform="matrix(1.32466 0 0 1.32466 332.353 411)">8</text><text font-family="Verdana,Verdana_MSFontService,sans-serif" font-weight="400" font-size="12" transform="matrix(1.32466 0 0 1.32466 342.459 411)">B</text><text font-family="Verdana,Verdana_MSFontService,sans-serif" font-weight="400" font-size="12" transform="matrix(1.32466 0 0 1.32466 353.356 411)">-</text><text font-family="Verdana,Verdana_MSFontService,sans-serif" font-weight="400" font-size="12" transform="matrix(1.32466 0 0 1.32466 360.574 411)">Instruct</text><path d="M448.549 382.157 464.445 382.157 480.341 382.157" stroke="#00994D" stroke-width="3.31166" stroke-linecap="square" stroke-linejoin="round" fill="none"/><path d="M459.147 387.455 469.744 387.455 469.744 376.858 459.147 376.858Z" stroke="#FFFFFF" stroke-width="1.98699" fill="#00994D"/><text font-family="Verdana,Verdana_MSFontService,sans-serif" font-weight="400" font-size="12" transform="matrix(1.32466 0 0 1.32466 493.058 388)">Ouro</text><text font-family="Verdana,Verdana_MSFontService,sans-serif" font-weight="400" font-size="12" transform="matrix(1.32466 0 0 1.32466 532.06 388)">-</text><text font-family="Verdana,Verdana_MSFontService,sans-serif" font-weight="400" font-size="12" transform="matrix(1.32466 0 0 1.32466 539.279 388)">1</text><text font-family="Verdana,Verdana_MSFontService,sans-serif" font-weight="400" font-size="12" transform="matrix(1.32466 0 0 1.32466 549.385 388)">.</text><text font-family="Verdana,Verdana_MSFontService,sans-serif" font-weight="400" font-size="12" transform="matrix(1.32466 0 0 1.32466 555.167 388)">4</text><text font-family="Verdana,Verdana_MSFontService,sans-serif" font-weight="400" font-size="12" transform="matrix(1.32466 0 0 1.32466 565.273 388)">B</text><text font-family="Verdana,Verdana_MSFontService,sans-serif" font-weight="400" font-size="12" transform="matrix(1.32466 0 0 1.32466 576.17 388)">-</text><text font-family="Verdana,Verdana_MSFontService,sans-serif" font-weight="400" font-size="12" transform="matrix(1.32466 0 0 1.32466 583.388 388)">Thinking</text><path d="M448.549 405.489 464.445 405.489 480.341 405.489" stroke="#0099CC" stroke-width="3.31166" stroke-linejoin="round" stroke-dasharray="12.2531 5.29865" fill="none"/><text font-family="Verdana,Verdana_MSFontService,sans-serif" font-weight="400" font-size="12" transform="matrix(1.32466 0 0 1.32466 493.058 411)">Qwen</text><text font-family="Verdana,Verdana_MSFontService,sans-serif" font-weight="400" font-size="12" transform="matrix(1.32466 0 0 1.32466 538.107 411)">3</text><text font-family="Verdana,Verdana_MSFontService,sans-serif" font-weight="400" font-size="12" transform="matrix(1.32466 0 0 1.32466 548.212 411)">-</text><text font-family="Verdana,Verdana_MSFontService,sans-serif" font-weight="400" font-size="12" transform="matrix(1.32466 0 0 1.32466 555.431 411)">30</text><text font-family="Verdana,Verdana_MSFontService,sans-serif" font-weight="400" font-size="12" transform="matrix(1.32466 0 0 1.32466 575.642 411)">B</text><text font-family="Verdana,Verdana_MSFontService,sans-serif" font-weight="400" font-size="12" transform="matrix(1.32466 0 0 1.32466 586.54 411)">-</text><text font-family="Verdana,Verdana_MSFontService,sans-serif" font-weight="400" font-size="12" transform="matrix(1.32466 0 0 1.32466 593.758 411)">A</text><text font-family="Verdana,Verdana_MSFontService,sans-serif" font-weight="400" font-size="12" transform="matrix(1.32466 0 0 1.32466 604.625 411)">3</text><text font-family="Verdana,Verdana_MSFontService,sans-serif" font-weight="400" font-size="12" transform="matrix(1.32466 0 0 1.32466 614.73 411)">B</text><text font-family="Verdana,Verdana_MSFontService,sans-serif" font-weight="400" font-size="12" transform="matrix(1.32466 0 0 1.32466 625.628 411)">-</text><text font-family="Verdana,Verdana_MSFontService,sans-serif" font-weight="400" font-size="12" transform="matrix(1.32466 0 0 1.32466 632.846 411)">Instruct</text><text font-family="Verdana,Verdana_MSFontService,sans-serif" font-weight="400" font-size="12" transform="matrix(1.32466 0 0 1.32466 695.529 411)">-</text><text font-family="Verdana,Verdana_MSFontService,sans-serif" font-weight="400" font-size="12" transform="matrix(1.32466 0 0 1.32466 702.748 411)">2507</text><path d="M767.252 382.157 783.148 382.157 799.044 382.157" stroke="#FF9900" stroke-width="3.31166" stroke-linecap="square" stroke-linejoin="round" fill="none"/><path d="M783.148 389.65 790.642 382.157 783.148 374.663 775.655 382.157Z" stroke="#FFFFFF" stroke-width="1.98699" fill="#FF9900"/><text font-family="Verdana,Verdana_MSFontService,sans-serif" font-weight="400" font-size="12" transform="matrix(1.32466 0 0 1.32466 811.761 388)">Ouro</text><text font-family="Verdana,Verdana_MSFontService,sans-serif" font-weight="400" font-size="12" transform="matrix(1.32466 0 0 1.32466 850.764 388)">-</text><text font-family="Verdana,Verdana_MSFontService,sans-serif" font-weight="400" font-size="12" transform="matrix(1.32466 0 0 1.32466 857.982 388)">2</text><text font-family="Verdana,Verdana_MSFontService,sans-serif" font-weight="400" font-size="12" transform="matrix(1.32466 0 0 1.32466 868.088 388)">.</text><text font-family="Verdana,Verdana_MSFontService,sans-serif" font-weight="400" font-size="12" transform="matrix(1.32466 0 0 1.32466 873.87 388)">6</text><text font-family="Verdana,Verdana_MSFontService,sans-serif" font-weight="400" font-size="12" transform="matrix(1.32466 0 0 1.32466 883.976 388)">B</text><path d="M767.252 405.489 783.148 405.489 799.044 405.489" stroke="#FF3399" stroke-width="3.31166" stroke-linejoin="round" stroke-dasharray="12.2531 5.29865" fill="none"/><text font-family="Verdana,Verdana_MSFontService,sans-serif" font-weight="400" font-size="12" transform="matrix(1.32466 0 0 1.32466 811.761 411)">Qwen</text><text font-family="Verdana,Verdana_MSFontService,sans-serif" font-weight="400" font-size="12" transform="matrix(1.32466 0 0 1.32466 856.81 411)">3</text><text font-family="Verdana,Verdana_MSFontService,sans-serif" font-weight="400" font-size="12" transform="matrix(1.32466 0 0 1.32466 866.916 411)">-</text><text font-family="Verdana,Verdana_MSFontService,sans-serif" font-weight="400" font-size="12" transform="matrix(1.32466 0 0 1.32466 874.134 411)">4</text><text font-family="Verdana,Verdana_MSFontService,sans-serif" font-weight="400" font-size="12" transform="matrix(1.32466 0 0 1.32466 884.24 411)">B</text><path d="M925.789 382.157 941.685 382.157 957.581 382.157" stroke="#9933CC" stroke-width="3.31166" stroke-linecap="square" stroke-linejoin="round" fill="none"/><path d="M941.685 387.455 946.984 376.858 936.387 376.858Z" stroke="#FFFFFF" stroke-width="1.98699" fill="#9933CC"/><text font-family="Verdana,Verdana_MSFontService,sans-serif" font-weight="400" font-size="12" transform="matrix(1.32466 0 0 1.32466 970.298 388)">Ouro</text><text font-family="Verdana,Verdana_MSFontService,sans-serif" font-weight="400" font-size="12" transform="matrix(1.32466 0 0 1.32466 1009.3 388)">-</text><text font-family="Verdana,Verdana_MSFontService,sans-serif" font-weight="400" font-size="12" transform="matrix(1.32466 0 0 1.32466 1016.52 388)">2</text><text font-family="Verdana,Verdana_MSFontService,sans-serif" font-weight="400" font-size="12" transform="matrix(1.32466 0 0 1.32466 1026.62 388)">.</text><text font-family="Verdana,Verdana_MSFontService,sans-serif" font-weight="400" font-size="12" transform="matrix(1.32466 0 0 1.32466 1032.41 388)">6</text><text font-family="Verdana,Verdana_MSFontService,sans-serif" font-weight="400" font-size="12" transform="matrix(1.32466 0 0 1.32466 1042.51 388)">B</text><text font-family="Verdana,Verdana_MSFontService,sans-serif" font-weight="400" font-size="12" transform="matrix(1.32466 0 0 1.32466 1053.41 388)">-</text><text font-family="Verdana,Verdana_MSFontService,sans-serif" font-weight="400" font-size="12" transform="matrix(1.32466 0 0 1.32466 1060.63 388)">Thinking</text><path d="M925.789 405.489 941.685 405.489 957.581 405.489" stroke="#CCCC00" stroke-width="3.31166" stroke-linejoin="round" stroke-dasharray="12.2531 5.29865" fill="none"/><text font-family="Verdana,Verdana_MSFontService,sans-serif" font-weight="400" font-size="12" transform="matrix(1.32466 0 0 1.32466 970.298 411)">Qwen</text><text font-family="Verdana,Verdana_MSFontService,sans-serif" font-weight="400" font-size="12" transform="matrix(1.32466 0 0 1.32466 1015.35 411)">3</text><text font-family="Verdana,Verdana_MSFontService,sans-serif" font-weight="400" font-size="12" transform="matrix(1.32466 0 0 1.32466 1025.45 411)">-</text><text font-family="Verdana,Verdana_MSFontService,sans-serif" font-weight="400" font-size="12" transform="matrix(1.32466 0 0 1.32466 1032.67 411)">8</text><text font-family="Verdana,Verdana_MSFontService,sans-serif" font-weight="400" font-size="12" transform="matrix(1.32466 0 0 1.32466 1042.78 411)">B</text></g></g></g><path d="M178.5 374.834C178.5 369.679 182.679 365.5 187.834 365.5L1136.17 365.5C1141.32 365.5 1145.5 369.679 1145.5 374.834L1145.5 412.166C1145.5 417.321 1141.32 421.5 1136.17 421.5L187.834 421.5C182.679 421.5 178.5 417.321 178.5 412.166Z" stroke="#042433" stroke-miterlimit="8" stroke-dasharray="8 3" fill="none" fill-rule="evenodd"/></g></svg>