<svg width="1280" height="310" viewBox="0 130 1280 310" xmlns="http://www.w3.org/2000/svg" xmlns:xlink="http://www.w3.org/1999/xlink" overflow="hidden"><g><rect x="0" y="0" width="1280" height="720" fill="#FFFFFF"/><text font-family="Sans Serif Collection,Sans Serif Collection_MSFontService,sans-serif" font-weight="400" font-size="16" transform="translate(184.373 348)">Looped Steps</text><text font-family="Sans Serif Collection,Sans Serif Collection_MSFontService,sans-serif" font-weight="400" font-size="16" transform="translate(458.773 348)">Looped Steps</text><text font-family="Sans Serif Collection,Sans Serif Collection_MSFontService,sans-serif" font-weight="400" font-size="16" transform="translate(769.344 348)">Looped Steps</text><text font-family="Sans Serif Collection,Sans Serif Collection_MSFontService,sans-serif" font-weight="400" font-size="16" transform="translate(1047.79 348)">Looped Steps</text><text font-family="Sans Serif Collection,Sans Serif Collection_MSFontService,sans-serif" font-weight="400" font-size="16" transform="matrix(-1.83697e-16 -1 1 -1.83697e-16 96.8111 279)">F1 Score</text><text font-family="Sans Serif Collection,Sans Serif Collection_MSFontService,sans-serif" font-weight="400" font-size="16" transform="matrix(-1.83697e-16 -1 1 -1.83697e-16 677.827 283)">Accuracy</text><text font-family="Sans Serif Collection,Sans Serif Collection_MSFontService,sans-serif" font-weight="400" font-size="16" transform="translate(212.31 161)">Safety</text><text font-family="Sans Serif Collection,Sans Serif Collection_MSFontService,sans-serif" font-weight="400" font-size="16" transform="translate(486.71 161)">Math</text><text font-family="Sans Serif Collection,Sans Serif Collection_MSFontService,sans-serif" font-weight="400" font-size="16" transform="translate(794.341 160)">Safety</text><text font-family="Sans Serif Collection,Sans Serif Collection_MSFontService,sans-serif" font-weight="400" font-size="16" transform="translate(1068.74 160)">Math</text><g><g><g><path d="M199.648 382.157 215.544 382.157 231.44 382.157" stroke="#FF3333" stroke-width="3.31166" stroke-linecap="square" stroke-linejoin="round" fill="none"/><path d="M215.544 387.455C216.949 387.455 218.297 386.897 219.291 385.903 220.284 384.91 220.843 383.562 220.843 382.157 220.843 380.751 220.284 379.404 219.291 378.41 218.297 377.416 216.949 376.858 215.544 376.858 214.139 376.858 212.791 377.416 211.797 378.41 210.804 379.404 210.245 380.751 210.245 382.157 210.245 383.562 210.804 384.91 211.797 385.903 212.791 386.897 214.139 387.455 215.544 387.455Z" stroke="#FFFFFF" stroke-width="1.98699" stroke-linejoin="round" fill="#FF3333"/><text font-family="Verdana,Verdana_MSFontService,sans-serif" font-weight="400" font-size="12" transform="matrix(1.32466 0 0 1.32466 244.157 388)">Ouro</text><text font-family="Verdana,Verdana_MSFontService,sans-serif" font-weight="400" font-size="12" transform="matrix(1.32466 0 0 1.32466 283.159 388)">-</text><text font-family="Verdana,Verdana_MSFontService,sans-serif" font-weight="400" font-size="12" transform="matrix(1.32466 0 0 1.32466 290.378 388)">1</text><text font-family="Verdana,Verdana_MSFontService,sans-serif" font-weight="400" font-size="12" transform="matrix(1.32466 0 0 1.32466 300.483 388)">.</text><text font-family="Verdana,Verdana_MSFontService,sans-serif" font-weight="400" font-size="12" transform="matrix(1.32466 0 0 1.32466 306.266 388)">4</text><text font-family="Verdana,Verdana_MSFontService,sans-serif" font-weight="400" font-size="12" transform="matrix(1.32466 0 0 1.32466 316.371 388)">B</text><path d="M199.648 405.489 215.544 405.489 231.44 405.489" stroke="#0066CC" stroke-width="3.31166" stroke-linejoin="round" stroke-dasharray="12.2531 5.29865" fill="none"/><text font-family="Verdana,Verdana_MSFontService,sans-serif" font-weight="400" font-size="12" transform="matrix(1.32466 0 0 1.32466 244.157 411)">Llama</text><text font-family="Verdana,Verdana_MSFontService,sans-serif" font-weight="400" font-size="12" transform="matrix(1.32466 0 0 1.32466 291.922 411)">-</text><text font-family="Verdana,Verdana_MSFontService,sans-serif" font-weight="400" font-size="12" transform="matrix(1.32466 0 0 1.32466 299.141 411)">3</text><text font-family="Verdana,Verdana_MSFontService,sans-serif" font-weight="400" font-size="12" transform="matrix(1.32466 0 0 1.32466 309.246 411)">.</text><text font-family="Verdana,Verdana_MSFontService,sans-serif" font-weight="400" font-size="12" transform="matrix(1.32466 0 0 1.32466 315.029 411)">1</text><text font-family="Verdana,Verdana_MSFontService,sans-serif" font-weight="400" font-size="12" transform="matrix(1.32466 0 0 1.32466 325.134 411)">-</text><text font-family="Verdana,Verdana_MSFontService,sans-serif" font-weight="400" font-size="12" transform="matrix(1.32466 0 0 1.32466 332.353 411)">8</text><text font-family="Verdana,Verdana_MSFontService,sans-serif" font-weight="400" font-size="12" transform="matrix(1.32466 0 0 1.32466 342.459 411)">B</text><text font-family="Verdana,Verdana_MSFontService,sans-serif" font-weight="400" font-size="12" transform="matrix(1.32466 0 0 1.32466 353.356 411)">-</text><text font-family="Verdana,Verdana_MSFontService,sans-serif" font-weight="400" font-size="12" transform="matrix(1.32466 0 0 1.32466 360.574 411)">Instruct</text><path d="M448.549 382.157 464.445 382.157 480.341 382.157" stroke="#00994D" stroke-width="3.31166" stroke-linecap="square" stroke-linejoin="round" fill="none"/><path d="M459.147 387.455 469.744 387.455 469.744 376.858 459.147 376.858Z" stroke="#FFFFFF" stroke-width="1.98699" fill="#00994D"/><text font-family="Verdana,Verdana_MSFontService,sans-serif" font-weight="400" font-size="12" transform="matrix(1.32466 0 0 1.32466 493.058 388)">Ouro</text><text font-family="Verdana,Verdana_MSFontService,sans-serif" font-weight="400" font-size="12" transform="matrix(1.32466 0 0 1.32466 532.06 388)">-</text><text font-family="Verdana,Verdana_MSFontService,sans-serif" font-weight="400" font-size="12" transform="matrix(1.32466 0 0 1.32466 539.279 388)">1</text><text font-family="Verdana,Verdana_MSFontService,sans-serif" font-weight="400" font-size="12" transform="matrix(1.32466 0 0 1.32466 549.385 388)">.</text><text font-family="Verdana,Verdana_MSFontService,sans-serif" font-weight="400" font-size="12" transform="matrix(1.32466 0 0 1.32466 555.167 388)">4</text><text font-family="Verdana,Verdana_MSFontService,sans-serif" font-weight="400" font-size="12" transform="matrix(1.32466 0 0 1.32466 565.273 388)">B</text><text font-family="Verdana,Verdana_MSFontService,sans-serif" font-weight="400" font-size="12" transform="matrix(1.32466 0 0 1.32466 576.17 388)">-</text><text font-family="Verdana,Verdana_MSFontService,sans-serif" font-weight="400" font-size="12" transform="matrix(1.32466 0 0 1.32466 583.388 388)">Thinking</text><path d="M448.549 405.489 464.445 405.489 480.341 405.489" stroke="#0099CC" stroke-width="3.31166" stroke-linejoin="round" stroke-dasharray="12.2531 5.29865" fill="none"/><text font-family="Verdana,Verdana_MSFontService,sans-serif" font-weight="400" font-size="12" transform="matrix(1.32466 0 0 1.32466 493.058 411)">Qwen</text><text font-family="Verdana,Verdana_MSFontService,sans-serif" font-weight="400" font-size="12" transform="matrix(1.32466 0 0 1.32466 538.107 411)">3</text><text font-family="Verdana,Verdana_MSFontService,sans-serif" font-weight="400" font-size="12" transform="matrix(1.32466 0 0 1.32466 548.212 411)">-</text><text font-family="Verdana,Verdana_MSFontService,sans-serif" font-weight="400" font-size="12" transform="matrix(1.32466 0 0 1.32466 555.431 411)">30</text><text font-family="Verdana,Verdana_MSFontService,sans-serif" font-weight="400" font-size="12" transform="matrix(1.32466 0 0 1.32466 575.642 411)">B</text><text font-family="Verdana,Verdana_MSFontService,sans-serif" font-weight="400" font-size="12" transform="matrix(1.32466 0 0 1.32466 586.54 411)">-</text><text font-family="Verdana,Verdana_MSFontService,sans-serif" font-weight="400" font-size="12" transform="matrix(1.32466 0 0 1.32466 593.758 411)">A</text><text font-family="Verdana,Verdana_MSFontService,sans-serif" font-weight="400" font-size="12" transform="matrix(1.32466 0 0 1.32466 604.625 411)">3</text><text font-family="Verdana,Verdana_MSFontService,sans-serif" font-weight="400" font-size="12" transform="matrix(1.32466 0 0 1.32466 614.73 411)">B</text><text font-family="Verdana,Verdana_MSFontService,sans-serif" font-weight="400" font-size="12" transform="matrix(1.32466 0 0 1.32466 625.628 411)">-</text><text font-family="Verdana,Verdana_MSFontService,sans-serif" font-weight="400" font-size="12" transform="matrix(1.32466 0 0 1.32466 632.846 411)">Instruct</text><text font-family="Verdana,Verdana_MSFontService,sans-serif" font-weight="400" font-size="12" transform="matrix(1.32466 0 0 1.32466 695.529 411)">-</text><text font-family="Verdana,Verdana_MSFontService,sans-serif" font-weight="400" font-size="12" transform="matrix(1.32466 0 0 1.32466 702.748 411)">2507</text><path d="M767.252 382.157 783.148 382.157 799.044 382.157" stroke="#FF9900" stroke-width="3.31166" stroke-linecap="square" stroke-linejoin="round" fill="none"/><path d="M783.148 389.65 790.642 382.157 783.148 374.663 775.655 382.157Z" stroke="#FFFFFF" stroke-width="1.98699" fill="#FF9900"/><text font-family="Verdana,Verdana_MSFontService,sans-serif" font-weight="400" font-size="12" transform="matrix(1.32466 0 0 1.32466 811.761 388)">Ouro</text><text font-family="Verdana,Verdana_MSFontService,sans-serif" font-weight="400" font-size="12" transform="matrix(1.32466 0 0 1.32466 850.764 388)">-</text><text font-family="Verdana,Verdana_MSFontService,sans-serif" font-weight="400" font-size="12" transform="matrix(1.32466 0 0 1.32466 857.982 388)">2</text><text font-family="Verdana,Verdana_MSFontService,sans-serif" font-weight="400" font-size="12" transform="matrix(1.32466 0 0 1.32466 868.088 388)">.</text><text font-family="Verdana,Verdana_MSFontService,sans-serif" font-weight="400" font-size="12" transform="matrix(1.32466 0 0 1.32466 873.87 388)">6</text><text font-family="Verdana,Verdana_MSFontService,sans-serif" font-weight="400" font-size="12" transform="matrix(1.32466 0 0 1.32466 883.976 388)">B</text><path d="M767.252 405.489 783.148 405.489 799.044 405.489" stroke="#FF3399" stroke-width="3.31166" stroke-linejoin="round" stroke-dasharray="12.2531 5.29865" fill="none"/><text font-family="Verdana,Verdana_MSFontService,sans-serif" font-weight="400" font-size="12" transform="matrix(1.32466 0 0 1.32466 811.761 411)">Qwen</text><text font-family="Verdana,Verdana_MSFontService,sans-serif" font-weight="400" font-size="12" transform="matrix(1.32466 0 0 1.32466 856.81 411)">3</text><text font-family="Verdana,Verdana_MSFontService,sans-serif" font-weight="400" font-size="12" transform="matrix(1.32466 0 0 1.32466 866.916 411)">-</text><text font-family="Verdana,Verdana_MSFontService,sans-serif" font-weight="400" font-size="12" transform="matrix(1.32466 0 0 1.32466 874.134 411)">4</text><text font-family="Verdana,Verdana_MSFontService,sans-serif" font-weight="400" font-size="12" transform="matrix(1.32466 0 0 1.32466 884.24 411)">B</text><path d="M925.789 382.157 941.685 382.157 957.581 382.157" stroke="#9933CC" stroke-width="3.31166" stroke-linecap="square" stroke-linejoin="round" fill="none"/><path d="M941.685 387.455 946.984 376.858 936.387 376.858Z" stroke="#FFFFFF" stroke-width="1.98699" fill="#9933CC"/><text font-family="Verdana,Verdana_MSFontService,sans-serif" font-weight="400" font-size="12" transform="matrix(1.32466 0 0 1.32466 970.298 388)">Ouro</text><text font-family="Verdana,Verdana_MSFontService,sans-serif" font-weight="400" font-size="12" transform="matrix(1.32466 0 0 1.32466 1009.3 388)">-</text><text font-family="Verdana,Verdana_MSFontService,sans-serif" font-weight="400" font-size="12" transform="matrix(1.32466 0 0 1.32466 1016.52 388)">2</text><text font-family="Verdana,Verdana_MSFontService,sans-serif" font-weight="400" font-size="12" transform="matrix(1.32466 0 0 1.32466 1026.62 388)">.</text><text font-family="Verdana,Verdana_MSFontService,sans-serif" font-weight="400" font-size="12" transform="matrix(1.32466 0 0 1.32466 1032.41 388)">6</text><text font-family="Verdana,Verdana_MSFontService,sans-serif" font-weight="400" font-size="12" transform="matrix(1.32466 0 0 1.32466 1042.51 388)">B</text><text font-family="Verdana,Verdana_MSFontService,sans-serif" font-weight="400" font-size="12" transform="matrix(1.32466 0 0 1.32466 1053.41 388)">-</text><text font-family="Verdana,Verdana_MSFontService,sans-serif" font-weight="400" font-size="12" transform="matrix(1.32466 0 0 1.32466 1060.63 388)">Thinking</text><path d="M925.789 405.489 941.685 405.489 957.581 405.489" stroke="#CCCC00" stroke-width="3.31166" stroke-linejoin="round" stroke-dasharray="12.2531 5.29865" fill="none"/><text font-family="Verdana,Verdana_MSFontService,sans-serif" font-weight="400" font-size="12" transform="matrix(1.32466 0 0 1.32466 970.298 411)">Qwen</text><text font-family="Verdana,Verdana_MSFontService,sans-serif" font-weight="400" font-size="12" transform="matrix(1.32466 0 0 1.32466 1015.35 411)">3</text><text font-family="Verdana,Verdana_MSFontService,sans-serif" font-weight="400" font-size="12" transform="matrix(1.32466 0 0 1.32466 1025.45 411)">-</text><text font-family="Verdana,Verdana_MSFontService,sans-serif" font-weight="400" font-size="12" transform="matrix(1.32466 0 0 1.32466 1032.67 411)">8</text><text font-family="Verdana,Verdana_MSFontService,sans-serif" font-weight="400" font-size="12" transform="matrix(1.32466 0 0 1.32466 1042.78 411)">B</text></g></g></g><path d="M178.5 374.834C178.5 369.679 182.679 365.5 187.834 365.5L1136.17 365.5C1141.32 365.5 1145.5 369.679 1145.5 374.834L1145.5 412.166C1145.5 417.321 1141.32 421.5 1136.17 421.5L187.834 421.5C182.679 421.5 178.5 417.321 178.5 412.166Z" stroke="#042433" stroke-miterlimit="8" stroke-dasharray="8 3" fill="none" fill-rule="evenodd"/><g><g><g><g><path d="M26.0657 157.988 26.0657 5.1375" stroke="#808080" stroke-width="0.380556" stroke-linejoin="round" stroke-dasharray="0.380556 0.627917" stroke-opacity="0.4" fill="none" transform="matrix(1 0 0 1.00438 962 159)"/></g><path d="M0 0 0 1.66493" stroke="#000000" stroke-width="0.380556" stroke-linejoin="round" fill="none" transform="matrix(1 0 0 1.00438 988.066 317.68)"/><text font-family="Verdana,Verdana_MSFontService,sans-serif" font-weight="400" font-size="10" transform="matrix(0.475694 0 0 0.477778 986.554 325)">1</text><g><path d="M59.0993 157.988 59.0993 5.1375" stroke="#808080" stroke-width="0.380556" stroke-linejoin="round" stroke-dasharray="0.380556 0.627917" stroke-opacity="0.4" fill="none" transform="matrix(1 0 0 1.00438 962 159)"/></g><path d="M0 0 0 1.66493" stroke="#000000" stroke-width="0.380556" stroke-linejoin="round" fill="none" transform="matrix(1 0 0 1.00438 1021.1 317.68)"/><text font-family="Verdana,Verdana_MSFontService,sans-serif" font-weight="400" font-size="10" transform="matrix(0.475694 0 0 0.477778 1019.59 325)">2</text><g><path d="M92.133 157.988 92.133 5.1375" stroke="#808080" stroke-width="0.380556" stroke-linejoin="round" stroke-dasharray="0.380556 0.627917" stroke-opacity="0.4" fill="none" transform="matrix(1 0 0 1.00438 962 159)"/></g><path d="M0 0 0 1.66493" stroke="#000000" stroke-width="0.380556" stroke-linejoin="round" fill="none" transform="matrix(1 0 0 1.00438 1054.13 317.68)"/><text font-family="Verdana,Verdana_MSFontService,sans-serif" font-weight="400" font-size="10" transform="matrix(0.475694 0 0 0.477778 1052.62 325)">3</text><g><path d="M125.167 157.988 125.167 5.1375" stroke="#808080" stroke-width="0.380556" stroke-linejoin="round" stroke-dasharray="0.380556 0.627917" stroke-opacity="0.4" fill="none" transform="matrix(1 0 0 1.00438 962 159)"/></g><path d="M0 0 0 1.66493" stroke="#000000" stroke-width="0.380556" stroke-linejoin="round" fill="none" transform="matrix(1 0 0 1.00438 1087.17 317.68)"/><text font-family="Verdana,Verdana_MSFontService,sans-serif" font-weight="400" font-size="10" transform="matrix(0.475694 0 0 0.477778 1085.65 325)">4</text><g><path d="M158.2 157.988 158.2 5.1375" stroke="#808080" stroke-width="0.380556" stroke-linejoin="round" stroke-dasharray="0.380556 0.627917" stroke-opacity="0.4" fill="none" transform="matrix(1 0 0 1.00438 962 159)"/></g><path d="M0 0 0 1.66493" stroke="#000000" stroke-width="0.380556" stroke-linejoin="round" fill="none" transform="matrix(1 0 0 1.00438 1120.2 317.68)"/><text font-family="Verdana,Verdana_MSFontService,sans-serif" font-weight="400" font-size="10" transform="matrix(0.475694 0 0 0.477778 1118.69 325)">5</text><g><path d="M191.233 157.988 191.233 5.1375" stroke="#808080" stroke-width="0.380556" stroke-linejoin="round" stroke-dasharray="0.380556 0.627917" stroke-opacity="0.4" fill="none" transform="matrix(1 0 0 1.00438 962 159)"/></g><path d="M0 0 0 1.66493" stroke="#000000" stroke-width="0.380556" stroke-linejoin="round" fill="none" transform="matrix(1 0 0 1.00438 1153.23 317.68)"/><text font-family="Verdana,Verdana_MSFontService,sans-serif" font-weight="400" font-size="10" transform="matrix(0.475694 0 0 0.477778 1151.72 325)">6</text><g><path d="M224.267 157.988 224.267 5.1375" stroke="#808080" stroke-width="0.380556" stroke-linejoin="round" stroke-dasharray="0.380556 0.627917" stroke-opacity="0.4" fill="none" transform="matrix(1 0 0 1.00438 962 159)"/></g><path d="M0 0 0 1.66493" stroke="#000000" stroke-width="0.380556" stroke-linejoin="round" fill="none" transform="matrix(1 0 0 1.00438 1186.27 317.68)"/><text font-family="Verdana,Verdana_MSFontService,sans-serif" font-weight="400" font-size="10" transform="matrix(0.475694 0 0 0.477778 1184.76 325)">7</text><g><path d="M257.301 157.988 257.301 5.1375" stroke="#808080" stroke-width="0.380556" stroke-linejoin="round" stroke-dasharray="0.380556 0.627917" stroke-opacity="0.4" fill="none" transform="matrix(1 0 0 1.00438 962 159)"/></g><path d="M0 0 0 1.66493" stroke="#000000" stroke-width="0.380556" stroke-linejoin="round" fill="none" transform="matrix(1 0 0 1.00438 1219.3 317.68)"/><text font-family="Verdana,Verdana_MSFontService,sans-serif" font-weight="400" font-size="10" transform="matrix(0.475694 0 0 0.477778 1217.79 325)">8</text><g><path d="M14.5039 149.629 268.863 149.629" stroke="#808080" stroke-width="0.380556" stroke-linejoin="round" stroke-dasharray="0.380556 0.627917" stroke-opacity="0.4" fill="none" transform="matrix(1 0 0 1.00438 962 159)"/></g><path d="M0 0-1.66493 0" stroke="#000000" stroke-width="0.380556" stroke-linejoin="round" fill="none" transform="matrix(1 0 0 1.00438 976.504 309.285)"/><text font-family="Verdana,Verdana_MSFontService,sans-serif" font-weight="400" font-size="10" transform="matrix(0.475694 0 0 0.477778 967.126 311)">20</text><g><path d="M14.5039 123.98 268.863 123.98" stroke="#808080" stroke-width="0.380556" stroke-linejoin="round" stroke-dasharray="0.380556 0.627917" stroke-opacity="0.4" fill="none" transform="matrix(1 0 0 1.00438 962 159)"/></g><path d="M0 0-1.66493 0" stroke="#000000" stroke-width="0.380556" stroke-linejoin="round" fill="none" transform="matrix(1 0 0 1.00438 976.504 283.523)"/><text font-family="Verdana,Verdana_MSFontService,sans-serif" font-weight="400" font-size="10" transform="matrix(0.475694 0 0 0.477778 967.126 285)">30</text><g><path d="M14.5039 98.3308 268.863 98.3308" stroke="#808080" stroke-width="0.380556" stroke-linejoin="round" stroke-dasharray="0.380556 0.627917" stroke-opacity="0.4" fill="none" transform="matrix(1 0 0 1.00438 962 159)"/></g><path d="M0 0-1.66493 0" stroke="#000000" stroke-width="0.380556" stroke-linejoin="round" fill="none" transform="matrix(1 0 0 1.00438 976.504 257.761)"/><text font-family="Verdana,Verdana_MSFontService,sans-serif" font-weight="400" font-size="10" transform="matrix(0.475694 0 0 0.477778 967.126 260)">40</text><g><path d="M14.5039 72.6814 268.863 72.6814" stroke="#808080" stroke-width="0.380556" stroke-linejoin="round" stroke-dasharray="0.380556 0.627917" stroke-opacity="0.4" fill="none" transform="matrix(1 0 0 1.00438 962 159)"/></g><path d="M0 0-1.66493 0" stroke="#000000" stroke-width="0.380556" stroke-linejoin="round" fill="none" transform="matrix(1 0 0 1.00438 976.504 232)"/><text font-family="Verdana,Verdana_MSFontService,sans-serif" font-weight="400" font-size="10" transform="matrix(0.475694 0 0 0.477778 967.126 234)">50</text><g><path d="M14.5039 47.0323 268.863 47.0323" stroke="#808080" stroke-width="0.380556" stroke-linejoin="round" stroke-dasharray="0.380556 0.627917" stroke-opacity="0.4" fill="none" transform="matrix(1 0 0 1.00438 962 159)"/></g><path d="M0 0-1.66493 0" stroke="#000000" stroke-width="0.380556" stroke-linejoin="round" fill="none" transform="matrix(1 0 0 1.00438 976.504 206.238)"/><text font-family="Verdana,Verdana_MSFontService,sans-serif" font-weight="400" font-size="10" transform="matrix(0.475694 0 0 0.477778 967.126 208)">60</text><g><path d="M14.5039 21.3831 268.863 21.3831" stroke="#808080" stroke-width="0.380556" stroke-linejoin="round" stroke-dasharray="0.380556 0.627917" stroke-opacity="0.4" fill="none" transform="matrix(1 0 0 1.00438 962 159)"/></g><path d="M0 0-1.66493 0" stroke="#000000" stroke-width="0.380556" stroke-linejoin="round" fill="none" transform="matrix(1 0 0 1.00438 976.504 180.477)"/><text font-family="Verdana,Verdana_MSFontService,sans-serif" font-weight="400" font-size="10" transform="matrix(0.475694 0 0 0.477778 967.126 182)">70</text><g><path d="M26.0657 12.0853 59.0993 62.7427 92.133 94.0343 125.167 133.919 158.2 123.852 191.233 120.838 224.267 115.901 257.301 114.81" stroke="#FF3333" stroke-width="1.18924" stroke-linecap="square" stroke-linejoin="round" fill="none" transform="matrix(1 0 0 1.00438 962 159)"/></g><g><path d="M0 1.90278C0.504621 1.90278 0.988645 1.70229 1.34547 1.34547 1.70229 0.988645 1.90278 0.504621 1.90278 0 1.90278-0.504621 1.70229-0.988645 1.34547-1.34547 0.988645-1.70229 0.504621-1.90278 0-1.90278-0.504621-1.90278-0.988645-1.70229-1.34547-1.34547-1.70229-0.988645-1.90278-0.504621-1.90278 0-1.90278 0.504621-1.70229 0.988645-1.34547 1.34547-0.988645 1.70229-0.504621 1.90278 0 1.90278Z" stroke="#FFFFFF" stroke-width="0.713542" stroke-linejoin="round" fill="#FF3333" transform="matrix(1 0 0 1.00438 988.066 171.138)"/><path d="M0 1.90278C0.504621 1.90278 0.988645 1.70229 1.34547 1.34547 1.70229 0.988645 1.90278 0.504621 1.90278 0 1.90278-0.504621 1.70229-0.988645 1.34547-1.34547 0.988645-1.70229 0.504621-1.90278 0-1.90278-0.504621-1.90278-0.988645-1.70229-1.34547-1.34547-1.70229-0.988645-1.90278-0.504621-1.90278 0-1.90278 0.504621-1.70229 0.988645-1.34547 1.34547-0.988645 1.70229-0.504621 1.90278 0 1.90278Z" stroke="#FFFFFF" stroke-width="0.713542" stroke-linejoin="round" fill="#FF3333" transform="matrix(1 0 0 1.00438 1021.1 222.017)"/><path d="M0 1.90278C0.504621 1.90278 0.988645 1.70229 1.34547 1.34547 1.70229 0.988645 1.90278 0.504621 1.90278 0 1.90278-0.504621 1.70229-0.988645 1.34547-1.34547 0.988645-1.70229 0.504621-1.90278 0-1.90278-0.504621-1.90278-0.988645-1.70229-1.34547-1.34547-1.70229-0.988645-1.90278-0.504621-1.90278 0-1.90278 0.504621-1.70229 0.988645-1.34547 1.34547-0.988645 1.70229-0.504621 1.90278 0 1.90278Z" stroke="#FFFFFF" stroke-width="0.713542" stroke-linejoin="round" fill="#FF3333" transform="matrix(1 0 0 1.00438 1054.13 253.446)"/><path d="M0 1.90278C0.504621 1.90278 0.988645 1.70229 1.34547 1.34547 1.70229 0.988645 1.90278 0.504621 1.90278 0 1.90278-0.504621 1.70229-0.988645 1.34547-1.34547 0.988645-1.70229 0.504621-1.90278 0-1.90278-0.504621-1.90278-0.988645-1.70229-1.34547-1.34547-1.70229-0.988645-1.90278-0.504621-1.90278 0-1.90278 0.504621-1.70229 0.988645-1.34547 1.34547-0.988645 1.70229-0.504621 1.90278 0 1.90278Z" stroke="#FFFFFF" stroke-width="0.713542" stroke-linejoin="round" fill="#FF3333" transform="matrix(1 0 0 1.00438 1087.17 293.505)"/><path d="M0 1.90278C0.504621 1.90278 0.988645 1.70229 1.34547 1.34547 1.70229 0.988645 1.90278 0.504621 1.90278 0 1.90278-0.504621 1.70229-0.988645 1.34547-1.34547 0.988645-1.70229 0.504621-1.90278 0-1.90278-0.504621-1.90278-0.988645-1.70229-1.34547-1.34547-1.70229-0.988645-1.90278-0.504621-1.90278 0-1.90278 0.504621-1.70229 0.988645-1.34547 1.34547-0.988645 1.70229-0.504621 1.90278 0 1.90278Z" stroke="#FFFFFF" stroke-width="0.713542" stroke-linejoin="round" fill="#FF3333" transform="matrix(1 0 0 1.00438 1120.2 283.394)"/><path d="M0 1.90278C0.504621 1.90278 0.988645 1.70229 1.34547 1.34547 1.70229 0.988645 1.90278 0.504621 1.90278 0 1.90278-0.504621 1.70229-0.988645 1.34547-1.34547 0.988645-1.70229 0.504621-1.90278 0-1.90278-0.504621-1.90278-0.988645-1.70229-1.34547-1.34547-1.70229-0.988645-1.90278-0.504621-1.90278 0-1.90278 0.504621-1.70229 0.988645-1.34547 1.34547-0.988645 1.70229-0.504621 1.90278 0 1.90278Z" stroke="#FFFFFF" stroke-width="0.713542" stroke-linejoin="round" fill="#FF3333" transform="matrix(1 0 0 1.00438 1153.23 280.367)"/><path d="M0 1.90278C0.504621 1.90278 0.988645 1.70229 1.34547 1.34547 1.70229 0.988645 1.90278 0.504621 1.90278 0 1.90278-0.504621 1.70229-0.988645 1.34547-1.34547 0.988645-1.70229 0.504621-1.90278 0-1.90278-0.504621-1.90278-0.988645-1.70229-1.34547-1.34547-1.70229-0.988645-1.90278-0.504621-1.90278 0-1.90278 0.504621-1.70229 0.988645-1.34547 1.34547-0.988645 1.70229-0.504621 1.90278 0 1.90278Z" stroke="#FFFFFF" stroke-width="0.713542" stroke-linejoin="round" fill="#FF3333" transform="matrix(1 0 0 1.00438 1186.27 275.408)"/><path d="M0 1.90278C0.504621 1.90278 0.988645 1.70229 1.34547 1.34547 1.70229 0.988645 1.90278 0.504621 1.90278 0 1.90278-0.504621 1.70229-0.988645 1.34547-1.34547 0.988645-1.70229 0.504621-1.90278 0-1.90278-0.504621-1.90278-0.988645-1.70229-1.34547-1.34547-1.70229-0.988645-1.90278-0.504621-1.90278 0-1.90278 0.504621-1.70229 0.988645-1.34547 1.34547-0.988645 1.70229-0.504621 1.90278 0 1.90278Z" stroke="#FFFFFF" stroke-width="0.713542" stroke-linejoin="round" fill="#FF3333" transform="matrix(1 0 0 1.00438 1219.3 274.313)"/></g><g><path d="M26.0657 18.8823 59.0993 97.6896 92.133 123.916 125.167 133.47 158.2 123.467 191.233 124.493 224.267 114.939 257.301 109.937" stroke="#00994D" stroke-width="1.18924" stroke-linecap="square" stroke-linejoin="round" fill="none" transform="matrix(1 0 0 1.00438 962 159)"/></g><g><path d="M-1.90278 1.90278 1.90278 1.90278 1.90278-1.90278-1.90278-1.90278Z" stroke="#FFFFFF" stroke-width="0.713542" fill="#00994D" transform="matrix(1 0 0 1.00438 988.066 177.965)"/><path d="M-1.90278 1.90278 1.90278 1.90278 1.90278-1.90278-1.90278-1.90278Z" stroke="#FFFFFF" stroke-width="0.713542" fill="#00994D" transform="matrix(1 0 0 1.00438 1021.1 257.117)"/><path d="M-1.90278 1.90278 1.90278 1.90278 1.90278-1.90278-1.90278-1.90278Z" stroke="#FFFFFF" stroke-width="0.713542" fill="#00994D" transform="matrix(1 0 0 1.00438 1054.13 283.459)"/><path d="M-1.90278 1.90278 1.90278 1.90278 1.90278-1.90278-1.90278-1.90278Z" stroke="#FFFFFF" stroke-width="0.713542" fill="#00994D" transform="matrix(1 0 0 1.00438 1087.17 293.055)"/><path d="M-1.90278 1.90278 1.90278 1.90278 1.90278-1.90278-1.90278-1.90278Z" stroke="#FFFFFF" stroke-width="0.713542" fill="#00994D" transform="matrix(1 0 0 1.00438 1120.2 283.008)"/><path d="M-1.90278 1.90278 1.90278 1.90278 1.90278-1.90278-1.90278-1.90278Z" stroke="#FFFFFF" stroke-width="0.713542" fill="#00994D" transform="matrix(1 0 0 1.00438 1153.23 284.038)"/><path d="M-1.90278 1.90278 1.90278 1.90278 1.90278-1.90278-1.90278-1.90278Z" stroke="#FFFFFF" stroke-width="0.713542" fill="#00994D" transform="matrix(1 0 0 1.00438 1186.27 274.442)"/><path d="M-1.90278 1.90278 1.90278 1.90278 1.90278-1.90278-1.90278-1.90278Z" stroke="#FFFFFF" stroke-width="0.713542" fill="#00994D" transform="matrix(1 0 0 1.00438 1219.3 269.418)"/></g><g><path d="M26.0657 19.2029 59.0993 36.5802 92.133 69.7958 125.167 83.2617 158.2 82.2357 191.233 81.5307 224.267 74.6693 257.301 68.129" stroke="#FF9900" stroke-width="1.18924" stroke-linecap="square" stroke-linejoin="round" fill="none" transform="matrix(1 0 0 1.00438 962 159)"/></g><g><path d="M0 2.69093 2.69093 0 0-2.69093-2.69093 0Z" stroke="#FFFFFF" stroke-width="0.713542" fill="#FF9900" transform="matrix(1 0 0 1.00438 988.066 178.287)"/><path d="M0 2.69093 2.69093 0 0-2.69093-2.69093 0Z" stroke="#FFFFFF" stroke-width="0.713542" fill="#FF9900" transform="matrix(1 0 0 1.00438 1021.1 195.74)"/><path d="M0 2.69093 2.69093 0 0-2.69093-2.69093 0Z" stroke="#FFFFFF" stroke-width="0.713542" fill="#FF9900" transform="matrix(1 0 0 1.00438 1054.13 229.101)"/><path d="M0 2.69093 2.69093 0 0-2.69093-2.69093 0Z" stroke="#FFFFFF" stroke-width="0.713542" fill="#FF9900" transform="matrix(1 0 0 1.00438 1087.17 242.626)"/><path d="M0 2.69093 2.69093 0 0-2.69093-2.69093 0Z" stroke="#FFFFFF" stroke-width="0.713542" fill="#FF9900" transform="matrix(1 0 0 1.00438 1120.2 241.596)"/><path d="M0 2.69093 2.69093 0 0-2.69093-2.69093 0Z" stroke="#FFFFFF" stroke-width="0.713542" fill="#FF9900" transform="matrix(1 0 0 1.00438 1153.23 240.888)"/><path d="M0 2.69093 2.69093 0 0-2.69093-2.69093 0Z" stroke="#FFFFFF" stroke-width="0.713542" fill="#FF9900" transform="matrix(1 0 0 1.00438 1186.27 233.996)"/><path d="M0 2.69093 2.69093 0 0-2.69093-2.69093 0Z" stroke="#FFFFFF" stroke-width="0.713542" fill="#FF9900" transform="matrix(1 0 0 1.00438 1219.3 227.427)"/></g><g><path d="M26.0657 62.2936 59.0993 129.559 92.133 144.114 125.167 147.962 158.2 151.04 191.233 150.527 224.267 149.565 257.301 150.655" stroke="#9933CC" stroke-width="1.18924" stroke-linecap="square" stroke-linejoin="round" fill="none" transform="matrix(1 0 0 1.00438 962 159)"/></g><g><path d="M0 1.90278 1.90278-1.90278-1.90278-1.90278Z" stroke="#FFFFFF" stroke-width="0.713542" fill="#9933CC" transform="matrix(1 0 0 1.00438 988.066 221.566)"/><path d="M0 1.90278 1.90278-1.90278-1.90278-1.90278Z" stroke="#FFFFFF" stroke-width="0.713542" fill="#9933CC" transform="matrix(1 0 0 1.00438 1021.1 289.126)"/><path d="M0 1.90278 1.90278-1.90278-1.90278-1.90278Z" stroke="#FFFFFF" stroke-width="0.713542" fill="#9933CC" transform="matrix(1 0 0 1.00438 1054.13 303.746)"/><path d="M0 1.90278 1.90278-1.90278-1.90278-1.90278Z" stroke="#FFFFFF" stroke-width="0.713542" fill="#9933CC" transform="matrix(1 0 0 1.00438 1087.17 307.61)"/><path d="M0 1.90278 1.90278-1.90278-1.90278-1.90278Z" stroke="#FFFFFF" stroke-width="0.713542" fill="#9933CC" transform="matrix(1 0 0 1.00438 1120.2 310.702)"/><path d="M0 1.90278 1.90278-1.90278-1.90278-1.90278Z" stroke="#FFFFFF" stroke-width="0.713542" fill="#9933CC" transform="matrix(1 0 0 1.00438 1153.23 310.186)"/><path d="M0 1.90278 1.90278-1.90278-1.90278-1.90278Z" stroke="#FFFFFF" stroke-width="0.713542" fill="#9933CC" transform="matrix(1 0 0 1.00438 1186.27 309.22)"/><path d="M0 1.90278 1.90278-1.90278-1.90278-1.90278Z" stroke="#FFFFFF" stroke-width="0.713542" fill="#9933CC" transform="matrix(1 0 0 1.00438 1219.3 310.315)"/></g><g><path d="M26.0657 140.588 257.301 140.588" stroke="#0066CC" stroke-width="1.18924" stroke-linejoin="round" stroke-dasharray="4.40017 1.90278" stroke-opacity="0.8" fill="none" transform="matrix(1 0 0 1.00438 962 159)"/></g><g><path d="M26.0657 136.612 257.301 136.612" stroke="#0099CC" stroke-width="1.18924" stroke-linejoin="round" stroke-dasharray="4.40017 1.90278" stroke-opacity="0.8" fill="none" transform="matrix(1 0 0 1.00438 962 159)"/></g><g><path d="M26.0657 129.687 257.301 129.687" stroke="#FF3399" stroke-width="1.18924" stroke-linejoin="round" stroke-dasharray="4.40017 1.90278" stroke-opacity="0.8" fill="none" transform="matrix(1 0 0 1.00438 962 159)"/></g><g><path d="M26.0657 126.673 257.301 126.673" stroke="#CCCC00" stroke-width="1.18924" stroke-linejoin="round" stroke-dasharray="4.40017 1.90278" stroke-opacity="0.8" fill="none" transform="matrix(1 0 0 1.00438 962 159)"/></g><path d="M14.5039 157.988 14.5039 5.1375" stroke="#000000" stroke-width="0.713542" stroke-linecap="square" fill="none" transform="matrix(1 0 0 1.00438 962 159)"/><path d="M268.863 157.988 268.863 5.1375" stroke="#000000" stroke-width="0.713542" stroke-linecap="square" fill="none" transform="matrix(1 0 0 1.00438 962 159)"/><path d="M14.5039 157.988 268.863 157.988" stroke="#000000" stroke-width="0.713542" stroke-linecap="square" fill="none" transform="matrix(1 0 0 1.00438 962 159)"/><path d="M14.5039 5.1375 268.863 5.1375" stroke="#000000" stroke-width="0.713542" stroke-linecap="square" fill="none" transform="matrix(1 0 0 1.00438 962 159)"/></g></g></g><g><g><g><g><path d="M26.0276 157.757 26.0276 5.13" stroke="#808080" stroke-width="0.38" stroke-linejoin="round" stroke-dasharray="0.38 0.627" stroke-opacity="0.4" fill="none" transform="matrix(1.00146 0 0 1 373 163)"/></g><path d="M0 0 0 1.6625" stroke="#000000" stroke-width="0.38" stroke-linejoin="round" fill="none" transform="matrix(1.00146 0 0 1 399.066 320.757)"/><text font-family="Verdana,Verdana_MSFontService,sans-serif" font-weight="400" font-size="10" transform="matrix(0.475694 0 0 0.475 397.554 328)">1</text><g><path d="M59.0131 157.757 59.0131 5.13" stroke="#808080" stroke-width="0.38" stroke-linejoin="round" stroke-dasharray="0.38 0.627" stroke-opacity="0.4" fill="none" transform="matrix(1.00146 0 0 1 373 163)"/></g><path d="M0 0 0 1.6625" stroke="#000000" stroke-width="0.38" stroke-linejoin="round" fill="none" transform="matrix(1.00146 0 0 1 432.099 320.757)"/><text font-family="Verdana,Verdana_MSFontService,sans-serif" font-weight="400" font-size="10" transform="matrix(0.475694 0 0 0.475 430.587 328)">2</text><g><path d="M91.9985 157.757 91.9985 5.13" stroke="#808080" stroke-width="0.38" stroke-linejoin="round" stroke-dasharray="0.38 0.627" stroke-opacity="0.4" fill="none" transform="matrix(1.00146 0 0 1 373 163)"/></g><path d="M0 0 0 1.6625" stroke="#000000" stroke-width="0.38" stroke-linejoin="round" fill="none" transform="matrix(1.00146 0 0 1 465.133 320.757)"/><text font-family="Verdana,Verdana_MSFontService,sans-serif" font-weight="400" font-size="10" transform="matrix(0.475694 0 0 0.475 463.621 328)">3</text><g><path d="M124.984 157.757 124.984 5.13" stroke="#808080" stroke-width="0.38" stroke-linejoin="round" stroke-dasharray="0.38 0.627" stroke-opacity="0.4" fill="none" transform="matrix(1.00146 0 0 1 373 163)"/></g><path d="M0 0 0 1.6625" stroke="#000000" stroke-width="0.38" stroke-linejoin="round" fill="none" transform="matrix(1.00146 0 0 1 498.167 320.757)"/><text font-family="Verdana,Verdana_MSFontService,sans-serif" font-weight="400" font-size="10" transform="matrix(0.475694 0 0 0.475 496.655 328)">4</text><g><path d="M157.969 157.757 157.969 5.13" stroke="#808080" stroke-width="0.38" stroke-linejoin="round" stroke-dasharray="0.38 0.627" stroke-opacity="0.4" fill="none" transform="matrix(1.00146 0 0 1 373 163)"/></g><path d="M0 0 0 1.6625" stroke="#000000" stroke-width="0.38" stroke-linejoin="round" fill="none" transform="matrix(1.00146 0 0 1 531.2 320.757)"/><text font-family="Verdana,Verdana_MSFontService,sans-serif" font-weight="400" font-size="10" transform="matrix(0.475694 0 0 0.475 529.688 328)">5</text><g><path d="M190.954 157.757 190.954 5.13" stroke="#808080" stroke-width="0.38" stroke-linejoin="round" stroke-dasharray="0.38 0.627" stroke-opacity="0.4" fill="none" transform="matrix(1.00146 0 0 1 373 163)"/></g><path d="M0 0 0 1.6625" stroke="#000000" stroke-width="0.38" stroke-linejoin="round" fill="none" transform="matrix(1.00146 0 0 1 564.233 320.757)"/><text font-family="Verdana,Verdana_MSFontService,sans-serif" font-weight="400" font-size="10" transform="matrix(0.475694 0 0 0.475 562.721 328)">6</text><g><path d="M223.94 157.757 223.94 5.13" stroke="#808080" stroke-width="0.38" stroke-linejoin="round" stroke-dasharray="0.38 0.627" stroke-opacity="0.4" fill="none" transform="matrix(1.00146 0 0 1 373 163)"/></g><path d="M0 0 0 1.6625" stroke="#000000" stroke-width="0.38" stroke-linejoin="round" fill="none" transform="matrix(1.00146 0 0 1 597.267 320.757)"/><text font-family="Verdana,Verdana_MSFontService,sans-serif" font-weight="400" font-size="10" transform="matrix(0.475694 0 0 0.475 595.755 328)">7</text><g><path d="M256.925 157.757 256.925 5.13" stroke="#808080" stroke-width="0.38" stroke-linejoin="round" stroke-dasharray="0.38 0.627" stroke-opacity="0.4" fill="none" transform="matrix(1.00146 0 0 1 373 163)"/></g><path d="M0 0 0 1.6625" stroke="#000000" stroke-width="0.38" stroke-linejoin="round" fill="none" transform="matrix(1.00146 0 0 1 630.301 320.757)"/><text font-family="Verdana,Verdana_MSFontService,sans-serif" font-weight="400" font-size="10" transform="matrix(0.475694 0 0 0.475 628.789 328)">8</text><g><path d="M14.4827 155.603 268.47 155.603" stroke="#808080" stroke-width="0.38" stroke-linejoin="round" stroke-dasharray="0.38 0.627" stroke-opacity="0.4" fill="none" transform="matrix(1.00146 0 0 1 373 163)"/></g><path d="M0 0-1.6625 0" stroke="#000000" stroke-width="0.38" stroke-linejoin="round" fill="none" transform="matrix(1.00146 0 0 1 387.504 318.603)"/><text font-family="Verdana,Verdana_MSFontService,sans-serif" font-weight="400" font-size="10" transform="matrix(0.475694 0 0 0.475 381.15 320)">0</text><g><path d="M14.4827 135.784 268.47 135.784" stroke="#808080" stroke-width="0.38" stroke-linejoin="round" stroke-dasharray="0.38 0.627" stroke-opacity="0.4" fill="none" transform="matrix(1.00146 0 0 1 373 163)"/></g><path d="M0 0-1.6625 0" stroke="#000000" stroke-width="0.38" stroke-linejoin="round" fill="none" transform="matrix(1.00146 0 0 1 387.504 298.784)"/><text font-family="Verdana,Verdana_MSFontService,sans-serif" font-weight="400" font-size="10" transform="matrix(0.475694 0 0 0.475 378.126 301)">10</text><g><path d="M14.4827 115.966 268.47 115.966" stroke="#808080" stroke-width="0.38" stroke-linejoin="round" stroke-dasharray="0.38 0.627" stroke-opacity="0.4" fill="none" transform="matrix(1.00146 0 0 1 373 163)"/></g><path d="M0 0-1.6625 0" stroke="#000000" stroke-width="0.38" stroke-linejoin="round" fill="none" transform="matrix(1.00146 0 0 1 387.504 278.966)"/><text font-family="Verdana,Verdana_MSFontService,sans-serif" font-weight="400" font-size="10" transform="matrix(0.475694 0 0 0.475 378.126 281)">20</text><g><path d="M14.4827 96.1467 268.47 96.1467" stroke="#808080" stroke-width="0.38" stroke-linejoin="round" stroke-dasharray="0.38 0.627" stroke-opacity="0.4" fill="none" transform="matrix(1.00146 0 0 1 373 163)"/></g><path d="M0 0-1.6625 0" stroke="#000000" stroke-width="0.38" stroke-linejoin="round" fill="none" transform="matrix(1.00146 0 0 1 387.504 259.147)"/><text font-family="Verdana,Verdana_MSFontService,sans-serif" font-weight="400" font-size="10" transform="matrix(0.475694 0 0 0.475 378.126 261)">30</text><g><path d="M14.4827 76.3278 268.47 76.3278" stroke="#808080" stroke-width="0.38" stroke-linejoin="round" stroke-dasharray="0.38 0.627" stroke-opacity="0.4" fill="none" transform="matrix(1.00146 0 0 1 373 163)"/></g><path d="M0 0-1.6625 0" stroke="#000000" stroke-width="0.38" stroke-linejoin="round" fill="none" transform="matrix(1.00146 0 0 1 387.504 239.328)"/><text font-family="Verdana,Verdana_MSFontService,sans-serif" font-weight="400" font-size="10" transform="matrix(0.475694 0 0 0.475 378.126 241)">40</text><g><path d="M14.4827 56.5089 268.47 56.5089" stroke="#808080" stroke-width="0.38" stroke-linejoin="round" stroke-dasharray="0.38 0.627" stroke-opacity="0.4" fill="none" transform="matrix(1.00146 0 0 1 373 163)"/></g><path d="M0 0-1.6625 0" stroke="#000000" stroke-width="0.38" stroke-linejoin="round" fill="none" transform="matrix(1.00146 0 0 1 387.504 219.509)"/><text font-family="Verdana,Verdana_MSFontService,sans-serif" font-weight="400" font-size="10" transform="matrix(0.475694 0 0 0.475 378.126 221)">50</text><g><path d="M14.4827 36.6898 268.47 36.6898" stroke="#808080" stroke-width="0.38" stroke-linejoin="round" stroke-dasharray="0.38 0.627" stroke-opacity="0.4" fill="none" transform="matrix(1.00146 0 0 1 373 163)"/></g><path d="M0 0-1.6625 0" stroke="#000000" stroke-width="0.38" stroke-linejoin="round" fill="none" transform="matrix(1.00146 0 0 1 387.504 199.69)"/><text font-family="Verdana,Verdana_MSFontService,sans-serif" font-weight="400" font-size="10" transform="matrix(0.475694 0 0 0.475 378.126 201)">60</text><g><path d="M14.4827 16.871 268.47 16.871" stroke="#808080" stroke-width="0.38" stroke-linejoin="round" stroke-dasharray="0.38 0.627" stroke-opacity="0.4" fill="none" transform="matrix(1.00146 0 0 1 373 163)"/></g><path d="M0 0-1.6625 0" stroke="#000000" stroke-width="0.38" stroke-linejoin="round" fill="none" transform="matrix(1.00146 0 0 1 387.504 179.871)"/><text font-family="Verdana,Verdana_MSFontService,sans-serif" font-weight="400" font-size="10" transform="matrix(0.475694 0 0 0.475 378.126 182)">70</text><g><path d="M26.0276 12.0676 59.0131 70.7988 91.9985 99.285 124.984 131.075 157.969 123.033 190.954 117.588 223.94 114.665 256.925 112.039" stroke="#FF3333" stroke-width="1.1875" stroke-linecap="square" stroke-linejoin="round" fill="none" transform="matrix(1.00146 0 0 1 373 163)"/></g><g><path d="M0 1.9C0.503885 1.9 0.987202 1.69981 1.3435 1.3435 1.69981 0.987202 1.9 0.503885 1.9 0 1.9-0.503885 1.69981-0.987202 1.3435-1.3435 0.987202-1.69981 0.503885-1.9 0-1.9-0.503885-1.9-0.987202-1.69981-1.3435-1.3435-1.69981-0.987202-1.9-0.503885-1.9 0-1.9 0.503885-1.69981 0.987202-1.3435 1.3435-0.987202 1.69981-0.503885 1.9 0 1.9Z" stroke="#FFFFFF" stroke-width="0.7125" stroke-linejoin="round" fill="#FF3333" transform="matrix(1.00146 0 0 1 399.066 175.068)"/><path d="M0 1.9C0.503885 1.9 0.987202 1.69981 1.3435 1.3435 1.69981 0.987202 1.9 0.503885 1.9 0 1.9-0.503885 1.69981-0.987202 1.3435-1.3435 0.987202-1.69981 0.503885-1.9 0-1.9-0.503885-1.9-0.987202-1.69981-1.3435-1.3435-1.69981-0.987202-1.9-0.503885-1.9 0-1.9 0.503885-1.69981 0.987202-1.3435 1.3435-0.987202 1.69981-0.503885 1.9 0 1.9Z" stroke="#FFFFFF" stroke-width="0.7125" stroke-linejoin="round" fill="#FF3333" transform="matrix(1.00146 0 0 1 432.099 233.799)"/><path d="M0 1.9C0.503885 1.9 0.987202 1.69981 1.3435 1.3435 1.69981 0.987202 1.9 0.503885 1.9 0 1.9-0.503885 1.69981-0.987202 1.3435-1.3435 0.987202-1.69981 0.503885-1.9 0-1.9-0.503885-1.9-0.987202-1.69981-1.3435-1.3435-1.69981-0.987202-1.9-0.503885-1.9 0-1.9 0.503885-1.69981 0.987202-1.3435 1.3435-0.987202 1.69981-0.503885 1.9 0 1.9Z" stroke="#FFFFFF" stroke-width="0.7125" stroke-linejoin="round" fill="#FF3333" transform="matrix(1.00146 0 0 1 465.133 262.285)"/><path d="M0 1.9C0.503885 1.9 0.987202 1.69981 1.3435 1.3435 1.69981 0.987202 1.9 0.503885 1.9 0 1.9-0.503885 1.69981-0.987202 1.3435-1.3435 0.987202-1.69981 0.503885-1.9 0-1.9-0.503885-1.9-0.987202-1.69981-1.3435-1.3435-1.69981-0.987202-1.9-0.503885-1.9 0-1.9 0.503885-1.69981 0.987202-1.3435 1.3435-0.987202 1.69981-0.503885 1.9 0 1.9Z" stroke="#FFFFFF" stroke-width="0.7125" stroke-linejoin="round" fill="#FF3333" transform="matrix(1.00146 0 0 1 498.167 294.075)"/><path d="M0 1.9C0.503885 1.9 0.987202 1.69981 1.3435 1.3435 1.69981 0.987202 1.9 0.503885 1.9 0 1.9-0.503885 1.69981-0.987202 1.3435-1.3435 0.987202-1.69981 0.503885-1.9 0-1.9-0.503885-1.9-0.987202-1.69981-1.3435-1.3435-1.69981-0.987202-1.9-0.503885-1.9 0-1.9 0.503885-1.69981 0.987202-1.3435 1.3435-0.987202 1.69981-0.503885 1.9 0 1.9Z" stroke="#FFFFFF" stroke-width="0.7125" stroke-linejoin="round" fill="#FF3333" transform="matrix(1.00146 0 0 1 531.2 286.033)"/><path d="M0 1.9C0.503885 1.9 0.987202 1.69981 1.3435 1.3435 1.69981 0.987202 1.9 0.503885 1.9 0 1.9-0.503885 1.69981-0.987202 1.3435-1.3435 0.987202-1.69981 0.503885-1.9 0-1.9-0.503885-1.9-0.987202-1.69981-1.3435-1.3435-1.69981-0.987202-1.9-0.503885-1.9 0-1.9 0.503885-1.69981 0.987202-1.3435 1.3435-0.987202 1.69981-0.503885 1.9 0 1.9Z" stroke="#FFFFFF" stroke-width="0.7125" stroke-linejoin="round" fill="#FF3333" transform="matrix(1.00146 0 0 1 564.233 280.588)"/><path d="M0 1.9C0.503885 1.9 0.987202 1.69981 1.3435 1.3435 1.69981 0.987202 1.9 0.503885 1.9 0 1.9-0.503885 1.69981-0.987202 1.3435-1.3435 0.987202-1.69981 0.503885-1.9 0-1.9-0.503885-1.9-0.987202-1.69981-1.3435-1.3435-1.69981-0.987202-1.9-0.503885-1.9 0-1.9 0.503885-1.69981 0.987202-1.3435 1.3435-0.987202 1.69981-0.503885 1.9 0 1.9Z" stroke="#FFFFFF" stroke-width="0.7125" stroke-linejoin="round" fill="#FF3333" transform="matrix(1.00146 0 0 1 597.267 277.665)"/><path d="M0 1.9C0.503885 1.9 0.987202 1.69981 1.3435 1.3435 1.69981 0.987202 1.9 0.503885 1.9 0 1.9-0.503885 1.69981-0.987202 1.3435-1.3435 0.987202-1.69981 0.503885-1.9 0-1.9-0.503885-1.9-0.987202-1.69981-1.3435-1.3435-1.69981-0.987202-1.9-0.503885-1.9 0-1.9 0.503885-1.69981 0.987202-1.3435 1.3435-0.987202 1.69981-0.503885 1.9 0 1.9Z" stroke="#FFFFFF" stroke-width="0.7125" stroke-linejoin="round" fill="#FF3333" transform="matrix(1.00146 0 0 1 630.301 275.039)"/></g><g><path d="M26.0276 24.8188 59.0131 106.709 91.9985 126.861 124.984 133.813 157.969 125.58 190.954 126.791 223.94 119.234 256.925 115.078" stroke="#00994D" stroke-width="1.1875" stroke-linecap="square" stroke-linejoin="round" fill="none" transform="matrix(1.00146 0 0 1 373 163)"/></g><g><path d="M-1.9 1.9 1.9 1.9 1.9-1.9-1.9-1.9Z" stroke="#FFFFFF" stroke-width="0.7125" fill="#00994D" transform="matrix(1.00146 0 0 1 399.066 187.819)"/><path d="M-1.9 1.9 1.9 1.9 1.9-1.9-1.9-1.9Z" stroke="#FFFFFF" stroke-width="0.7125" fill="#00994D" transform="matrix(1.00146 0 0 1 432.099 269.709)"/><path d="M-1.9 1.9 1.9 1.9 1.9-1.9-1.9-1.9Z" stroke="#FFFFFF" stroke-width="0.7125" fill="#00994D" transform="matrix(1.00146 0 0 1 465.133 289.861)"/><path d="M-1.9 1.9 1.9 1.9 1.9-1.9-1.9-1.9Z" stroke="#FFFFFF" stroke-width="0.7125" fill="#00994D" transform="matrix(1.00146 0 0 1 498.167 296.813)"/><path d="M-1.9 1.9 1.9 1.9 1.9-1.9-1.9-1.9Z" stroke="#FFFFFF" stroke-width="0.7125" fill="#00994D" transform="matrix(1.00146 0 0 1 531.2 288.581)"/><path d="M-1.9 1.9 1.9 1.9 1.9-1.9-1.9-1.9Z" stroke="#FFFFFF" stroke-width="0.7125" fill="#00994D" transform="matrix(1.00146 0 0 1 564.233 289.791)"/><path d="M-1.9 1.9 1.9 1.9 1.9-1.9-1.9-1.9Z" stroke="#FFFFFF" stroke-width="0.7125" fill="#00994D" transform="matrix(1.00146 0 0 1 597.267 282.234)"/><path d="M-1.9 1.9 1.9 1.9 1.9-1.9-1.9-1.9Z" stroke="#FFFFFF" stroke-width="0.7125" fill="#00994D" transform="matrix(1.00146 0 0 1 630.301 278.078)"/></g><g><path d="M26.0276 16.2019 59.0131 37.4194 91.9985 78.3797 124.984 93.0663 157.969 91.5591 190.954 90.4457 223.94 82.7559 256.925 75.135" stroke="#FF9900" stroke-width="1.1875" stroke-linecap="square" stroke-linejoin="round" fill="none" transform="matrix(1.00146 0 0 1 373 163)"/></g><g><path d="M0 2.687 2.687 0 0-2.687-2.687 0Z" stroke="#FFFFFF" stroke-width="0.7125" fill="#FF9900" transform="matrix(1.00146 0 0 1 399.066 179.202)"/><path d="M0 2.687 2.687 0 0-2.687-2.687 0Z" stroke="#FFFFFF" stroke-width="0.7125" fill="#FF9900" transform="matrix(1.00146 0 0 1 432.099 200.419)"/><path d="M0 2.687 2.687 0 0-2.687-2.687 0Z" stroke="#FFFFFF" stroke-width="0.7125" fill="#FF9900" transform="matrix(1.00146 0 0 1 465.133 241.38)"/><path d="M0 2.687 2.687 0 0-2.687-2.687 0Z" stroke="#FFFFFF" stroke-width="0.7125" fill="#FF9900" transform="matrix(1.00146 0 0 1 498.167 256.066)"/><path d="M0 2.687 2.687 0 0-2.687-2.687 0Z" stroke="#FFFFFF" stroke-width="0.7125" fill="#FF9900" transform="matrix(1.00146 0 0 1 531.2 254.559)"/><path d="M0 2.687 2.687 0 0-2.687-2.687 0Z" stroke="#FFFFFF" stroke-width="0.7125" fill="#FF9900" transform="matrix(1.00146 0 0 1 564.233 253.446)"/><path d="M0 2.687 2.687 0 0-2.687-2.687 0Z" stroke="#FFFFFF" stroke-width="0.7125" fill="#FF9900" transform="matrix(1.00146 0 0 1 597.267 245.756)"/><path d="M0 2.687 2.687 0 0-2.687-2.687 0Z" stroke="#FFFFFF" stroke-width="0.7125" fill="#FF9900" transform="matrix(1.00146 0 0 1 630.301 238.135)"/></g><g><path d="M26.0276 67.9084 59.0131 132.238 91.9985 144.532 124.984 146.291 157.969 149.763 190.954 150.186 223.94 150.541 256.925 150.82" stroke="#9933CC" stroke-width="1.1875" stroke-linecap="square" stroke-linejoin="round" fill="none" transform="matrix(1.00146 0 0 1 373 163)"/></g><g><path d="M0 1.9 1.9-1.9-1.9-1.9Z" stroke="#FFFFFF" stroke-width="0.7125" fill="#9933CC" transform="matrix(1.00146 0 0 1 399.066 230.908)"/><path d="M0 1.9 1.9-1.9-1.9-1.9Z" stroke="#FFFFFF" stroke-width="0.7125" fill="#9933CC" transform="matrix(1.00146 0 0 1 432.099 295.238)"/><path d="M0 1.9 1.9-1.9-1.9-1.9Z" stroke="#FFFFFF" stroke-width="0.7125" fill="#9933CC" transform="matrix(1.00146 0 0 1 465.133 307.532)"/><path d="M0 1.9 1.9-1.9-1.9-1.9Z" stroke="#FFFFFF" stroke-width="0.7125" fill="#9933CC" transform="matrix(1.00146 0 0 1 498.167 309.291)"/><path d="M0 1.9 1.9-1.9-1.9-1.9Z" stroke="#FFFFFF" stroke-width="0.7125" fill="#9933CC" transform="matrix(1.00146 0 0 1 531.2 312.763)"/><path d="M0 1.9 1.9-1.9-1.9-1.9Z" stroke="#FFFFFF" stroke-width="0.7125" fill="#9933CC" transform="matrix(1.00146 0 0 1 564.233 313.185)"/><path d="M0 1.9 1.9-1.9-1.9-1.9Z" stroke="#FFFFFF" stroke-width="0.7125" fill="#9933CC" transform="matrix(1.00146 0 0 1 597.267 313.541)"/><path d="M0 1.9 1.9-1.9-1.9-1.9Z" stroke="#FFFFFF" stroke-width="0.7125" fill="#9933CC" transform="matrix(1.00146 0 0 1 630.301 313.82)"/></g><g><path d="M26.0276 138.771 256.925 138.771" stroke="#0066CC" stroke-width="1.1875" stroke-linejoin="round" stroke-dasharray="4.39375 1.9" stroke-opacity="0.8" fill="none" transform="matrix(1.00146 0 0 1 373 163)"/></g><g><path d="M26.0276 137.484 256.925 137.484" stroke="#0099CC" stroke-width="1.1875" stroke-linejoin="round" stroke-dasharray="4.39375 1.9" stroke-opacity="0.8" fill="none" transform="matrix(1.00146 0 0 1 373 163)"/></g><g><path d="M26.0276 131.842 256.925 131.842" stroke="#FF3399" stroke-width="1.1875" stroke-linejoin="round" stroke-dasharray="4.39375 1.9" stroke-opacity="0.8" fill="none" transform="matrix(1.00146 0 0 1 373 163)"/></g><g><path d="M26.0276 131.419 256.925 131.419" stroke="#CCCC00" stroke-width="1.1875" stroke-linejoin="round" stroke-dasharray="4.39375 1.9" stroke-opacity="0.8" fill="none" transform="matrix(1.00146 0 0 1 373 163)"/></g><path d="M14.4827 157.757 14.4827 5.13" stroke="#000000" stroke-width="0.7125" stroke-linecap="square" fill="none" transform="matrix(1.00146 0 0 1 373 163)"/><path d="M268.47 157.757 268.47 5.13" stroke="#000000" stroke-width="0.7125" stroke-linecap="square" fill="none" transform="matrix(1.00146 0 0 1 373 163)"/><path d="M14.4827 157.757 268.47 157.757" stroke="#000000" stroke-width="0.7125" stroke-linecap="square" fill="none" transform="matrix(1.00146 0 0 1 373 163)"/><path d="M14.4827 5.13 268.47 5.13" stroke="#000000" stroke-width="0.7125" stroke-linecap="square" fill="none" transform="matrix(1.00146 0 0 1 373 163)"/></g></g></g><g><g><g><g><path d="M26.9647 157.988 26.9647 6.69835" stroke="#808080" stroke-width="0.380556" stroke-linejoin="round" stroke-dasharray="0.380556 0.627917" stroke-opacity="0.4" fill="none" transform="matrix(1 0 0 1.00438 684 159)"/></g><path d="M0 0 0 1.66493" stroke="#000000" stroke-width="0.380556" stroke-linejoin="round" fill="none" transform="matrix(1 0 0 1.00438 710.965 317.68)"/><text font-family="Verdana,Verdana_MSFontService,sans-serif" font-weight="400" font-size="10" transform="matrix(0.475694 0 0 0.477778 709.453 325)">1</text><g><path d="M59.8761 157.988 59.8761 6.69835" stroke="#808080" stroke-width="0.380556" stroke-linejoin="round" stroke-dasharray="0.380556 0.627917" stroke-opacity="0.4" fill="none" transform="matrix(1 0 0 1.00438 684 159)"/></g><path d="M0 0 0 1.66493" stroke="#000000" stroke-width="0.380556" stroke-linejoin="round" fill="none" transform="matrix(1 0 0 1.00438 743.876 317.68)"/><text font-family="Verdana,Verdana_MSFontService,sans-serif" font-weight="400" font-size="10" transform="matrix(0.475694 0 0 0.477778 742.364 325)">2</text><g><path d="M92.7871 157.988 92.7871 6.69835" stroke="#808080" stroke-width="0.380556" stroke-linejoin="round" stroke-dasharray="0.380556 0.627917" stroke-opacity="0.4" fill="none" transform="matrix(1 0 0 1.00438 684 159)"/></g><path d="M0 0 0 1.66493" stroke="#000000" stroke-width="0.380556" stroke-linejoin="round" fill="none" transform="matrix(1 0 0 1.00438 776.787 317.68)"/><text font-family="Verdana,Verdana_MSFontService,sans-serif" font-weight="400" font-size="10" transform="matrix(0.475694 0 0 0.477778 775.275 325)">3</text><g><path d="M125.698 157.988 125.698 6.69835" stroke="#808080" stroke-width="0.380556" stroke-linejoin="round" stroke-dasharray="0.380556 0.627917" stroke-opacity="0.4" fill="none" transform="matrix(1 0 0 1.00438 684 159)"/></g><path d="M0 0 0 1.66493" stroke="#000000" stroke-width="0.380556" stroke-linejoin="round" fill="none" transform="matrix(1 0 0 1.00438 809.698 317.68)"/><text font-family="Verdana,Verdana_MSFontService,sans-serif" font-weight="400" font-size="10" transform="matrix(0.475694 0 0 0.477778 808.186 325)">4</text><g><path d="M158.61 157.988 158.61 6.69835" stroke="#808080" stroke-width="0.380556" stroke-linejoin="round" stroke-dasharray="0.380556 0.627917" stroke-opacity="0.4" fill="none" transform="matrix(1 0 0 1.00438 684 159)"/></g><path d="M0 0 0 1.66493" stroke="#000000" stroke-width="0.380556" stroke-linejoin="round" fill="none" transform="matrix(1 0 0 1.00438 842.61 317.68)"/><text font-family="Verdana,Verdana_MSFontService,sans-serif" font-weight="400" font-size="10" transform="matrix(0.475694 0 0 0.477778 841.098 325)">5</text><g><path d="M191.521 157.988 191.521 6.69835" stroke="#808080" stroke-width="0.380556" stroke-linejoin="round" stroke-dasharray="0.380556 0.627917" stroke-opacity="0.4" fill="none" transform="matrix(1 0 0 1.00438 684 159)"/></g><path d="M0 0 0 1.66493" stroke="#000000" stroke-width="0.380556" stroke-linejoin="round" fill="none" transform="matrix(1 0 0 1.00438 875.521 317.68)"/><text font-family="Verdana,Verdana_MSFontService,sans-serif" font-weight="400" font-size="10" transform="matrix(0.475694 0 0 0.477778 874.009 325)">6</text><g><path d="M224.432 157.988 224.432 6.69835" stroke="#808080" stroke-width="0.380556" stroke-linejoin="round" stroke-dasharray="0.380556 0.627917" stroke-opacity="0.4" fill="none" transform="matrix(1 0 0 1.00438 684 159)"/></g><path d="M0 0 0 1.66493" stroke="#000000" stroke-width="0.380556" stroke-linejoin="round" fill="none" transform="matrix(1 0 0 1.00438 908.432 317.68)"/><text font-family="Verdana,Verdana_MSFontService,sans-serif" font-weight="400" font-size="10" transform="matrix(0.475694 0 0 0.477778 906.92 325)">7</text><g><path d="M257.344 157.988 257.344 6.69835" stroke="#808080" stroke-width="0.380556" stroke-linejoin="round" stroke-dasharray="0.380556 0.627917" stroke-opacity="0.4" fill="none" transform="matrix(1 0 0 1.00438 684 159)"/></g><path d="M0 0 0 1.66493" stroke="#000000" stroke-width="0.380556" stroke-linejoin="round" fill="none" transform="matrix(1 0 0 1.00438 941.344 317.68)"/><text font-family="Verdana,Verdana_MSFontService,sans-serif" font-weight="400" font-size="10" transform="matrix(0.475694 0 0 0.477778 939.831 325)">8</text><g><path d="M15.4458 151.653 268.863 151.653" stroke="#808080" stroke-width="0.380556" stroke-linejoin="round" stroke-dasharray="0.380556 0.627917" stroke-opacity="0.4" fill="none" transform="matrix(1 0 0 1.00438 684 159)"/></g><path d="M0 0-1.66493 0" stroke="#000000" stroke-width="0.380556" stroke-linejoin="round" fill="none" transform="matrix(1 0 0 1.00438 699.446 311.317)"/><text font-family="Verdana,Verdana_MSFontService,sans-serif" font-weight="400" font-size="10" transform="matrix(0.475694 0 0 0.477778 689.199 313)"></text><text font-family="Verdana,Verdana_MSFontService,sans-serif" font-weight="400" font-size="10" transform="matrix(0.475694 0 0 0.477778 693.092 313)">5</text><g><path d="M15.4458 133.58 268.863 133.58" stroke="#808080" stroke-width="0.380556" stroke-linejoin="round" stroke-dasharray="0.380556 0.627917" stroke-opacity="0.4" fill="none" transform="matrix(1 0 0 1.00438 684 159)"/></g><path d="M0 0-1.66493 0" stroke="#000000" stroke-width="0.380556" stroke-linejoin="round" fill="none" transform="matrix(1 0 0 1.00438 699.446 293.165)"/><text font-family="Verdana,Verdana_MSFontService,sans-serif" font-weight="400" font-size="10" transform="matrix(0.475694 0 0 0.477778 693.092 295)">0</text><g><path d="M15.4458 115.507 268.863 115.507" stroke="#808080" stroke-width="0.380556" stroke-linejoin="round" stroke-dasharray="0.380556 0.627917" stroke-opacity="0.4" fill="none" transform="matrix(1 0 0 1.00438 684 159)"/></g><path d="M0 0-1.66493 0" stroke="#000000" stroke-width="0.380556" stroke-linejoin="round" fill="none" transform="matrix(1 0 0 1.00438 699.446 275.013)"/><text font-family="Verdana,Verdana_MSFontService,sans-serif" font-weight="400" font-size="10" transform="matrix(0.475694 0 0 0.477778 693.092 277)">5</text><g><path d="M15.4458 97.4341 268.863 97.4341" stroke="#808080" stroke-width="0.380556" stroke-linejoin="round" stroke-dasharray="0.380556 0.627917" stroke-opacity="0.4" fill="none" transform="matrix(1 0 0 1.00438 684 159)"/></g><path d="M0 0-1.66493 0" stroke="#000000" stroke-width="0.380556" stroke-linejoin="round" fill="none" transform="matrix(1 0 0 1.00438 699.446 256.861)"/><text font-family="Verdana,Verdana_MSFontService,sans-serif" font-weight="400" font-size="10" transform="matrix(0.475694 0 0 0.477778 690.068 259)">10</text><g><path d="M15.4458 79.3611 268.863 79.3611" stroke="#808080" stroke-width="0.380556" stroke-linejoin="round" stroke-dasharray="0.380556 0.627917" stroke-opacity="0.4" fill="none" transform="matrix(1 0 0 1.00438 684 159)"/></g><path d="M0 0-1.66493 0" stroke="#000000" stroke-width="0.380556" stroke-linejoin="round" fill="none" transform="matrix(1 0 0 1.00438 699.446 238.709)"/><text font-family="Verdana,Verdana_MSFontService,sans-serif" font-weight="400" font-size="10" transform="matrix(0.475694 0 0 0.477778 690.068 241)">15</text><g><path d="M15.4458 61.288 268.863 61.288" stroke="#808080" stroke-width="0.380556" stroke-linejoin="round" stroke-dasharray="0.380556 0.627917" stroke-opacity="0.4" fill="none" transform="matrix(1 0 0 1.00438 684 159)"/></g><path d="M0 0-1.66493 0" stroke="#000000" stroke-width="0.380556" stroke-linejoin="round" fill="none" transform="matrix(1 0 0 1.00438 699.446 220.556)"/><text font-family="Verdana,Verdana_MSFontService,sans-serif" font-weight="400" font-size="10" transform="matrix(0.475694 0 0 0.477778 690.068 222)">20</text><g><path d="M15.4458 43.2149 268.863 43.2149" stroke="#808080" stroke-width="0.380556" stroke-linejoin="round" stroke-dasharray="0.380556 0.627917" stroke-opacity="0.4" fill="none" transform="matrix(1 0 0 1.00438 684 159)"/></g><path d="M0 0-1.66493 0" stroke="#000000" stroke-width="0.380556" stroke-linejoin="round" fill="none" transform="matrix(1 0 0 1.00438 699.446 202.404)"/><text font-family="Verdana,Verdana_MSFontService,sans-serif" font-weight="400" font-size="10" transform="matrix(0.475694 0 0 0.477778 690.068 204)">25</text><g><path d="M15.4458 25.1418 268.863 25.1418" stroke="#808080" stroke-width="0.380556" stroke-linejoin="round" stroke-dasharray="0.380556 0.627917" stroke-opacity="0.4" fill="none" transform="matrix(1 0 0 1.00438 684 159)"/></g><path d="M0 0-1.66493 0" stroke="#000000" stroke-width="0.380556" stroke-linejoin="round" fill="none" transform="matrix(1 0 0 1.00438 699.446 184.252)"/><text font-family="Verdana,Verdana_MSFontService,sans-serif" font-weight="400" font-size="10" transform="matrix(0.475694 0 0 0.477778 690.068 186)">30</text><g><path d="M15.4458 7.06882 268.863 7.06882" stroke="#808080" stroke-width="0.380556" stroke-linejoin="round" stroke-dasharray="0.380556 0.627917" stroke-opacity="0.4" fill="none" transform="matrix(1 0 0 1.00438 684 159)"/></g><path d="M0 0-1.66493 0" stroke="#000000" stroke-width="0.380556" stroke-linejoin="round" fill="none" transform="matrix(1 0 0 1.00438 699.446 166.1)"/><text font-family="Verdana,Verdana_MSFontService,sans-serif" font-weight="400" font-size="10" transform="matrix(0.475694 0 0 0.477778 690.068 168)">35</text><g><path d="M26.9647 49.1792 59.8761 87.1325 92.7871 54.6007 125.698 66.71 158.61 98.1567 191.521 140.086 224.432 147.315 257.344 151.111" stroke="#FF3333" stroke-width="1.18924" stroke-linecap="square" stroke-linejoin="round" fill="none" transform="matrix(1 0 0 1.00438 684 159)"/></g><g><path d="M0 1.90278C0.504621 1.90278 0.988645 1.70229 1.34547 1.34547 1.70229 0.988645 1.90278 0.504621 1.90278 0 1.90278-0.504621 1.70229-0.988645 1.34547-1.34547 0.988645-1.70229 0.504621-1.90278 0-1.90278-0.504621-1.90278-0.988645-1.70229-1.34547-1.34547-1.70229-0.988645-1.90278-0.504621-1.90278 0-1.90278 0.504621-1.70229 0.988645-1.34547 1.34547-0.988645 1.70229-0.504621 1.90278 0 1.90278Z" stroke="#FFFFFF" stroke-width="0.713542" stroke-linejoin="round" fill="#FF3333" transform="matrix(1 0 0 1.00438 710.965 208.395)"/><path d="M0 1.90278C0.504621 1.90278 0.988645 1.70229 1.34547 1.34547 1.70229 0.988645 1.90278 0.504621 1.90278 0 1.90278-0.504621 1.70229-0.988645 1.34547-1.34547 0.988645-1.70229 0.504621-1.90278 0-1.90278-0.504621-1.90278-0.988645-1.70229-1.34547-1.34547-1.70229-0.988645-1.90278-0.504621-1.90278 0-1.90278 0.504621-1.70229 0.988645-1.34547 1.34547-0.988645 1.70229-0.504621 1.90278 0 1.90278Z" stroke="#FFFFFF" stroke-width="0.713542" stroke-linejoin="round" fill="#FF3333" transform="matrix(1 0 0 1.00438 743.876 246.514)"/><path d="M0 1.90278C0.504621 1.90278 0.988645 1.70229 1.34547 1.34547 1.70229 0.988645 1.90278 0.504621 1.90278 0 1.90278-0.504621 1.70229-0.988645 1.34547-1.34547 0.988645-1.70229 0.504621-1.90278 0-1.90278-0.504621-1.90278-0.988645-1.70229-1.34547-1.34547-1.70229-0.988645-1.90278-0.504621-1.90278 0-1.90278 0.504621-1.70229 0.988645-1.34547 1.34547-0.988645 1.70229-0.504621 1.90278 0 1.90278Z" stroke="#FFFFFF" stroke-width="0.713542" stroke-linejoin="round" fill="#FF3333" transform="matrix(1 0 0 1.00438 776.787 213.84)"/><path d="M0 1.90278C0.504621 1.90278 0.988645 1.70229 1.34547 1.34547 1.70229 0.988645 1.90278 0.504621 1.90278 0 1.90278-0.504621 1.70229-0.988645 1.34547-1.34547 0.988645-1.70229 0.504621-1.90278 0-1.90278-0.504621-1.90278-0.988645-1.70229-1.34547-1.34547-1.70229-0.988645-1.90278-0.504621-1.90278 0-1.90278 0.504621-1.70229 0.988645-1.34547 1.34547-0.988645 1.70229-0.504621 1.90278 0 1.90278Z" stroke="#FFFFFF" stroke-width="0.713542" stroke-linejoin="round" fill="#FF3333" transform="matrix(1 0 0 1.00438 809.698 226.002)"/><path d="M0 1.90278C0.504621 1.90278 0.988645 1.70229 1.34547 1.34547 1.70229 0.988645 1.90278 0.504621 1.90278 0 1.90278-0.504621 1.70229-0.988645 1.34547-1.34547 0.988645-1.70229 0.504621-1.90278 0-1.90278-0.504621-1.90278-0.988645-1.70229-1.34547-1.34547-1.70229-0.988645-1.90278-0.504621-1.90278 0-1.90278 0.504621-1.70229 0.988645-1.34547 1.34547-0.988645 1.70229-0.504621 1.90278 0 1.90278Z" stroke="#FFFFFF" stroke-width="0.713542" stroke-linejoin="round" fill="#FF3333" transform="matrix(1 0 0 1.00438 842.61 257.587)"/><path d="M0 1.90278C0.504621 1.90278 0.988645 1.70229 1.34547 1.34547 1.70229 0.988645 1.90278 0.504621 1.90278 0 1.90278-0.504621 1.70229-0.988645 1.34547-1.34547 0.988645-1.70229 0.504621-1.90278 0-1.90278-0.504621-1.90278-0.988645-1.70229-1.34547-1.34547-1.70229-0.988645-1.90278-0.504621-1.90278 0-1.90278 0.504621-1.70229 0.988645-1.34547 1.34547-0.988645 1.70229-0.504621 1.90278 0 1.90278Z" stroke="#FFFFFF" stroke-width="0.713542" stroke-linejoin="round" fill="#FF3333" transform="matrix(1 0 0 1.00438 875.521 299.7)"/><path d="M0 1.90278C0.504621 1.90278 0.988645 1.70229 1.34547 1.34547 1.70229 0.988645 1.90278 0.504621 1.90278 0 1.90278-0.504621 1.70229-0.988645 1.34547-1.34547 0.988645-1.70229 0.504621-1.90278 0-1.90278-0.504621-1.90278-0.988645-1.70229-1.34547-1.34547-1.70229-0.988645-1.90278-0.504621-1.90278 0-1.90278 0.504621-1.70229 0.988645-1.34547 1.34547-0.988645 1.70229-0.504621 1.90278 0 1.90278Z" stroke="#FFFFFF" stroke-width="0.713542" stroke-linejoin="round" fill="#FF3333" transform="matrix(1 0 0 1.00438 908.432 306.961)"/><path d="M0 1.90278C0.504621 1.90278 0.988645 1.70229 1.34547 1.34547 1.70229 0.988645 1.90278 0.504621 1.90278 0 1.90278-0.504621 1.70229-0.988645 1.34547-1.34547 0.988645-1.70229 0.504621-1.90278 0-1.90278-0.504621-1.90278-0.988645-1.70229-1.34547-1.34547-1.70229-0.988645-1.90278-0.504621-1.90278 0-1.90278 0.504621-1.70229 0.988645-1.34547 1.34547-0.988645 1.70229-0.504621 1.90278 0 1.90278Z" stroke="#FFFFFF" stroke-width="0.713542" stroke-linejoin="round" fill="#FF3333" transform="matrix(1 0 0 1.00438 941.344 310.773)"/></g><g><path d="M26.9647 46.1065 59.8761 56.2276 92.7871 78.638 125.698 74.1199 158.61 69.9628 191.521 97.6149 224.432 89.1204 257.344 98.8798" stroke="#00994D" stroke-width="1.18924" stroke-linecap="square" stroke-linejoin="round" fill="none" transform="matrix(1 0 0 1.00438 684 159)"/></g><g><path d="M-1.90278 1.90278 1.90278 1.90278 1.90278-1.90278-1.90278-1.90278Z" stroke="#FFFFFF" stroke-width="0.713542" fill="#00994D" transform="matrix(1 0 0 1.00438 710.965 205.308)"/><path d="M-1.90278 1.90278 1.90278 1.90278 1.90278-1.90278-1.90278-1.90278Z" stroke="#FFFFFF" stroke-width="0.713542" fill="#00994D" transform="matrix(1 0 0 1.00438 743.876 215.474)"/><path d="M-1.90278 1.90278 1.90278 1.90278 1.90278-1.90278-1.90278-1.90278Z" stroke="#FFFFFF" stroke-width="0.713542" fill="#00994D" transform="matrix(1 0 0 1.00438 776.787 237.982)"/><path d="M-1.90278 1.90278 1.90278 1.90278 1.90278-1.90278-1.90278-1.90278Z" stroke="#FFFFFF" stroke-width="0.713542" fill="#00994D" transform="matrix(1 0 0 1.00438 809.698 233.444)"/><path d="M-1.90278 1.90278 1.90278 1.90278 1.90278-1.90278-1.90278-1.90278Z" stroke="#FFFFFF" stroke-width="0.713542" fill="#00994D" transform="matrix(1 0 0 1.00438 842.61 229.269)"/><path d="M-1.90278 1.90278 1.90278 1.90278 1.90278-1.90278-1.90278-1.90278Z" stroke="#FFFFFF" stroke-width="0.713542" fill="#00994D" transform="matrix(1 0 0 1.00438 875.521 257.042)"/><path d="M-1.90278 1.90278 1.90278 1.90278 1.90278-1.90278-1.90278-1.90278Z" stroke="#FFFFFF" stroke-width="0.713542" fill="#00994D" transform="matrix(1 0 0 1.00438 908.432 248.511)"/><path d="M-1.90278 1.90278 1.90278 1.90278 1.90278-1.90278-1.90278-1.90278Z" stroke="#FFFFFF" stroke-width="0.713542" fill="#00994D" transform="matrix(1 0 0 1.00438 941.344 258.313)"/></g><g><path d="M26.9647 49.1792 59.8761 106.47 92.7871 76.4693 125.698 58.0347 158.61 59.8419 191.521 58.9385 224.432 59.4808 257.344 58.3963" stroke="#FF9900" stroke-width="1.18924" stroke-linecap="square" stroke-linejoin="round" fill="none" transform="matrix(1 0 0 1.00438 684 159)"/></g><g><path d="M0 2.69093 2.69093 0 0-2.69093-2.69093 0Z" stroke="#FFFFFF" stroke-width="0.713542" fill="#FF9900" transform="matrix(1 0 0 1.00438 710.965 208.395)"/><path d="M0 2.69093 2.69093 0 0-2.69093-2.69093 0Z" stroke="#FFFFFF" stroke-width="0.713542" fill="#FF9900" transform="matrix(1 0 0 1.00438 743.876 265.937)"/><path d="M0 2.69093 2.69093 0 0-2.69093-2.69093 0Z" stroke="#FFFFFF" stroke-width="0.713542" fill="#FF9900" transform="matrix(1 0 0 1.00438 776.787 235.804)"/><path d="M0 2.69093 2.69093 0 0-2.69093-2.69093 0Z" stroke="#FFFFFF" stroke-width="0.713542" fill="#FF9900" transform="matrix(1 0 0 1.00438 809.698 217.289)"/><path d="M0 2.69093 2.69093 0 0-2.69093-2.69093 0Z" stroke="#FFFFFF" stroke-width="0.713542" fill="#FF9900" transform="matrix(1 0 0 1.00438 842.61 219.104)"/><path d="M0 2.69093 2.69093 0 0-2.69093-2.69093 0Z" stroke="#FFFFFF" stroke-width="0.713542" fill="#FF9900" transform="matrix(1 0 0 1.00438 875.521 218.197)"/><path d="M0 2.69093 2.69093 0 0-2.69093-2.69093 0Z" stroke="#FFFFFF" stroke-width="0.713542" fill="#FF9900" transform="matrix(1 0 0 1.00438 908.432 218.741)"/><path d="M0 2.69093 2.69093 0 0-2.69093-2.69093 0Z" stroke="#FFFFFF" stroke-width="0.713542" fill="#FF9900" transform="matrix(1 0 0 1.00438 941.344 217.652)"/></g><g><path d="M26.9647 33.4554 59.8761 41.0461 92.7871 46.6487 125.698 50.9864 158.61 57.4924 191.521 58.3963 224.432 64.5413 257.344 62.7336" stroke="#9933CC" stroke-width="1.18924" stroke-linecap="square" stroke-linejoin="round" fill="none" transform="matrix(1 0 0 1.00438 684 159)"/></g><g><path d="M0 1.90278 1.90278-1.90278-1.90278-1.90278Z" stroke="#FFFFFF" stroke-width="0.713542" fill="#9933CC" transform="matrix(1 0 0 1.00438 710.965 192.602)"/><path d="M0 1.90278 1.90278-1.90278-1.90278-1.90278Z" stroke="#FFFFFF" stroke-width="0.713542" fill="#9933CC" transform="matrix(1 0 0 1.00438 743.876 200.226)"/><path d="M0 1.90278 1.90278-1.90278-1.90278-1.90278Z" stroke="#FFFFFF" stroke-width="0.713542" fill="#9933CC" transform="matrix(1 0 0 1.00438 776.787 205.853)"/><path d="M0 1.90278 1.90278-1.90278-1.90278-1.90278Z" stroke="#FFFFFF" stroke-width="0.713542" fill="#9933CC" transform="matrix(1 0 0 1.00438 809.698 210.21)"/><path d="M0 1.90278 1.90278-1.90278-1.90278-1.90278Z" stroke="#FFFFFF" stroke-width="0.713542" fill="#9933CC" transform="matrix(1 0 0 1.00438 842.61 216.744)"/><path d="M0 1.90278 1.90278-1.90278-1.90278-1.90278Z" stroke="#FFFFFF" stroke-width="0.713542" fill="#9933CC" transform="matrix(1 0 0 1.00438 875.521 217.652)"/><path d="M0 1.90278 1.90278-1.90278-1.90278-1.90278Z" stroke="#FFFFFF" stroke-width="0.713542" fill="#9933CC" transform="matrix(1 0 0 1.00438 908.432 223.824)"/><path d="M0 1.90278 1.90278-1.90278-1.90278-1.90278Z" stroke="#FFFFFF" stroke-width="0.713542" fill="#9933CC" transform="matrix(1 0 0 1.00438 941.344 222.008)"/></g><g><path d="M26.9647 13.5751 257.344 13.5751" stroke="#0066CC" stroke-width="1.18924" stroke-linejoin="round" stroke-dasharray="4.40017 1.90278" stroke-opacity="0.8" fill="none" transform="matrix(1 0 0 1.00438 684 159)"/></g><g><path d="M26.9647 53.5166 257.344 53.5166" stroke="#0099CC" stroke-width="1.18924" stroke-linejoin="round" stroke-dasharray="4.40017 1.90278" stroke-opacity="0.8" fill="none" transform="matrix(1 0 0 1.00438 684 159)"/></g><g><path d="M26.9647 105.206 257.344 105.206" stroke="#FF3399" stroke-width="1.18924" stroke-linejoin="round" stroke-dasharray="4.40017 1.90278" stroke-opacity="0.8" fill="none" transform="matrix(1 0 0 1.00438 684 159)"/></g><g><path d="M26.9647 49.9018 257.344 49.9018" stroke="#CCCC00" stroke-width="1.18924" stroke-linejoin="round" stroke-dasharray="4.40017 1.90278" stroke-opacity="0.8" fill="none" transform="matrix(1 0 0 1.00438 684 159)"/></g><path d="M15.4458 157.988 15.4458 6.69835" stroke="#000000" stroke-width="0.713542" stroke-linecap="square" fill="none" transform="matrix(1 0 0 1.00438 684 159)"/><path d="M268.863 157.988 268.863 6.69835" stroke="#000000" stroke-width="0.713542" stroke-linecap="square" fill="none" transform="matrix(1 0 0 1.00438 684 159)"/><path d="M15.4458 157.988 268.863 157.988" stroke="#000000" stroke-width="0.713542" stroke-linecap="square" fill="none" transform="matrix(1 0 0 1.00438 684 159)"/><path d="M15.4458 6.69835 268.863 6.69835" stroke="#000000" stroke-width="0.713542" stroke-linecap="square" fill="none" transform="matrix(1 0 0 1.00438 684 159)"/></g></g></g><g><g><g><g><path d="M29.8226 157.757 29.8226 5.13" stroke="#808080" stroke-width="0.38" stroke-linejoin="round" stroke-dasharray="0.38 0.627" stroke-opacity="0.4" fill="none" transform="matrix(1.00146 0 0 1 99 163)"/></g><path d="M0 0 0 1.6625" stroke="#000000" stroke-width="0.38" stroke-linejoin="round" fill="none" transform="matrix(1.00146 0 0 1 128.866 320.757)"/><text font-family="Verdana,Verdana_MSFontService,sans-serif" font-weight="400" font-size="10" transform="matrix(0.475694 0 0 0.475 127.354 328)">1</text><g><path d="M62.2915 157.757 62.2915 5.13" stroke="#808080" stroke-width="0.38" stroke-linejoin="round" stroke-dasharray="0.38 0.627" stroke-opacity="0.4" fill="none" transform="matrix(1.00146 0 0 1 99 163)"/></g><path d="M0 0 0 1.6625" stroke="#000000" stroke-width="0.38" stroke-linejoin="round" fill="none" transform="matrix(1.00146 0 0 1 161.383 320.757)"/><text font-family="Verdana,Verdana_MSFontService,sans-serif" font-weight="400" font-size="10" transform="matrix(0.475694 0 0 0.475 159.87 328)">2</text><g><path d="M94.7606 157.757 94.7606 5.13" stroke="#808080" stroke-width="0.38" stroke-linejoin="round" stroke-dasharray="0.38 0.627" stroke-opacity="0.4" fill="none" transform="matrix(1.00146 0 0 1 99 163)"/></g><path d="M0 0 0 1.6625" stroke="#000000" stroke-width="0.38" stroke-linejoin="round" fill="none" transform="matrix(1.00146 0 0 1 193.899 320.757)"/><text font-family="Verdana,Verdana_MSFontService,sans-serif" font-weight="400" font-size="10" transform="matrix(0.475694 0 0 0.475 192.387 328)">3</text><g><path d="M127.23 157.757 127.23 5.13" stroke="#808080" stroke-width="0.38" stroke-linejoin="round" stroke-dasharray="0.38 0.627" stroke-opacity="0.4" fill="none" transform="matrix(1.00146 0 0 1 99 163)"/></g><path d="M0 0 0 1.6625" stroke="#000000" stroke-width="0.38" stroke-linejoin="round" fill="none" transform="matrix(1.00146 0 0 1 226.416 320.757)"/><text font-family="Verdana,Verdana_MSFontService,sans-serif" font-weight="400" font-size="10" transform="matrix(0.475694 0 0 0.475 224.904 328)">4</text><g><path d="M159.699 157.757 159.699 5.13" stroke="#808080" stroke-width="0.38" stroke-linejoin="round" stroke-dasharray="0.38 0.627" stroke-opacity="0.4" fill="none" transform="matrix(1.00146 0 0 1 99 163)"/></g><path d="M0 0 0 1.6625" stroke="#000000" stroke-width="0.38" stroke-linejoin="round" fill="none" transform="matrix(1.00146 0 0 1 258.932 320.757)"/><text font-family="Verdana,Verdana_MSFontService,sans-serif" font-weight="400" font-size="10" transform="matrix(0.475694 0 0 0.475 257.42 328)">5</text><g><path d="M192.168 157.757 192.168 5.13" stroke="#808080" stroke-width="0.38" stroke-linejoin="round" stroke-dasharray="0.38 0.627" stroke-opacity="0.4" fill="none" transform="matrix(1.00146 0 0 1 99 163)"/></g><path d="M0 0 0 1.6625" stroke="#000000" stroke-width="0.38" stroke-linejoin="round" fill="none" transform="matrix(1.00146 0 0 1 291.449 320.757)"/><text font-family="Verdana,Verdana_MSFontService,sans-serif" font-weight="400" font-size="10" transform="matrix(0.475694 0 0 0.475 289.937 328)">6</text><g><path d="M224.637 157.757 224.637 5.13" stroke="#808080" stroke-width="0.38" stroke-linejoin="round" stroke-dasharray="0.38 0.627" stroke-opacity="0.4" fill="none" transform="matrix(1.00146 0 0 1 99 163)"/></g><path d="M0 0 0 1.6625" stroke="#000000" stroke-width="0.38" stroke-linejoin="round" fill="none" transform="matrix(1.00146 0 0 1 323.965 320.757)"/><text font-family="Verdana,Verdana_MSFontService,sans-serif" font-weight="400" font-size="10" transform="matrix(0.475694 0 0 0.475 322.453 328)">7</text><g><path d="M257.106 157.757 257.106 5.13" stroke="#808080" stroke-width="0.38" stroke-linejoin="round" stroke-dasharray="0.38 0.627" stroke-opacity="0.4" fill="none" transform="matrix(1.00146 0 0 1 99 163)"/></g><path d="M0 0 0 1.6625" stroke="#000000" stroke-width="0.38" stroke-linejoin="round" fill="none" transform="matrix(1.00146 0 0 1 356.482 320.757)"/><text font-family="Verdana,Verdana_MSFontService,sans-serif" font-weight="400" font-size="10" transform="matrix(0.475694 0 0 0.475 354.969 328)">8</text><g><path d="M18.4585 141.382 268.47 141.382" stroke="#808080" stroke-width="0.38" stroke-linejoin="round" stroke-dasharray="0.38 0.627" stroke-opacity="0.4" fill="none" transform="matrix(1.00146 0 0 1 99 163)"/></g><path d="M0 0-1.6625 0" stroke="#000000" stroke-width="0.38" stroke-linejoin="round" fill="none" transform="matrix(1.00146 0 0 1 117.485 304.382)"/><text font-family="Verdana,Verdana_MSFontService,sans-serif" font-weight="400" font-size="10" transform="matrix(0.475694 0 0 0.475 104.214 306)"></text><text font-family="Verdana,Verdana_MSFontService,sans-serif" font-weight="400" font-size="10" transform="matrix(0.475694 0 0 0.475 108.107 306)">40</text><g><path d="M18.4585 120 268.47 120" stroke="#808080" stroke-width="0.38" stroke-linejoin="round" stroke-dasharray="0.38 0.627" stroke-opacity="0.4" fill="none" transform="matrix(1.00146 0 0 1 99 163)"/></g><path d="M0 0-1.6625 0" stroke="#000000" stroke-width="0.38" stroke-linejoin="round" fill="none" transform="matrix(1.00146 0 0 1 117.485 283)"/><text font-family="Verdana,Verdana_MSFontService,sans-serif" font-weight="400" font-size="10" transform="matrix(0.475694 0 0 0.475 104.214 285)"></text><text font-family="Verdana,Verdana_MSFontService,sans-serif" font-weight="400" font-size="10" transform="matrix(0.475694 0 0 0.475 108.107 285)">30</text><g><path d="M18.4585 98.6181 268.47 98.6181" stroke="#808080" stroke-width="0.38" stroke-linejoin="round" stroke-dasharray="0.38 0.627" stroke-opacity="0.4" fill="none" transform="matrix(1.00146 0 0 1 99 163)"/></g><path d="M0 0-1.6625 0" stroke="#000000" stroke-width="0.38" stroke-linejoin="round" fill="none" transform="matrix(1.00146 0 0 1 117.485 261.618)"/><text font-family="Verdana,Verdana_MSFontService,sans-serif" font-weight="400" font-size="10" transform="matrix(0.475694 0 0 0.475 104.214 263)"></text><text font-family="Verdana,Verdana_MSFontService,sans-serif" font-weight="400" font-size="10" transform="matrix(0.475694 0 0 0.475 108.107 263)">20</text><g><path d="M18.4585 77.236 268.47 77.236" stroke="#808080" stroke-width="0.38" stroke-linejoin="round" stroke-dasharray="0.38 0.627" stroke-opacity="0.4" fill="none" transform="matrix(1.00146 0 0 1 99 163)"/></g><path d="M0 0-1.6625 0" stroke="#000000" stroke-width="0.38" stroke-linejoin="round" fill="none" transform="matrix(1.00146 0 0 1 117.485 240.236)"/><text font-family="Verdana,Verdana_MSFontService,sans-serif" font-weight="400" font-size="10" transform="matrix(0.475694 0 0 0.475 104.214 242)"></text><text font-family="Verdana,Verdana_MSFontService,sans-serif" font-weight="400" font-size="10" transform="matrix(0.475694 0 0 0.475 108.107 242)">10</text><g><path d="M18.4585 55.8538 268.47 55.8538" stroke="#808080" stroke-width="0.38" stroke-linejoin="round" stroke-dasharray="0.38 0.627" stroke-opacity="0.4" fill="none" transform="matrix(1.00146 0 0 1 99 163)"/></g><path d="M0 0-1.6625 0" stroke="#000000" stroke-width="0.38" stroke-linejoin="round" fill="none" transform="matrix(1.00146 0 0 1 117.485 218.854)"/><text font-family="Verdana,Verdana_MSFontService,sans-serif" font-weight="400" font-size="10" transform="matrix(0.475694 0 0 0.475 111.131 221)">0</text><g><path d="M18.4585 34.4717 268.47 34.4717" stroke="#808080" stroke-width="0.38" stroke-linejoin="round" stroke-dasharray="0.38 0.627" stroke-opacity="0.4" fill="none" transform="matrix(1.00146 0 0 1 99 163)"/></g><path d="M0 0-1.6625 0" stroke="#000000" stroke-width="0.38" stroke-linejoin="round" fill="none" transform="matrix(1.00146 0 0 1 117.485 197.472)"/><text font-family="Verdana,Verdana_MSFontService,sans-serif" font-weight="400" font-size="10" transform="matrix(0.475694 0 0 0.475 108.107 199)">10</text><g><path d="M18.4585 13.0895 268.47 13.0895" stroke="#808080" stroke-width="0.38" stroke-linejoin="round" stroke-dasharray="0.38 0.627" stroke-opacity="0.4" fill="none" transform="matrix(1.00146 0 0 1 99 163)"/></g><path d="M0 0-1.6625 0" stroke="#000000" stroke-width="0.38" stroke-linejoin="round" fill="none" transform="matrix(1.00146 0 0 1 117.485 176.09)"/><text font-family="Verdana,Verdana_MSFontService,sans-serif" font-weight="400" font-size="10" transform="matrix(0.475694 0 0 0.475 108.107 178)">20</text><g><path d="M29.8226 32.8919 62.2915 43.4607 94.7606 37.9792 127.23 35.5632 159.699 40.1678 192.168 49.9999 224.637 53.4613 257.106 55.3237" stroke="#FF3333" stroke-width="1.1875" stroke-linecap="square" stroke-linejoin="round" fill="none" transform="matrix(1.00146 0 0 1 99 163)"/></g><g><path d="M0 1.9C0.503885 1.9 0.987202 1.69981 1.3435 1.3435 1.69981 0.987202 1.9 0.503885 1.9 0 1.9-0.503885 1.69981-0.987202 1.3435-1.3435 0.987202-1.69981 0.503885-1.9 0-1.9-0.503885-1.9-0.987202-1.69981-1.3435-1.3435-1.69981-0.987202-1.9-0.503885-1.9 0-1.9 0.503885-1.69981 0.987202-1.3435 1.3435-0.987202 1.69981-0.503885 1.9 0 1.9Z" stroke="#FFFFFF" stroke-width="0.7125" stroke-linejoin="round" fill="#FF3333" transform="matrix(1.00146 0 0 1 128.866 195.892)"/><path d="M0 1.9C0.503885 1.9 0.987202 1.69981 1.3435 1.3435 1.69981 0.987202 1.9 0.503885 1.9 0 1.9-0.503885 1.69981-0.987202 1.3435-1.3435 0.987202-1.69981 0.503885-1.9 0-1.9-0.503885-1.9-0.987202-1.69981-1.3435-1.3435-1.69981-0.987202-1.9-0.503885-1.9 0-1.9 0.503885-1.69981 0.987202-1.3435 1.3435-0.987202 1.69981-0.503885 1.9 0 1.9Z" stroke="#FFFFFF" stroke-width="0.7125" stroke-linejoin="round" fill="#FF3333" transform="matrix(1.00146 0 0 1 161.383 206.461)"/><path d="M0 1.9C0.503885 1.9 0.987202 1.69981 1.3435 1.3435 1.69981 0.987202 1.9 0.503885 1.9 0 1.9-0.503885 1.69981-0.987202 1.3435-1.3435 0.987202-1.69981 0.503885-1.9 0-1.9-0.503885-1.9-0.987202-1.69981-1.3435-1.3435-1.69981-0.987202-1.9-0.503885-1.9 0-1.9 0.503885-1.69981 0.987202-1.3435 1.3435-0.987202 1.69981-0.503885 1.9 0 1.9Z" stroke="#FFFFFF" stroke-width="0.7125" stroke-linejoin="round" fill="#FF3333" transform="matrix(1.00146 0 0 1 193.899 200.979)"/><path d="M0 1.9C0.503885 1.9 0.987202 1.69981 1.3435 1.3435 1.69981 0.987202 1.9 0.503885 1.9 0 1.9-0.503885 1.69981-0.987202 1.3435-1.3435 0.987202-1.69981 0.503885-1.9 0-1.9-0.503885-1.9-0.987202-1.69981-1.3435-1.3435-1.69981-0.987202-1.9-0.503885-1.9 0-1.9 0.503885-1.69981 0.987202-1.3435 1.3435-0.987202 1.69981-0.503885 1.9 0 1.9Z" stroke="#FFFFFF" stroke-width="0.7125" stroke-linejoin="round" fill="#FF3333" transform="matrix(1.00146 0 0 1 226.416 198.563)"/><path d="M0 1.9C0.503885 1.9 0.987202 1.69981 1.3435 1.3435 1.69981 0.987202 1.9 0.503885 1.9 0 1.9-0.503885 1.69981-0.987202 1.3435-1.3435 0.987202-1.69981 0.503885-1.9 0-1.9-0.503885-1.9-0.987202-1.69981-1.3435-1.3435-1.69981-0.987202-1.9-0.503885-1.9 0-1.9 0.503885-1.69981 0.987202-1.3435 1.3435-0.987202 1.69981-0.503885 1.9 0 1.9Z" stroke="#FFFFFF" stroke-width="0.7125" stroke-linejoin="round" fill="#FF3333" transform="matrix(1.00146 0 0 1 258.932 203.168)"/><path d="M0 1.9C0.503885 1.9 0.987202 1.69981 1.3435 1.3435 1.69981 0.987202 1.9 0.503885 1.9 0 1.9-0.503885 1.69981-0.987202 1.3435-1.3435 0.987202-1.69981 0.503885-1.9 0-1.9-0.503885-1.9-0.987202-1.69981-1.3435-1.3435-1.69981-0.987202-1.9-0.503885-1.9 0-1.9 0.503885-1.69981 0.987202-1.3435 1.3435-0.987202 1.69981-0.503885 1.9 0 1.9Z" stroke="#FFFFFF" stroke-width="0.7125" stroke-linejoin="round" fill="#FF3333" transform="matrix(1.00146 0 0 1 291.449 213)"/><path d="M0 1.9C0.503885 1.9 0.987202 1.69981 1.3435 1.3435 1.69981 0.987202 1.9 0.503885 1.9 0 1.9-0.503885 1.69981-0.987202 1.3435-1.3435 0.987202-1.69981 0.503885-1.9 0-1.9-0.503885-1.9-0.987202-1.69981-1.3435-1.3435-1.69981-0.987202-1.9-0.503885-1.9 0-1.9 0.503885-1.69981 0.987202-1.3435 1.3435-0.987202 1.69981-0.503885 1.9 0 1.9Z" stroke="#FFFFFF" stroke-width="0.7125" stroke-linejoin="round" fill="#FF3333" transform="matrix(1.00146 0 0 1 323.965 216.461)"/><path d="M0 1.9C0.503885 1.9 0.987202 1.69981 1.3435 1.3435 1.69981 0.987202 1.9 0.503885 1.9 0 1.9-0.503885 1.69981-0.987202 1.3435-1.3435 0.987202-1.69981 0.503885-1.9 0-1.9-0.503885-1.9-0.987202-1.69981-1.3435-1.3435-1.69981-0.987202-1.9-0.503885-1.9 0-1.9 0.503885-1.69981 0.987202-1.3435 1.3435-0.987202 1.69981-0.503885 1.9 0 1.9Z" stroke="#FFFFFF" stroke-width="0.7125" stroke-linejoin="round" fill="#FF3333" transform="matrix(1.00146 0 0 1 356.482 218.324)"/></g><g><path d="M29.8226 20.8522 62.2915 42.0275 94.7606 63.1788 127.23 74.8396 159.699 59.9607 192.168 74.1195 224.637 70.138 257.106 71.3407" stroke="#00994D" stroke-width="1.1875" stroke-linecap="square" stroke-linejoin="round" fill="none" transform="matrix(1.00146 0 0 1 99 163)"/></g><g><path d="M-1.9 1.9 1.9 1.9 1.9-1.9-1.9-1.9Z" stroke="#FFFFFF" stroke-width="0.7125" fill="#00994D" transform="matrix(1.00146 0 0 1 128.866 183.852)"/><path d="M-1.9 1.9 1.9 1.9 1.9-1.9-1.9-1.9Z" stroke="#FFFFFF" stroke-width="0.7125" fill="#00994D" transform="matrix(1.00146 0 0 1 161.383 205.028)"/><path d="M-1.9 1.9 1.9 1.9 1.9-1.9-1.9-1.9Z" stroke="#FFFFFF" stroke-width="0.7125" fill="#00994D" transform="matrix(1.00146 0 0 1 193.899 226.179)"/><path d="M-1.9 1.9 1.9 1.9 1.9-1.9-1.9-1.9Z" stroke="#FFFFFF" stroke-width="0.7125" fill="#00994D" transform="matrix(1.00146 0 0 1 226.416 237.84)"/><path d="M-1.9 1.9 1.9 1.9 1.9-1.9-1.9-1.9Z" stroke="#FFFFFF" stroke-width="0.7125" fill="#00994D" transform="matrix(1.00146 0 0 1 258.932 222.961)"/><path d="M-1.9 1.9 1.9 1.9 1.9-1.9-1.9-1.9Z" stroke="#FFFFFF" stroke-width="0.7125" fill="#00994D" transform="matrix(1.00146 0 0 1 291.449 237.119)"/><path d="M-1.9 1.9 1.9 1.9 1.9-1.9-1.9-1.9Z" stroke="#FFFFFF" stroke-width="0.7125" fill="#00994D" transform="matrix(1.00146 0 0 1 323.965 233.138)"/><path d="M-1.9 1.9 1.9 1.9 1.9-1.9-1.9-1.9Z" stroke="#FFFFFF" stroke-width="0.7125" fill="#00994D" transform="matrix(1.00146 0 0 1 356.482 234.341)"/></g><g><path d="M29.8226 16.9725 62.2915 49.0314 94.7606 42.9694 127.23 36.9878 159.699 36.358 192.168 36.2958 224.637 37.0951 257.106 36.6061" stroke="#FF9900" stroke-width="1.1875" stroke-linecap="square" stroke-linejoin="round" fill="none" transform="matrix(1.00146 0 0 1 99 163)"/></g><g><path d="M0 2.687 2.687 0 0-2.687-2.687 0Z" stroke="#FFFFFF" stroke-width="0.7125" fill="#FF9900" transform="matrix(1.00146 0 0 1 128.866 179.973)"/><path d="M0 2.687 2.687 0 0-2.687-2.687 0Z" stroke="#FFFFFF" stroke-width="0.7125" fill="#FF9900" transform="matrix(1.00146 0 0 1 161.383 212.031)"/><path d="M0 2.687 2.687 0 0-2.687-2.687 0Z" stroke="#FFFFFF" stroke-width="0.7125" fill="#FF9900" transform="matrix(1.00146 0 0 1 193.899 205.969)"/><path d="M0 2.687 2.687 0 0-2.687-2.687 0Z" stroke="#FFFFFF" stroke-width="0.7125" fill="#FF9900" transform="matrix(1.00146 0 0 1 226.416 199.988)"/><path d="M0 2.687 2.687 0 0-2.687-2.687 0Z" stroke="#FFFFFF" stroke-width="0.7125" fill="#FF9900" transform="matrix(1.00146 0 0 1 258.932 199.358)"/><path d="M0 2.687 2.687 0 0-2.687-2.687 0Z" stroke="#FFFFFF" stroke-width="0.7125" fill="#FF9900" transform="matrix(1.00146 0 0 1 291.449 199.296)"/><path d="M0 2.687 2.687 0 0-2.687-2.687 0Z" stroke="#FFFFFF" stroke-width="0.7125" fill="#FF9900" transform="matrix(1.00146 0 0 1 323.965 200.095)"/><path d="M0 2.687 2.687 0 0-2.687-2.687 0Z" stroke="#FFFFFF" stroke-width="0.7125" fill="#FF9900" transform="matrix(1.00146 0 0 1 356.482 199.606)"/></g><g><path d="M29.8226 12.0676 62.2915 43.1478 94.7606 52.5872 127.23 49.4541 159.699 44.559 192.168 43.5757 224.637 44.1272 257.106 44.4513" stroke="#9933CC" stroke-width="1.1875" stroke-linecap="square" stroke-linejoin="round" fill="none" transform="matrix(1.00146 0 0 1 99 163)"/></g><g><path d="M0 1.9 1.9-1.9-1.9-1.9Z" stroke="#FFFFFF" stroke-width="0.7125" fill="#9933CC" transform="matrix(1.00146 0 0 1 128.866 175.068)"/><path d="M0 1.9 1.9-1.9-1.9-1.9Z" stroke="#FFFFFF" stroke-width="0.7125" fill="#9933CC" transform="matrix(1.00146 0 0 1 161.383 206.148)"/><path d="M0 1.9 1.9-1.9-1.9-1.9Z" stroke="#FFFFFF" stroke-width="0.7125" fill="#9933CC" transform="matrix(1.00146 0 0 1 193.899 215.587)"/><path d="M0 1.9 1.9-1.9-1.9-1.9Z" stroke="#FFFFFF" stroke-width="0.7125" fill="#9933CC" transform="matrix(1.00146 0 0 1 226.416 212.454)"/><path d="M0 1.9 1.9-1.9-1.9-1.9Z" stroke="#FFFFFF" stroke-width="0.7125" fill="#9933CC" transform="matrix(1.00146 0 0 1 258.932 207.559)"/><path d="M0 1.9 1.9-1.9-1.9-1.9Z" stroke="#FFFFFF" stroke-width="0.7125" fill="#9933CC" transform="matrix(1.00146 0 0 1 291.449 206.576)"/><path d="M0 1.9 1.9-1.9-1.9-1.9Z" stroke="#FFFFFF" stroke-width="0.7125" fill="#9933CC" transform="matrix(1.00146 0 0 1 323.965 207.127)"/><path d="M0 1.9 1.9-1.9-1.9-1.9Z" stroke="#FFFFFF" stroke-width="0.7125" fill="#9933CC" transform="matrix(1.00146 0 0 1 356.482 207.451)"/></g><g><path d="M29.8226 34.2783 257.106 34.2783" stroke="#0066CC" stroke-width="1.1875" stroke-linejoin="round" stroke-dasharray="4.39375 1.9" stroke-opacity="0.8" fill="none" transform="matrix(1.00146 0 0 1 99 163)"/></g><g><path d="M29.8226 47.0568 257.106 47.0568" stroke="#0099CC" stroke-width="1.1875" stroke-linejoin="round" stroke-dasharray="4.39375 1.9" stroke-opacity="0.8" fill="none" transform="matrix(1.00146 0 0 1 99 163)"/></g><g><path d="M29.8226 150.82 257.106 150.82" stroke="#FF3399" stroke-width="1.1875" stroke-linejoin="round" stroke-dasharray="4.39375 1.9" stroke-opacity="0.8" fill="none" transform="matrix(1.00146 0 0 1 99 163)"/></g><g><path d="M29.8226 69.0113 257.106 69.0113" stroke="#CCCC00" stroke-width="1.1875" stroke-linejoin="round" stroke-dasharray="4.39375 1.9" stroke-opacity="0.8" fill="none" transform="matrix(1.00146 0 0 1 99 163)"/></g><path d="M18.4585 157.757 18.4585 5.13" stroke="#000000" stroke-width="0.7125" stroke-linecap="square" fill="none" transform="matrix(1.00146 0 0 1 99 163)"/><path d="M268.47 157.757 268.47 5.13" stroke="#000000" stroke-width="0.7125" stroke-linecap="square" fill="none" transform="matrix(1.00146 0 0 1 99 163)"/><path d="M18.4585 157.757 268.47 157.757" stroke="#000000" stroke-width="0.7125" stroke-linecap="square" fill="none" transform="matrix(1.00146 0 0 1 99 163)"/><path d="M18.4585 5.13 268.47 5.13" stroke="#000000" stroke-width="0.7125" stroke-linecap="square" fill="none" transform="matrix(1.00146 0 0 1 99 163)"/></g></g></g></g></svg>