<svg width="1280" height="310" viewBox="0 130 1280 310" xmlns="http://www.w3.org/2000/svg" xmlns:xlink="http://www.w3.org/1999/xlink" overflow="hidden"><g><rect x="0" y="0" width="1280" height="720" fill="#FFFFFF"/><text font-family="Sans Serif Collection,Sans Serif Collection_MSFontService,sans-serif" font-weight="400" font-size="16" transform="translate(184.373 348)">Looped Steps</text><text font-family="Sans Serif Collection,Sans Serif Collection_MSFontService,sans-serif" font-weight="400" font-size="16" transform="translate(458.773 348)">Looped Steps</text><text font-family="Sans Serif Collection,Sans Serif Collection_MSFontService,sans-serif" font-weight="400" font-size="16" transform="translate(769.344 348)">Looped Steps</text><text font-family="Sans Serif Collection,Sans Serif Collection_MSFontService,sans-serif" font-weight="400" font-size="16" transform="translate(1047.79 348)">Looped Steps</text><text font-family="Sans Serif Collection,Sans Serif Collection_MSFontService,sans-serif" font-weight="400" font-size="16" transform="matrix(-1.83697e-16 -1 1 -1.83697e-16 96.8111 279)">F1 Score</text><text font-family="Sans Serif Collection,Sans Serif Collection_MSFontService,sans-serif" font-weight="400" font-size="16" transform="matrix(-1.83697e-16 -1 1 -1.83697e-16 677.827 283)">Accuracy</text><text font-family="Sans Serif Collection,Sans Serif Collection_MSFontService,sans-serif" font-weight="400" font-size="16" transform="translate(212.31 161)">Safety</text><text font-family="Sans Serif Collection,Sans Serif Collection_MSFontService,sans-serif" font-weight="400" font-size="16" transform="translate(486.71 161)">Math</text><text font-family="Sans Serif Collection,Sans Serif Collection_MSFontService,sans-serif" font-weight="400" font-size="16" transform="translate(794.341 160)">Safety</text><text font-family="Sans Serif Collection,Sans Serif Collection_MSFontService,sans-serif" font-weight="400" font-size="16" transform="translate(1068.74 160)">Math</text><g><g><g><path d="M199.648 382.157 215.544 382.157 231.44 382.157" stroke="#FF3333" stroke-width="3.31166" stroke-linecap="square" stroke-linejoin="round" fill="none"/><path d="M215.544 387.455C216.949 387.455 218.297 386.897 219.291 385.903 220.284 384.91 220.843 383.562 220.843 382.157 220.843 380.751 220.284 379.404 219.291 378.41 218.297 377.416 216.949 376.858 215.544 376.858 214.139 376.858 212.791 377.416 211.797 378.41 210.804 379.404 210.245 380.751 210.245 382.157 210.245 383.562 210.804 384.91 211.797 385.903 212.791 386.897 214.139 387.455 215.544 387.455Z" stroke="#FFFFFF" stroke-width="1.98699" stroke-linejoin="round" fill="#FF3333"/><text font-family="Verdana,Verdana_MSFontService,sans-serif" font-weight="400" font-size="12" transform="matrix(1.32466 0 0 1.32466 244.157 388)">Ouro</text><text font-family="Verdana,Verdana_MSFontService,sans-serif" font-weight="400" font-size="12" transform="matrix(1.32466 0 0 1.32466 283.159 388)">-</text><text font-family="Verdana,Verdana_MSFontService,sans-serif" font-weight="400" font-size="12" transform="matrix(1.32466 0 0 1.32466 290.378 388)">1</text><text font-family="Verdana,Verdana_MSFontService,sans-serif" font-weight="400" font-size="12" transform="matrix(1.32466 0 0 1.32466 300.483 388)">.</text><text font-family="Verdana,Verdana_MSFontService,sans-serif" font-weight="400" font-size="12" transform="matrix(1.32466 0 0 1.32466 306.266 388)">4</text><text font-family="Verdana,Verdana_MSFontService,sans-serif" font-weight="400" font-size="12" transform="matrix(1.32466 0 0 1.32466 316.371 388)">B</text><path d="M199.648 405.489 215.544 405.489 231.44 405.489" stroke="#0066CC" stroke-width="3.31166" stroke-linejoin="round" stroke-dasharray="12.2531 5.29865" fill="none"/><text font-family="Verdana,Verdana_MSFontService,sans-serif" font-weight="400" font-size="12" transform="matrix(1.32466 0 0 1.32466 244.157 411)">Llama</text><text font-family="Verdana,Verdana_MSFontService,sans-serif" font-weight="400" font-size="12" transform="matrix(1.32466 0 0 1.32466 291.922 411)">-</text><text font-family="Verdana,Verdana_MSFontService,sans-serif" font-weight="400" font-size="12" transform="matrix(1.32466 0 0 1.32466 299.141 411)">3</text><text font-family="Verdana,Verdana_MSFontService,sans-serif" font-weight="400" font-size="12" transform="matrix(1.32466 0 0 1.32466 309.246 411)">.</text><text font-family="Verdana,Verdana_MSFontService,sans-serif" font-weight="400" font-size="12" transform="matrix(1.32466 0 0 1.32466 315.029 411)">1</text><text font-family="Verdana,Verdana_MSFontService,sans-serif" font-weight="400" font-size="12" transform="matrix(1.32466 0 0 1.32466 325.134 411)">-</text><text font-family="Verdana,Verdana_MSFontService,sans-serif" font-weight="400" font-size="12" transform="matrix(1.32466 0 0 1.32466 332.353 411)">8</text><text font-family="Verdana,Verdana_MSFontService,sans-serif" font-weight="400" font-size="12" transform="matrix(1.32466 0 0 1.32466 342.459 411)">B</text><text font-family="Verdana,Verdana_MSFontService,sans-serif" font-weight="400" font-size="12" transform="matrix(1.32466 0 0 1.32466 353.356 411)">-</text><text font-family="Verdana,Verdana_MSFontService,sans-serif" font-weight="400" font-size="12" transform="matrix(1.32466 0 0 1.32466 360.574 411)">Instruct</text><path d="M448.549 382.157 464.445 382.157 480.341 382.157" stroke="#00994D" stroke-width="3.31166" stroke-linecap="square" stroke-linejoin="round" fill="none"/><path d="M459.147 387.455 469.744 387.455 469.744 376.858 459.147 376.858Z" stroke="#FFFFFF" stroke-width="1.98699" fill="#00994D"/><text font-family="Verdana,Verdana_MSFontService,sans-serif" font-weight="400" font-size="12" transform="matrix(1.32466 0 0 1.32466 493.058 388)">Ouro</text><text font-family="Verdana,Verdana_MSFontService,sans-serif" font-weight="400" font-size="12" transform="matrix(1.32466 0 0 1.32466 532.06 388)">-</text><text font-family="Verdana,Verdana_MSFontService,sans-serif" font-weight="400" font-size="12" transform="matrix(1.32466 0 0 1.32466 539.279 388)">1</text><text font-family="Verdana,Verdana_MSFontService,sans-serif" font-weight="400" font-size="12" transform="matrix(1.32466 0 0 1.32466 549.385 388)">.</text><text font-family="Verdana,Verdana_MSFontService,sans-serif" font-weight="400" font-size="12" transform="matrix(1.32466 0 0 1.32466 555.167 388)">4</text><text font-family="Verdana,Verdana_MSFontService,sans-serif" font-weight="400" font-size="12" transform="matrix(1.32466 0 0 1.32466 565.273 388)">B</text><text font-family="Verdana,Verdana_MSFontService,sans-serif" font-weight="400" font-size="12" transform="matrix(1.32466 0 0 1.32466 576.17 388)">-</text><text font-family="Verdana,Verdana_MSFontService,sans-serif" font-weight="400" font-size="12" transform="matrix(1.32466 0 0 1.32466 583.388 388)">Thinking</text><path d="M448.549 405.489 464.445 405.489 480.341 405.489" stroke="#0099CC" stroke-width="3.31166" stroke-linejoin="round" stroke-dasharray="12.2531 5.29865" fill="none"/><text font-family="Verdana,Verdana_MSFontService,sans-serif" font-weight="400" font-size="12" transform="matrix(1.32466 0 0 1.32466 493.058 411)">Qwen</text><text font-family="Verdana,Verdana_MSFontService,sans-serif" font-weight="400" font-size="12" transform="matrix(1.32466 0 0 1.32466 538.107 411)">3</text><text font-family="Verdana,Verdana_MSFontService,sans-serif" font-weight="400" font-size="12" transform="matrix(1.32466 0 0 1.32466 548.212 411)">-</text><text font-family="Verdana,Verdana_MSFontService,sans-serif" font-weight="400" font-size="12" transform="matrix(1.32466 0 0 1.32466 555.431 411)">30</text><text font-family="Verdana,Verdana_MSFontService,sans-serif" font-weight="400" font-size="12" transform="matrix(1.32466 0 0 1.32466 575.642 411)">B</text><text font-family="Verdana,Verdana_MSFontService,sans-serif" font-weight="400" font-size="12" transform="matrix(1.32466 0 0 1.32466 586.54 411)">-</text><text font-family="Verdana,Verdana_MSFontService,sans-serif" font-weight="400" font-size="12" transform="matrix(1.32466 0 0 1.32466 593.758 411)">A</text><text font-family="Verdana,Verdana_MSFontService,sans-serif" font-weight="400" font-size="12" transform="matrix(1.32466 0 0 1.32466 604.625 411)">3</text><text font-family="Verdana,Verdana_MSFontService,sans-serif" font-weight="400" font-size="12" transform="matrix(1.32466 0 0 1.32466 614.73 411)">B</text><text font-family="Verdana,Verdana_MSFontService,sans-serif" font-weight="400" font-size="12" transform="matrix(1.32466 0 0 1.32466 625.628 411)">-</text><text font-family="Verdana,Verdana_MSFontService,sans-serif" font-weight="400" font-size="12" transform="matrix(1.32466 0 0 1.32466 632.846 411)">Instruct</text><text font-family="Verdana,Verdana_MSFontService,sans-serif" font-weight="400" font-size="12" transform="matrix(1.32466 0 0 1.32466 695.529 411)">-</text><text font-family="Verdana,Verdana_MSFontService,sans-serif" font-weight="400" font-size="12" transform="matrix(1.32466 0 0 1.32466 702.748 411)">2507</text><path d="M767.252 382.157 783.148 382.157 799.044 382.157" stroke="#FF9900" stroke-width="3.31166" stroke-linecap="square" stroke-linejoin="round" fill="none"/><path d="M783.148 389.65 790.642 382.157 783.148 374.663 775.655 382.157Z" stroke="#FFFFFF" stroke-width="1.98699" fill="#FF9900"/><text font-family="Verdana,Verdana_MSFontService,sans-serif" font-weight="400" font-size="12" transform="matrix(1.32466 0 0 1.32466 811.761 388)">Ouro</text><text font-family="Verdana,Verdana_MSFontService,sans-serif" font-weight="400" font-size="12" transform="matrix(1.32466 0 0 1.32466 850.764 388)">-</text><text font-family="Verdana,Verdana_MSFontService,sans-serif" font-weight="400" font-size="12" transform="matrix(1.32466 0 0 1.32466 857.982 388)">2</text><text font-family="Verdana,Verdana_MSFontService,sans-serif" font-weight="400" font-size="12" transform="matrix(1.32466 0 0 1.32466 868.088 388)">.</text><text font-family="Verdana,Verdana_MSFontService,sans-serif" font-weight="400" font-size="12" transform="matrix(1.32466 0 0 1.32466 873.87 388)">6</text><text font-family="Verdana,Verdana_MSFontService,sans-serif" font-weight="400" font-size="12" transform="matrix(1.32466 0 0 1.32466 883.976 388)">B</text><path d="M767.252 405.489 783.148 405.489 799.044 405.489" stroke="#FF3399" stroke-width="3.31166" stroke-linejoin="round" stroke-dasharray="12.2531 5.29865" fill="none"/><text font-family="Verdana,Verdana_MSFontService,sans-serif" font-weight="400" font-size="12" transform="matrix(1.32466 0 0 1.32466 811.761 411)">Qwen</text><text font-family="Verdana,Verdana_MSFontService,sans-serif" font-weight="400" font-size="12" transform="matrix(1.32466 0 0 1.32466 856.81 411)">3</text><text font-family="Verdana,Verdana_MSFontService,sans-serif" font-weight="400" font-size="12" transform="matrix(1.32466 0 0 1.32466 866.916 411)">-</text><text font-family="Verdana,Verdana_MSFontService,sans-serif" font-weight="400" font-size="12" transform="matrix(1.32466 0 0 1.32466 874.134 411)">4</text><text font-family="Verdana,Verdana_MSFontService,sans-serif" font-weight="400" font-size="12" transform="matrix(1.32466 0 0 1.32466 884.24 411)">B</text><path d="M925.789 382.157 941.685 382.157 957.581 382.157" stroke="#9933CC" stroke-width="3.31166" stroke-linecap="square" stroke-linejoin="round" fill="none"/><path d="M941.685 387.455 946.984 376.858 936.387 376.858Z" stroke="#FFFFFF" stroke-width="1.98699" fill="#9933CC"/><text font-family="Verdana,Verdana_MSFontService,sans-serif" font-weight="400" font-size="12" transform="matrix(1.32466 0 0 1.32466 970.298 388)">Ouro</text><text font-family="Verdana,Verdana_MSFontService,sans-serif" font-weight="400" font-size="12" transform="matrix(1.32466 0 0 1.32466 1009.3 388)">-</text><text font-family="Verdana,Verdana_MSFontService,sans-serif" font-weight="400" font-size="12" transform="matrix(1.32466 0 0 1.32466 1016.52 388)">2</text><text font-family="Verdana,Verdana_MSFontService,sans-serif" font-weight="400" font-size="12" transform="matrix(1.32466 0 0 1.32466 1026.62 388)">.</text><text font-family="Verdana,Verdana_MSFontService,sans-serif" font-weight="400" font-size="12" transform="matrix(1.32466 0 0 1.32466 1032.41 388)">6</text><text font-family="Verdana,Verdana_MSFontService,sans-serif" font-weight="400" font-size="12" transform="matrix(1.32466 0 0 1.32466 1042.51 388)">B</text><text font-family="Verdana,Verdana_MSFontService,sans-serif" font-weight="400" font-size="12" transform="matrix(1.32466 0 0 1.32466 1053.41 388)">-</text><text font-family="Verdana,Verdana_MSFontService,sans-serif" font-weight="400" font-size="12" transform="matrix(1.32466 0 0 1.32466 1060.63 388)">Thinking</text><path d="M925.789 405.489 941.685 405.489 957.581 405.489" stroke="#CCCC00" stroke-width="3.31166" stroke-linejoin="round" stroke-dasharray="12.2531 5.29865" fill="none"/><text font-family="Verdana,Verdana_MSFontService,sans-serif" font-weight="400" font-size="12" transform="matrix(1.32466 0 0 1.32466 970.298 411)">Qwen</text><text font-family="Verdana,Verdana_MSFontService,sans-serif" font-weight="400" font-size="12" transform="matrix(1.32466 0 0 1.32466 1015.35 411)">3</text><text font-family="Verdana,Verdana_MSFontService,sans-serif" font-weight="400" font-size="12" transform="matrix(1.32466 0 0 1.32466 1025.45 411)">-</text><text font-family="Verdana,Verdana_MSFontService,sans-serif" font-weight="400" font-size="12" transform="matrix(1.32466 0 0 1.32466 1032.67 411)">8</text><text font-family="Verdana,Verdana_MSFontService,sans-serif" font-weight="400" font-size="12" transform="matrix(1.32466 0 0 1.32466 1042.78 411)">B</text></g></g></g><path d="M178.5 374.834C178.5 369.679 182.679 365.5 187.834 365.5L1136.17 365.5C1141.32 365.5 1145.5 369.679 1145.5 374.834L1145.5 412.166C1145.5 417.321 1141.32 421.5 1136.17 421.5L187.834 421.5C182.679 421.5 178.5 417.321 178.5 412.166Z" stroke="#042433" stroke-miterlimit="8" stroke-dasharray="8 3" fill="none" fill-rule="evenodd"/><g><g><g><g><path d="M27.8503 155.676 27.8503 6.8201" stroke="#808080" stroke-width="0.38" stroke-linejoin="round" stroke-dasharray="0.38 0.627" stroke-opacity="0.4" fill="none" transform="matrix(1.00146 0 0 1 373 164)"/></g><path d="M0 0 0 2.375" stroke="#000000" stroke-width="0.7125" stroke-linejoin="round" fill="none" transform="matrix(1.00146 0 0 1 400.891 319.677)"/><text font-family="Verdana,Verdana_MSFontService,sans-serif" font-weight="400" font-size="12" transform="matrix(0.475694 0 0 0.475 399.077 328)">1</text><g><path d="M60.5877 155.676 60.5877 6.8201" stroke="#808080" stroke-width="0.38" stroke-linejoin="round" stroke-dasharray="0.38 0.627" stroke-opacity="0.4" fill="none" transform="matrix(1.00146 0 0 1 373 164)"/></g><path d="M0 0 0 2.375" stroke="#000000" stroke-width="0.7125" stroke-linejoin="round" fill="none" transform="matrix(1.00146 0 0 1 433.676 319.677)"/><text font-family="Verdana,Verdana_MSFontService,sans-serif" font-weight="400" font-size="12" transform="matrix(0.475694 0 0 0.475 431.862 328)">2</text><g><path d="M93.3251 155.676 93.3251 6.8201" stroke="#808080" stroke-width="0.38" stroke-linejoin="round" stroke-dasharray="0.38 0.627" stroke-opacity="0.4" fill="none" transform="matrix(1.00146 0 0 1 373 164)"/></g><path d="M0 0 0 2.375" stroke="#000000" stroke-width="0.7125" stroke-linejoin="round" fill="none" transform="matrix(1.00146 0 0 1 466.462 319.677)"/><text font-family="Verdana,Verdana_MSFontService,sans-serif" font-weight="400" font-size="12" transform="matrix(0.475694 0 0 0.475 464.647 328)">3</text><g><path d="M126.063 155.676 126.063 6.8201" stroke="#808080" stroke-width="0.38" stroke-linejoin="round" stroke-dasharray="0.38 0.627" stroke-opacity="0.4" fill="none" transform="matrix(1.00146 0 0 1 373 164)"/></g><path d="M0 0 0 2.375" stroke="#000000" stroke-width="0.7125" stroke-linejoin="round" fill="none" transform="matrix(1.00146 0 0 1 499.247 319.677)"/><text font-family="Verdana,Verdana_MSFontService,sans-serif" font-weight="400" font-size="12" transform="matrix(0.475694 0 0 0.475 497.432 328)">4</text><g><path d="M158.8 155.676 158.8 6.8201" stroke="#808080" stroke-width="0.38" stroke-linejoin="round" stroke-dasharray="0.38 0.627" stroke-opacity="0.4" fill="none" transform="matrix(1.00146 0 0 1 373 164)"/></g><path d="M0 0 0 2.375" stroke="#000000" stroke-width="0.7125" stroke-linejoin="round" fill="none" transform="matrix(1.00146 0 0 1 532.032 319.677)"/><text font-family="Verdana,Verdana_MSFontService,sans-serif" font-weight="400" font-size="12" transform="matrix(0.475694 0 0 0.475 530.217 328)">5</text><g><path d="M191.537 155.676 191.537 6.8201" stroke="#808080" stroke-width="0.38" stroke-linejoin="round" stroke-dasharray="0.38 0.627" stroke-opacity="0.4" fill="none" transform="matrix(1.00146 0 0 1 373 164)"/></g><path d="M0 0 0 2.375" stroke="#000000" stroke-width="0.7125" stroke-linejoin="round" fill="none" transform="matrix(1.00146 0 0 1 564.817 319.677)"/><text font-family="Verdana,Verdana_MSFontService,sans-serif" font-weight="400" font-size="12" transform="matrix(0.475694 0 0 0.475 563.003 328)">6</text><g><path d="M224.275 155.676 224.275 6.8201" stroke="#808080" stroke-width="0.38" stroke-linejoin="round" stroke-dasharray="0.38 0.627" stroke-opacity="0.4" fill="none" transform="matrix(1.00146 0 0 1 373 164)"/></g><path d="M0 0 0 2.375" stroke="#000000" stroke-width="0.7125" stroke-linejoin="round" fill="none" transform="matrix(1.00146 0 0 1 597.602 319.677)"/><text font-family="Verdana,Verdana_MSFontService,sans-serif" font-weight="400" font-size="12" transform="matrix(0.475694 0 0 0.475 595.788 328)">7</text><g><path d="M257.012 155.676 257.012 6.8201" stroke="#808080" stroke-width="0.38" stroke-linejoin="round" stroke-dasharray="0.38 0.627" stroke-opacity="0.4" fill="none" transform="matrix(1.00146 0 0 1 373 164)"/></g><path d="M0 0 0 2.375" stroke="#000000" stroke-width="0.7125" stroke-linejoin="round" fill="none" transform="matrix(1.00146 0 0 1 630.388 319.677)"/><text font-family="Verdana,Verdana_MSFontService,sans-serif" font-weight="400" font-size="12" transform="matrix(0.475694 0 0 0.475 628.573 328)">8</text><g><path d="M16.3922 149.946 268.47 149.946" stroke="#808080" stroke-width="0.38" stroke-linejoin="round" stroke-dasharray="0.38 0.627" stroke-opacity="0.4" fill="none" transform="matrix(1.00146 0 0 1 373 164)"/></g><path d="M0 0-2.375 0" stroke="#000000" stroke-width="0.7125" stroke-linejoin="round" fill="none" transform="matrix(1.00146 0 0 1 389.416 313.946)"/><text font-family="Verdana,Verdana_MSFontService,sans-serif" font-weight="400" font-size="12" transform="matrix(0.475694 0 0 0.475 378.115 316)">64</text><g><path d="M16.3922 129.613 268.47 129.613" stroke="#808080" stroke-width="0.38" stroke-linejoin="round" stroke-dasharray="0.38 0.627" stroke-opacity="0.4" fill="none" transform="matrix(1.00146 0 0 1 373 164)"/></g><path d="M0 0-2.375 0" stroke="#000000" stroke-width="0.7125" stroke-linejoin="round" fill="none" transform="matrix(1.00146 0 0 1 389.416 293.613)"/><text font-family="Verdana,Verdana_MSFontService,sans-serif" font-weight="400" font-size="12" transform="matrix(0.475694 0 0 0.475 378.115 296)">66</text><g><path d="M16.3922 109.28 268.47 109.28" stroke="#808080" stroke-width="0.38" stroke-linejoin="round" stroke-dasharray="0.38 0.627" stroke-opacity="0.4" fill="none" transform="matrix(1.00146 0 0 1 373 164)"/></g><path d="M0 0-2.375 0" stroke="#000000" stroke-width="0.7125" stroke-linejoin="round" fill="none" transform="matrix(1.00146 0 0 1 389.416 273.28)"/><text font-family="Verdana,Verdana_MSFontService,sans-serif" font-weight="400" font-size="12" transform="matrix(0.475694 0 0 0.475 378.115 275)">68</text><g><path d="M16.3922 88.9475 268.47 88.9475" stroke="#808080" stroke-width="0.38" stroke-linejoin="round" stroke-dasharray="0.38 0.627" stroke-opacity="0.4" fill="none" transform="matrix(1.00146 0 0 1 373 164)"/></g><path d="M0 0-2.375 0" stroke="#000000" stroke-width="0.7125" stroke-linejoin="round" fill="none" transform="matrix(1.00146 0 0 1 389.416 252.948)"/><text font-family="Verdana,Verdana_MSFontService,sans-serif" font-weight="400" font-size="12" transform="matrix(0.475694 0 0 0.475 378.115 255)">70</text><g><path d="M16.3922 68.6147 268.47 68.6147" stroke="#808080" stroke-width="0.38" stroke-linejoin="round" stroke-dasharray="0.38 0.627" stroke-opacity="0.4" fill="none" transform="matrix(1.00146 0 0 1 373 164)"/></g><path d="M0 0-2.375 0" stroke="#000000" stroke-width="0.7125" stroke-linejoin="round" fill="none" transform="matrix(1.00146 0 0 1 389.416 232.615)"/><text font-family="Verdana,Verdana_MSFontService,sans-serif" font-weight="400" font-size="12" transform="matrix(0.475694 0 0 0.475 378.115 235)">72</text><g><path d="M16.3922 48.2819 268.47 48.2819" stroke="#808080" stroke-width="0.38" stroke-linejoin="round" stroke-dasharray="0.38 0.627" stroke-opacity="0.4" fill="none" transform="matrix(1.00146 0 0 1 373 164)"/></g><path d="M0 0-2.375 0" stroke="#000000" stroke-width="0.7125" stroke-linejoin="round" fill="none" transform="matrix(1.00146 0 0 1 389.416 212.282)"/><text font-family="Verdana,Verdana_MSFontService,sans-serif" font-weight="400" font-size="12" transform="matrix(0.475694 0 0 0.475 378.115 214)">74</text><g><path d="M16.3922 27.9488 268.47 27.9488" stroke="#808080" stroke-width="0.38" stroke-linejoin="round" stroke-dasharray="0.38 0.627" stroke-opacity="0.4" fill="none" transform="matrix(1.00146 0 0 1 373 164)"/></g><path d="M0 0-2.375 0" stroke="#000000" stroke-width="0.7125" stroke-linejoin="round" fill="none" transform="matrix(1.00146 0 0 1 389.416 191.949)"/><text font-family="Verdana,Verdana_MSFontService,sans-serif" font-weight="400" font-size="12" transform="matrix(0.475694 0 0 0.475 378.115 194)">76</text><g><path d="M16.3922 7.61586 268.47 7.61586" stroke="#808080" stroke-width="0.38" stroke-linejoin="round" stroke-dasharray="0.38 0.627" stroke-opacity="0.4" fill="none" transform="matrix(1.00146 0 0 1 373 164)"/></g><path d="M0 0-2.375 0" stroke="#000000" stroke-width="0.7125" stroke-linejoin="round" fill="none" transform="matrix(1.00146 0 0 1 389.416 171.616)"/><text font-family="Verdana,Verdana_MSFontService,sans-serif" font-weight="400" font-size="12" transform="matrix(0.475694 0 0 0.475 378.115 174)">78</text><g><path d="M27.8503 54.0507 257.012 54.0507" stroke="#0066CC" stroke-width="1.1875" stroke-linejoin="round" stroke-dasharray="4.39375 1.9" stroke-opacity="0.8" fill="none" transform="matrix(1.00146 0 0 1 373 164)"/></g><g><path d="M27.8503 41.6878 60.5877 54.2141 93.3251 61.9956 126.063 65.0897 158.8 77.8202 191.537 72.0076 224.275 73.9908 257.012 82.2002" stroke="#FF3333" stroke-width="1.1875" stroke-linecap="square" stroke-linejoin="round" fill="none" transform="matrix(1.00146 0 0 1 373 164)"/></g><g><path d="M0 1.9C0.503885 1.9 0.987202 1.69981 1.3435 1.3435 1.69981 0.987202 1.9 0.503885 1.9 0 1.9-0.503885 1.69981-0.987202 1.3435-1.3435 0.987202-1.69981 0.503885-1.9 0-1.9-0.503885-1.9-0.987202-1.69981-1.3435-1.3435-1.69981-0.987202-1.9-0.503885-1.9 0-1.9 0.503885-1.69981 0.987202-1.3435 1.3435-0.987202 1.69981-0.503885 1.9 0 1.9Z" stroke="#FFFFFF" stroke-width="0.7125" stroke-linejoin="round" fill="#FF3333" transform="matrix(1.00146 0 0 1 400.891 205.688)"/><path d="M0 1.9C0.503885 1.9 0.987202 1.69981 1.3435 1.3435 1.69981 0.987202 1.9 0.503885 1.9 0 1.9-0.503885 1.69981-0.987202 1.3435-1.3435 0.987202-1.69981 0.503885-1.9 0-1.9-0.503885-1.9-0.987202-1.69981-1.3435-1.3435-1.69981-0.987202-1.9-0.503885-1.9 0-1.9 0.503885-1.69981 0.987202-1.3435 1.3435-0.987202 1.69981-0.503885 1.9 0 1.9Z" stroke="#FFFFFF" stroke-width="0.7125" stroke-linejoin="round" fill="#FF3333" transform="matrix(1.00146 0 0 1 433.676 218.214)"/><path d="M0 1.9C0.503885 1.9 0.987202 1.69981 1.3435 1.3435 1.69981 0.987202 1.9 0.503885 1.9 0 1.9-0.503885 1.69981-0.987202 1.3435-1.3435 0.987202-1.69981 0.503885-1.9 0-1.9-0.503885-1.9-0.987202-1.69981-1.3435-1.3435-1.69981-0.987202-1.9-0.503885-1.9 0-1.9 0.503885-1.69981 0.987202-1.3435 1.3435-0.987202 1.69981-0.503885 1.9 0 1.9Z" stroke="#FFFFFF" stroke-width="0.7125" stroke-linejoin="round" fill="#FF3333" transform="matrix(1.00146 0 0 1 466.462 225.996)"/><path d="M0 1.9C0.503885 1.9 0.987202 1.69981 1.3435 1.3435 1.69981 0.987202 1.9 0.503885 1.9 0 1.9-0.503885 1.69981-0.987202 1.3435-1.3435 0.987202-1.69981 0.503885-1.9 0-1.9-0.503885-1.9-0.987202-1.69981-1.3435-1.3435-1.69981-0.987202-1.9-0.503885-1.9 0-1.9 0.503885-1.69981 0.987202-1.3435 1.3435-0.987202 1.69981-0.503885 1.9 0 1.9Z" stroke="#FFFFFF" stroke-width="0.7125" stroke-linejoin="round" fill="#FF3333" transform="matrix(1.00146 0 0 1 499.247 229.09)"/><path d="M0 1.9C0.503885 1.9 0.987202 1.69981 1.3435 1.3435 1.69981 0.987202 1.9 0.503885 1.9 0 1.9-0.503885 1.69981-0.987202 1.3435-1.3435 0.987202-1.69981 0.503885-1.9 0-1.9-0.503885-1.9-0.987202-1.69981-1.3435-1.3435-1.69981-0.987202-1.9-0.503885-1.9 0-1.9 0.503885-1.69981 0.987202-1.3435 1.3435-0.987202 1.69981-0.503885 1.9 0 1.9Z" stroke="#FFFFFF" stroke-width="0.7125" stroke-linejoin="round" fill="#FF3333" transform="matrix(1.00146 0 0 1 532.032 241.82)"/><path d="M0 1.9C0.503885 1.9 0.987202 1.69981 1.3435 1.3435 1.69981 0.987202 1.9 0.503885 1.9 0 1.9-0.503885 1.69981-0.987202 1.3435-1.3435 0.987202-1.69981 0.503885-1.9 0-1.9-0.503885-1.9-0.987202-1.69981-1.3435-1.3435-1.69981-0.987202-1.9-0.503885-1.9 0-1.9 0.503885-1.69981 0.987202-1.3435 1.3435-0.987202 1.69981-0.503885 1.9 0 1.9Z" stroke="#FFFFFF" stroke-width="0.7125" stroke-linejoin="round" fill="#FF3333" transform="matrix(1.00146 0 0 1 564.817 236.008)"/><path d="M0 1.9C0.503885 1.9 0.987202 1.69981 1.3435 1.3435 1.69981 0.987202 1.9 0.503885 1.9 0 1.9-0.503885 1.69981-0.987202 1.3435-1.3435 0.987202-1.69981 0.503885-1.9 0-1.9-0.503885-1.9-0.987202-1.69981-1.3435-1.3435-1.69981-0.987202-1.9-0.503885-1.9 0-1.9 0.503885-1.69981 0.987202-1.3435 1.3435-0.987202 1.69981-0.503885 1.9 0 1.9Z" stroke="#FFFFFF" stroke-width="0.7125" stroke-linejoin="round" fill="#FF3333" transform="matrix(1.00146 0 0 1 597.602 237.991)"/><path d="M0 1.9C0.503885 1.9 0.987202 1.69981 1.3435 1.3435 1.69981 0.987202 1.9 0.503885 1.9 0 1.9-0.503885 1.69981-0.987202 1.3435-1.3435 0.987202-1.69981 0.503885-1.9 0-1.9-0.503885-1.9-0.987202-1.69981-1.3435-1.3435-1.69981-0.987202-1.9-0.503885-1.9 0-1.9 0.503885-1.69981 0.987202-1.3435 1.3435-0.987202 1.69981-0.503885 1.9 0 1.9Z" stroke="#FFFFFF" stroke-width="0.7125" stroke-linejoin="round" fill="#FF3333" transform="matrix(1.00146 0 0 1 630.388 246.2)"/></g><g><path d="M27.8503 25.0879 60.5877 29.1736 93.3251 48.2819 126.063 70.804 158.8 61.673 191.537 79.914 224.275 76.0009 257.012 73.7395" stroke="#00994D" stroke-width="1.1875" stroke-linecap="square" stroke-linejoin="round" fill="none" transform="matrix(1.00146 0 0 1 373 164)"/></g><g><path d="M-1.9 1.9 1.9 1.9 1.9-1.9-1.9-1.9Z" stroke="#FFFFFF" stroke-width="0.7125" fill="#00994D" transform="matrix(1.00146 0 0 1 400.891 189.088)"/><path d="M-1.9 1.9 1.9 1.9 1.9-1.9-1.9-1.9Z" stroke="#FFFFFF" stroke-width="0.7125" fill="#00994D" transform="matrix(1.00146 0 0 1 433.676 193.174)"/><path d="M-1.9 1.9 1.9 1.9 1.9-1.9-1.9-1.9Z" stroke="#FFFFFF" stroke-width="0.7125" fill="#00994D" transform="matrix(1.00146 0 0 1 466.462 212.282)"/><path d="M-1.9 1.9 1.9 1.9 1.9-1.9-1.9-1.9Z" stroke="#FFFFFF" stroke-width="0.7125" fill="#00994D" transform="matrix(1.00146 0 0 1 499.247 234.804)"/><path d="M-1.9 1.9 1.9 1.9 1.9-1.9-1.9-1.9Z" stroke="#FFFFFF" stroke-width="0.7125" fill="#00994D" transform="matrix(1.00146 0 0 1 532.032 225.673)"/><path d="M-1.9 1.9 1.9 1.9 1.9-1.9-1.9-1.9Z" stroke="#FFFFFF" stroke-width="0.7125" fill="#00994D" transform="matrix(1.00146 0 0 1 564.817 243.914)"/><path d="M-1.9 1.9 1.9 1.9 1.9-1.9-1.9-1.9Z" stroke="#FFFFFF" stroke-width="0.7125" fill="#00994D" transform="matrix(1.00146 0 0 1 597.602 240.001)"/><path d="M-1.9 1.9 1.9 1.9 1.9-1.9-1.9-1.9Z" stroke="#FFFFFF" stroke-width="0.7125" fill="#00994D" transform="matrix(1.00146 0 0 1 630.388 237.739)"/></g><g><path d="M27.8503 73.3675 60.5877 74.3522 93.3251 77.5048 126.063 90.1597 158.8 94.6243 191.537 100.656 224.275 102.781 257.012 100.631" stroke="#FF9900" stroke-width="1.1875" stroke-linecap="square" stroke-linejoin="round" fill="none" transform="matrix(1.00146 0 0 1 373 164)"/></g><g><path d="M0 2.687 2.687 0 0-2.687-2.687 0Z" stroke="#FFFFFF" stroke-width="0.7125" fill="#FF9900" transform="matrix(1.00146 0 0 1 400.891 237.368)"/><path d="M0 2.687 2.687 0 0-2.687-2.687 0Z" stroke="#FFFFFF" stroke-width="0.7125" fill="#FF9900" transform="matrix(1.00146 0 0 1 433.676 238.352)"/><path d="M0 2.687 2.687 0 0-2.687-2.687 0Z" stroke="#FFFFFF" stroke-width="0.7125" fill="#FF9900" transform="matrix(1.00146 0 0 1 466.462 241.505)"/><path d="M0 2.687 2.687 0 0-2.687-2.687 0Z" stroke="#FFFFFF" stroke-width="0.7125" fill="#FF9900" transform="matrix(1.00146 0 0 1 499.247 254.16)"/><path d="M0 2.687 2.687 0 0-2.687-2.687 0Z" stroke="#FFFFFF" stroke-width="0.7125" fill="#FF9900" transform="matrix(1.00146 0 0 1 532.032 258.624)"/><path d="M0 2.687 2.687 0 0-2.687-2.687 0Z" stroke="#FFFFFF" stroke-width="0.7125" fill="#FF9900" transform="matrix(1.00146 0 0 1 564.817 264.656)"/><path d="M0 2.687 2.687 0 0-2.687-2.687 0Z" stroke="#FFFFFF" stroke-width="0.7125" fill="#FF9900" transform="matrix(1.00146 0 0 1 597.602 266.78)"/><path d="M0 2.687 2.687 0 0-2.687-2.687 0Z" stroke="#FFFFFF" stroke-width="0.7125" fill="#FF9900" transform="matrix(1.00146 0 0 1 630.388 264.631)"/></g><g><path d="M27.8503 73.9547 60.5877 94.5378 93.3251 116.439 126.063 117.226 158.8 131.474 191.537 135.264 224.275 143.674 257.012 148.91" stroke="#9933CC" stroke-width="1.1875" stroke-linecap="square" stroke-linejoin="round" fill="none" transform="matrix(1.00146 0 0 1 373 164)"/></g><g><path d="M0 1.9 1.9-1.9-1.9-1.9Z" stroke="#FFFFFF" stroke-width="0.7125" fill="#9933CC" transform="matrix(1.00146 0 0 1 400.891 237.955)"/><path d="M0 1.9 1.9-1.9-1.9-1.9Z" stroke="#FFFFFF" stroke-width="0.7125" fill="#9933CC" transform="matrix(1.00146 0 0 1 433.676 258.538)"/><path d="M0 1.9 1.9-1.9-1.9-1.9Z" stroke="#FFFFFF" stroke-width="0.7125" fill="#9933CC" transform="matrix(1.00146 0 0 1 466.462 280.439)"/><path d="M0 1.9 1.9-1.9-1.9-1.9Z" stroke="#FFFFFF" stroke-width="0.7125" fill="#9933CC" transform="matrix(1.00146 0 0 1 499.247 281.226)"/><path d="M0 1.9 1.9-1.9-1.9-1.9Z" stroke="#FFFFFF" stroke-width="0.7125" fill="#9933CC" transform="matrix(1.00146 0 0 1 532.032 295.474)"/><path d="M0 1.9 1.9-1.9-1.9-1.9Z" stroke="#FFFFFF" stroke-width="0.7125" fill="#9933CC" transform="matrix(1.00146 0 0 1 564.817 299.264)"/><path d="M0 1.9 1.9-1.9-1.9-1.9Z" stroke="#FFFFFF" stroke-width="0.7125" fill="#9933CC" transform="matrix(1.00146 0 0 1 597.602 307.674)"/><path d="M0 1.9 1.9-1.9-1.9-1.9Z" stroke="#FFFFFF" stroke-width="0.7125" fill="#9933CC" transform="matrix(1.00146 0 0 1 630.388 312.91)"/></g><g><path d="M27.8503 48.716 257.012 48.716" stroke="#0099CC" stroke-width="1.1875" stroke-linejoin="round" stroke-dasharray="4.39375 1.9" stroke-opacity="0.8" fill="none" transform="matrix(1.00146 0 0 1 373 164)"/></g><g><path d="M27.8503 14.0314 257.012 14.0314" stroke="#FF3399" stroke-width="1.1875" stroke-linejoin="round" stroke-dasharray="4.39375 1.9" stroke-opacity="0.8" fill="none" transform="matrix(1.00146 0 0 1 373 164)"/></g><g><path d="M27.8503 13.5863 257.012 13.5863" stroke="#CCCC00" stroke-width="1.1875" stroke-linejoin="round" stroke-dasharray="4.39375 1.9" stroke-opacity="0.8" fill="none" transform="matrix(1.00146 0 0 1 373 164)"/></g><path d="M16.3922 155.676 16.3922 6.8201" stroke="#000000" stroke-width="0.7125" stroke-linecap="square" fill="none" transform="matrix(1.00146 0 0 1 373 164)"/><path d="M268.47 155.676 268.47 6.8201" stroke="#000000" stroke-width="0.7125" stroke-linecap="square" fill="none" transform="matrix(1.00146 0 0 1 373 164)"/><path d="M16.3922 155.676 268.47 155.676" stroke="#000000" stroke-width="0.7125" stroke-linecap="square" fill="none" transform="matrix(1.00146 0 0 1 373 164)"/><path d="M16.3922 6.8201 268.47 6.8201" stroke="#000000" stroke-width="0.7125" stroke-linecap="square" fill="none" transform="matrix(1.00146 0 0 1 373 164)"/></g></g></g><g><g><g><g><path d="M27.8503 155.676 27.8503 5.13" stroke="#808080" stroke-width="0.38" stroke-linejoin="round" stroke-dasharray="0.38 0.627" stroke-opacity="0.4" fill="none" transform="matrix(1.00146 0 0 1 958 164)"/></g><path d="M0 0 0 2.375" stroke="#000000" stroke-width="0.7125" stroke-linejoin="round" fill="none" transform="matrix(1.00146 0 0 1 985.891 319.677)"/><text font-family="Verdana,Verdana_MSFontService,sans-serif" font-weight="400" font-size="12" transform="matrix(0.475694 0 0 0.475 984.077 328)">1</text><g><path d="M60.5877 155.676 60.5877 5.13" stroke="#808080" stroke-width="0.38" stroke-linejoin="round" stroke-dasharray="0.38 0.627" stroke-opacity="0.4" fill="none" transform="matrix(1.00146 0 0 1 958 164)"/></g><path d="M0 0 0 2.375" stroke="#000000" stroke-width="0.7125" stroke-linejoin="round" fill="none" transform="matrix(1.00146 0 0 1 1018.68 319.677)"/><text font-family="Verdana,Verdana_MSFontService,sans-serif" font-weight="400" font-size="12" transform="matrix(0.475694 0 0 0.475 1016.86 328)">2</text><g><path d="M93.3251 155.676 93.3251 5.13" stroke="#808080" stroke-width="0.38" stroke-linejoin="round" stroke-dasharray="0.38 0.627" stroke-opacity="0.4" fill="none" transform="matrix(1.00146 0 0 1 958 164)"/></g><path d="M0 0 0 2.375" stroke="#000000" stroke-width="0.7125" stroke-linejoin="round" fill="none" transform="matrix(1.00146 0 0 1 1051.46 319.677)"/><text font-family="Verdana,Verdana_MSFontService,sans-serif" font-weight="400" font-size="12" transform="matrix(0.475694 0 0 0.475 1049.65 328)">3</text><g><path d="M126.063 155.676 126.063 5.13" stroke="#808080" stroke-width="0.38" stroke-linejoin="round" stroke-dasharray="0.38 0.627" stroke-opacity="0.4" fill="none" transform="matrix(1.00146 0 0 1 958 164)"/></g><path d="M0 0 0 2.375" stroke="#000000" stroke-width="0.7125" stroke-linejoin="round" fill="none" transform="matrix(1.00146 0 0 1 1084.25 319.677)"/><text font-family="Verdana,Verdana_MSFontService,sans-serif" font-weight="400" font-size="12" transform="matrix(0.475694 0 0 0.475 1082.43 328)">4</text><g><path d="M158.8 155.676 158.8 5.13" stroke="#808080" stroke-width="0.38" stroke-linejoin="round" stroke-dasharray="0.38 0.627" stroke-opacity="0.4" fill="none" transform="matrix(1.00146 0 0 1 958 164)"/></g><path d="M0 0 0 2.375" stroke="#000000" stroke-width="0.7125" stroke-linejoin="round" fill="none" transform="matrix(1.00146 0 0 1 1117.03 319.677)"/><text font-family="Verdana,Verdana_MSFontService,sans-serif" font-weight="400" font-size="12" transform="matrix(0.475694 0 0 0.475 1115.22 328)">5</text><g><path d="M191.537 155.676 191.537 5.13" stroke="#808080" stroke-width="0.38" stroke-linejoin="round" stroke-dasharray="0.38 0.627" stroke-opacity="0.4" fill="none" transform="matrix(1.00146 0 0 1 958 164)"/></g><path d="M0 0 0 2.375" stroke="#000000" stroke-width="0.7125" stroke-linejoin="round" fill="none" transform="matrix(1.00146 0 0 1 1149.82 319.677)"/><text font-family="Verdana,Verdana_MSFontService,sans-serif" font-weight="400" font-size="12" transform="matrix(0.475694 0 0 0.475 1148 328)">6</text><g><path d="M224.275 155.676 224.275 5.13" stroke="#808080" stroke-width="0.38" stroke-linejoin="round" stroke-dasharray="0.38 0.627" stroke-opacity="0.4" fill="none" transform="matrix(1.00146 0 0 1 958 164)"/></g><path d="M0 0 0 2.375" stroke="#000000" stroke-width="0.7125" stroke-linejoin="round" fill="none" transform="matrix(1.00146 0 0 1 1182.6 319.677)"/><text font-family="Verdana,Verdana_MSFontService,sans-serif" font-weight="400" font-size="12" transform="matrix(0.475694 0 0 0.475 1180.79 328)">7</text><g><path d="M257.012 155.676 257.012 5.13" stroke="#808080" stroke-width="0.38" stroke-linejoin="round" stroke-dasharray="0.38 0.627" stroke-opacity="0.4" fill="none" transform="matrix(1.00146 0 0 1 958 164)"/></g><path d="M0 0 0 2.375" stroke="#000000" stroke-width="0.7125" stroke-linejoin="round" fill="none" transform="matrix(1.00146 0 0 1 1215.39 319.677)"/><text font-family="Verdana,Verdana_MSFontService,sans-serif" font-weight="400" font-size="12" transform="matrix(0.475694 0 0 0.475 1213.57 328)">8</text><g><path d="M16.3922 143.097 268.47 143.097" stroke="#808080" stroke-width="0.38" stroke-linejoin="round" stroke-dasharray="0.38 0.627" stroke-opacity="0.4" fill="none" transform="matrix(1.00146 0 0 1 958 164)"/></g><path d="M0 0-2.375 0" stroke="#000000" stroke-width="0.7125" stroke-linejoin="round" fill="none" transform="matrix(1.00146 0 0 1 974.416 307.097)"/><text font-family="Verdana,Verdana_MSFontService,sans-serif" font-weight="400" font-size="12" transform="matrix(0.475694 0 0 0.475 963.115 309)">66</text><g><path d="M16.3922 121.243 268.47 121.243" stroke="#808080" stroke-width="0.38" stroke-linejoin="round" stroke-dasharray="0.38 0.627" stroke-opacity="0.4" fill="none" transform="matrix(1.00146 0 0 1 958 164)"/></g><path d="M0 0-2.375 0" stroke="#000000" stroke-width="0.7125" stroke-linejoin="round" fill="none" transform="matrix(1.00146 0 0 1 974.416 285.243)"/><text font-family="Verdana,Verdana_MSFontService,sans-serif" font-weight="400" font-size="12" transform="matrix(0.475694 0 0 0.475 963.115 287)">68</text><g><path d="M16.3922 99.389 268.47 99.389" stroke="#808080" stroke-width="0.38" stroke-linejoin="round" stroke-dasharray="0.38 0.627" stroke-opacity="0.4" fill="none" transform="matrix(1.00146 0 0 1 958 164)"/></g><path d="M0 0-2.375 0" stroke="#000000" stroke-width="0.7125" stroke-linejoin="round" fill="none" transform="matrix(1.00146 0 0 1 974.416 263.389)"/><text font-family="Verdana,Verdana_MSFontService,sans-serif" font-weight="400" font-size="12" transform="matrix(0.475694 0 0 0.475 963.115 266)">70</text><g><path d="M16.3922 77.5347 268.47 77.5347" stroke="#808080" stroke-width="0.38" stroke-linejoin="round" stroke-dasharray="0.38 0.627" stroke-opacity="0.4" fill="none" transform="matrix(1.00146 0 0 1 958 164)"/></g><path d="M0 0-2.375 0" stroke="#000000" stroke-width="0.7125" stroke-linejoin="round" fill="none" transform="matrix(1.00146 0 0 1 974.416 241.535)"/><text font-family="Verdana,Verdana_MSFontService,sans-serif" font-weight="400" font-size="12" transform="matrix(0.475694 0 0 0.475 963.115 244)">72</text><g><path d="M16.3922 55.6809 268.47 55.6809" stroke="#808080" stroke-width="0.38" stroke-linejoin="round" stroke-dasharray="0.38 0.627" stroke-opacity="0.4" fill="none" transform="matrix(1.00146 0 0 1 958 164)"/></g><path d="M0 0-2.375 0" stroke="#000000" stroke-width="0.7125" stroke-linejoin="round" fill="none" transform="matrix(1.00146 0 0 1 974.416 219.681)"/><text font-family="Verdana,Verdana_MSFontService,sans-serif" font-weight="400" font-size="12" transform="matrix(0.475694 0 0 0.475 963.115 222)">74</text><g><path d="M16.3922 33.827 268.47 33.827" stroke="#808080" stroke-width="0.38" stroke-linejoin="round" stroke-dasharray="0.38 0.627" stroke-opacity="0.4" fill="none" transform="matrix(1.00146 0 0 1 958 164)"/></g><path d="M0 0-2.375 0" stroke="#000000" stroke-width="0.7125" stroke-linejoin="round" fill="none" transform="matrix(1.00146 0 0 1 974.416 197.827)"/><text font-family="Verdana,Verdana_MSFontService,sans-serif" font-weight="400" font-size="12" transform="matrix(0.475694 0 0 0.475 963.115 200)">76</text><g><path d="M16.3922 11.973 268.47 11.973" stroke="#808080" stroke-width="0.38" stroke-linejoin="round" stroke-dasharray="0.38 0.627" stroke-opacity="0.4" fill="none" transform="matrix(1.00146 0 0 1 958 164)"/></g><path d="M0 0-2.375 0" stroke="#000000" stroke-width="0.7125" stroke-linejoin="round" fill="none" transform="matrix(1.00146 0 0 1 974.416 175.973)"/><text font-family="Verdana,Verdana_MSFontService,sans-serif" font-weight="400" font-size="12" transform="matrix(0.475694 0 0 0.475 963.115 178)">78</text><g><path d="M27.8503 69.0664 257.012 69.0664" stroke="#0066CC" stroke-width="1.1875" stroke-linejoin="round" stroke-dasharray="4.39375 1.9" stroke-opacity="0.8" fill="none" transform="matrix(1.00146 0 0 1 958 164)"/></g><g><path d="M27.8503 47.4857 60.5877 62.7836 93.3251 74.5299 126.063 78.3546 158.8 89.0083 191.537 83.2718 224.275 85.1836 257.012 96.3837" stroke="#FF3333" stroke-width="1.1875" stroke-linecap="square" stroke-linejoin="round" fill="none" transform="matrix(1.00146 0 0 1 958 164)"/></g><g><path d="M0 1.9C0.503885 1.9 0.987202 1.69981 1.3435 1.3435 1.69981 0.987202 1.9 0.503885 1.9 0 1.9-0.503885 1.69981-0.987202 1.3435-1.3435 0.987202-1.69981 0.503885-1.9 0-1.9-0.503885-1.9-0.987202-1.69981-1.3435-1.3435-1.69981-0.987202-1.9-0.503885-1.9 0-1.9 0.503885-1.69981 0.987202-1.3435 1.3435-0.987202 1.69981-0.503885 1.9 0 1.9Z" stroke="#FFFFFF" stroke-width="0.7125" stroke-linejoin="round" fill="#FF3333" transform="matrix(1.00146 0 0 1 985.891 211.486)"/><path d="M0 1.9C0.503885 1.9 0.987202 1.69981 1.3435 1.3435 1.69981 0.987202 1.9 0.503885 1.9 0 1.9-0.503885 1.69981-0.987202 1.3435-1.3435 0.987202-1.69981 0.503885-1.9 0-1.9-0.503885-1.9-0.987202-1.69981-1.3435-1.3435-1.69981-0.987202-1.9-0.503885-1.9 0-1.9 0.503885-1.69981 0.987202-1.3435 1.3435-0.987202 1.69981-0.503885 1.9 0 1.9Z" stroke="#FFFFFF" stroke-width="0.7125" stroke-linejoin="round" fill="#FF3333" transform="matrix(1.00146 0 0 1 1018.68 226.784)"/><path d="M0 1.9C0.503885 1.9 0.987202 1.69981 1.3435 1.3435 1.69981 0.987202 1.9 0.503885 1.9 0 1.9-0.503885 1.69981-0.987202 1.3435-1.3435 0.987202-1.69981 0.503885-1.9 0-1.9-0.503885-1.9-0.987202-1.69981-1.3435-1.3435-1.69981-0.987202-1.9-0.503885-1.9 0-1.9 0.503885-1.69981 0.987202-1.3435 1.3435-0.987202 1.69981-0.503885 1.9 0 1.9Z" stroke="#FFFFFF" stroke-width="0.7125" stroke-linejoin="round" fill="#FF3333" transform="matrix(1.00146 0 0 1 1051.46 238.53)"/><path d="M0 1.9C0.503885 1.9 0.987202 1.69981 1.3435 1.3435 1.69981 0.987202 1.9 0.503885 1.9 0 1.9-0.503885 1.69981-0.987202 1.3435-1.3435 0.987202-1.69981 0.503885-1.9 0-1.9-0.503885-1.9-0.987202-1.69981-1.3435-1.3435-1.69981-0.987202-1.9-0.503885-1.9 0-1.9 0.503885-1.69981 0.987202-1.3435 1.3435-0.987202 1.69981-0.503885 1.9 0 1.9Z" stroke="#FFFFFF" stroke-width="0.7125" stroke-linejoin="round" fill="#FF3333" transform="matrix(1.00146 0 0 1 1084.25 242.355)"/><path d="M0 1.9C0.503885 1.9 0.987202 1.69981 1.3435 1.3435 1.69981 0.987202 1.9 0.503885 1.9 0 1.9-0.503885 1.69981-0.987202 1.3435-1.3435 0.987202-1.69981 0.503885-1.9 0-1.9-0.503885-1.9-0.987202-1.69981-1.3435-1.3435-1.69981-0.987202-1.9-0.503885-1.9 0-1.9 0.503885-1.69981 0.987202-1.3435 1.3435-0.987202 1.69981-0.503885 1.9 0 1.9Z" stroke="#FFFFFF" stroke-width="0.7125" stroke-linejoin="round" fill="#FF3333" transform="matrix(1.00146 0 0 1 1117.03 253.008)"/><path d="M0 1.9C0.503885 1.9 0.987202 1.69981 1.3435 1.3435 1.69981 0.987202 1.9 0.503885 1.9 0 1.9-0.503885 1.69981-0.987202 1.3435-1.3435 0.987202-1.69981 0.503885-1.9 0-1.9-0.503885-1.9-0.987202-1.69981-1.3435-1.3435-1.69981-0.987202-1.9-0.503885-1.9 0-1.9 0.503885-1.69981 0.987202-1.3435 1.3435-0.987202 1.69981-0.503885 1.9 0 1.9Z" stroke="#FFFFFF" stroke-width="0.7125" stroke-linejoin="round" fill="#FF3333" transform="matrix(1.00146 0 0 1 1149.82 247.272)"/><path d="M0 1.9C0.503885 1.9 0.987202 1.69981 1.3435 1.3435 1.69981 0.987202 1.9 0.503885 1.9 0 1.9-0.503885 1.69981-0.987202 1.3435-1.3435 0.987202-1.69981 0.503885-1.9 0-1.9-0.503885-1.9-0.987202-1.69981-1.3435-1.3435-1.69981-0.987202-1.9-0.503885-1.9 0-1.9 0.503885-1.69981 0.987202-1.3435 1.3435-0.987202 1.69981-0.503885 1.9 0 1.9Z" stroke="#FFFFFF" stroke-width="0.7125" stroke-linejoin="round" fill="#FF3333" transform="matrix(1.00146 0 0 1 1182.6 249.184)"/><path d="M0 1.9C0.503885 1.9 0.987202 1.69981 1.3435 1.3435 1.69981 0.987202 1.9 0.503885 1.9 0 1.9-0.503885 1.69981-0.987202 1.3435-1.3435 0.987202-1.69981 0.503885-1.9 0-1.9-0.503885-1.9-0.987202-1.69981-1.3435-1.3435-1.69981-0.987202-1.9-0.503885-1.9 0-1.9 0.503885-1.69981 0.987202-1.3435 1.3435-0.987202 1.69981-0.503885 1.9 0 1.9Z" stroke="#FFFFFF" stroke-width="0.7125" stroke-linejoin="round" fill="#FF3333" transform="matrix(1.00146 0 0 1 1215.39 260.384)"/></g><g><path d="M27.8503 29.4562 60.5877 31.9148 93.3251 55.6809 126.063 80.8132 158.8 76.7153 191.537 95.5643 224.275 89.5546 257.012 85.4568" stroke="#00994D" stroke-width="1.1875" stroke-linecap="square" stroke-linejoin="round" fill="none" transform="matrix(1.00146 0 0 1 958 164)"/></g><g><path d="M-1.9 1.9 1.9 1.9 1.9-1.9-1.9-1.9Z" stroke="#FFFFFF" stroke-width="0.7125" fill="#00994D" transform="matrix(1.00146 0 0 1 985.891 193.456)"/><path d="M-1.9 1.9 1.9 1.9 1.9-1.9-1.9-1.9Z" stroke="#FFFFFF" stroke-width="0.7125" fill="#00994D" transform="matrix(1.00146 0 0 1 1018.68 195.915)"/><path d="M-1.9 1.9 1.9 1.9 1.9-1.9-1.9-1.9Z" stroke="#FFFFFF" stroke-width="0.7125" fill="#00994D" transform="matrix(1.00146 0 0 1 1051.46 219.681)"/><path d="M-1.9 1.9 1.9 1.9 1.9-1.9-1.9-1.9Z" stroke="#FFFFFF" stroke-width="0.7125" fill="#00994D" transform="matrix(1.00146 0 0 1 1084.25 244.813)"/><path d="M-1.9 1.9 1.9 1.9 1.9-1.9-1.9-1.9Z" stroke="#FFFFFF" stroke-width="0.7125" fill="#00994D" transform="matrix(1.00146 0 0 1 1117.03 240.715)"/><path d="M-1.9 1.9 1.9 1.9 1.9-1.9-1.9-1.9Z" stroke="#FFFFFF" stroke-width="0.7125" fill="#00994D" transform="matrix(1.00146 0 0 1 1149.82 259.564)"/><path d="M-1.9 1.9 1.9 1.9 1.9-1.9-1.9-1.9Z" stroke="#FFFFFF" stroke-width="0.7125" fill="#00994D" transform="matrix(1.00146 0 0 1 1182.6 253.555)"/><path d="M-1.9 1.9 1.9 1.9 1.9-1.9-1.9-1.9Z" stroke="#FFFFFF" stroke-width="0.7125" fill="#00994D" transform="matrix(1.00146 0 0 1 1215.39 249.457)"/></g><g><path d="M27.8503 81.6326 60.5877 87.9154 93.3251 87.6423 126.063 95.8374 158.8 100.481 191.537 107.038 224.275 110.316 257.012 109.223" stroke="#FF9900" stroke-width="1.1875" stroke-linecap="square" stroke-linejoin="round" fill="none" transform="matrix(1.00146 0 0 1 958 164)"/></g><g><path d="M0 2.687 2.687 0 0-2.687-2.687 0Z" stroke="#FFFFFF" stroke-width="0.7125" fill="#FF9900" transform="matrix(1.00146 0 0 1 985.891 245.633)"/><path d="M0 2.687 2.687 0 0-2.687-2.687 0Z" stroke="#FFFFFF" stroke-width="0.7125" fill="#FF9900" transform="matrix(1.00146 0 0 1 1018.68 251.915)"/><path d="M0 2.687 2.687 0 0-2.687-2.687 0Z" stroke="#FFFFFF" stroke-width="0.7125" fill="#FF9900" transform="matrix(1.00146 0 0 1 1051.46 251.642)"/><path d="M0 2.687 2.687 0 0-2.687-2.687 0Z" stroke="#FFFFFF" stroke-width="0.7125" fill="#FF9900" transform="matrix(1.00146 0 0 1 1084.25 259.837)"/><path d="M0 2.687 2.687 0 0-2.687-2.687 0Z" stroke="#FFFFFF" stroke-width="0.7125" fill="#FF9900" transform="matrix(1.00146 0 0 1 1117.03 264.482)"/><path d="M0 2.687 2.687 0 0-2.687-2.687 0Z" stroke="#FFFFFF" stroke-width="0.7125" fill="#FF9900" transform="matrix(1.00146 0 0 1 1149.82 271.038)"/><path d="M0 2.687 2.687 0 0-2.687-2.687 0Z" stroke="#FFFFFF" stroke-width="0.7125" fill="#FF9900" transform="matrix(1.00146 0 0 1 1182.6 274.316)"/><path d="M0 2.687 2.687 0 0-2.687-2.687 0Z" stroke="#FFFFFF" stroke-width="0.7125" fill="#FF9900" transform="matrix(1.00146 0 0 1 1215.39 273.223)"/></g><g><path d="M27.8503 84.9105 60.5877 99.389 93.3251 121.789 126.063 128.619 158.8 137.906 191.537 137.087 224.275 142.55 257.012 148.834" stroke="#9933CC" stroke-width="1.1875" stroke-linecap="square" stroke-linejoin="round" fill="none" transform="matrix(1.00146 0 0 1 958 164)"/></g><g><path d="M0 1.9 1.9-1.9-1.9-1.9Z" stroke="#FFFFFF" stroke-width="0.7125" fill="#9933CC" transform="matrix(1.00146 0 0 1 985.891 248.911)"/><path d="M0 1.9 1.9-1.9-1.9-1.9Z" stroke="#FFFFFF" stroke-width="0.7125" fill="#9933CC" transform="matrix(1.00146 0 0 1 1018.68 263.389)"/><path d="M0 1.9 1.9-1.9-1.9-1.9Z" stroke="#FFFFFF" stroke-width="0.7125" fill="#9933CC" transform="matrix(1.00146 0 0 1 1051.46 285.789)"/><path d="M0 1.9 1.9-1.9-1.9-1.9Z" stroke="#FFFFFF" stroke-width="0.7125" fill="#9933CC" transform="matrix(1.00146 0 0 1 1084.25 292.619)"/><path d="M0 1.9 1.9-1.9-1.9-1.9Z" stroke="#FFFFFF" stroke-width="0.7125" fill="#9933CC" transform="matrix(1.00146 0 0 1 1117.03 301.906)"/><path d="M0 1.9 1.9-1.9-1.9-1.9Z" stroke="#FFFFFF" stroke-width="0.7125" fill="#9933CC" transform="matrix(1.00146 0 0 1 1149.82 301.087)"/><path d="M0 1.9 1.9-1.9-1.9-1.9Z" stroke="#FFFFFF" stroke-width="0.7125" fill="#9933CC" transform="matrix(1.00146 0 0 1 1182.6 306.55)"/><path d="M0 1.9 1.9-1.9-1.9-1.9Z" stroke="#FFFFFF" stroke-width="0.7125" fill="#9933CC" transform="matrix(1.00146 0 0 1 1215.39 312.834)"/></g><g><path d="M27.8503 51.31 257.012 51.31" stroke="#0099CC" stroke-width="1.1875" stroke-linejoin="round" stroke-dasharray="4.39375 1.9" stroke-opacity="0.8" fill="none" transform="matrix(1.00146 0 0 1 958 164)"/></g><g><path d="M27.8503 16.8901 257.012 16.8901" stroke="#FF3399" stroke-width="1.1875" stroke-linejoin="round" stroke-dasharray="4.39375 1.9" stroke-opacity="0.8" fill="none" transform="matrix(1.00146 0 0 1 958 164)"/></g><g><path d="M27.8503 11.973 257.012 11.973" stroke="#CCCC00" stroke-width="1.1875" stroke-linejoin="round" stroke-dasharray="4.39375 1.9" stroke-opacity="0.8" fill="none" transform="matrix(1.00146 0 0 1 958 164)"/></g><path d="M16.3922 155.676 16.3922 5.13" stroke="#000000" stroke-width="0.7125" stroke-linecap="square" fill="none" transform="matrix(1.00146 0 0 1 958 164)"/><path d="M268.47 155.676 268.47 5.13" stroke="#000000" stroke-width="0.7125" stroke-linecap="square" fill="none" transform="matrix(1.00146 0 0 1 958 164)"/><path d="M16.3922 155.676 268.47 155.676" stroke="#000000" stroke-width="0.7125" stroke-linecap="square" fill="none" transform="matrix(1.00146 0 0 1 958 164)"/><path d="M16.3922 5.13 268.47 5.13" stroke="#000000" stroke-width="0.7125" stroke-linecap="square" fill="none" transform="matrix(1.00146 0 0 1 958 164)"/></g></g></g><g><g><g><g><path d="M27.8095 155.676 27.8095 5.13" stroke="#808080" stroke-width="0.38" stroke-linejoin="round" stroke-dasharray="0.38 0.627" stroke-opacity="0.4" fill="none" transform="matrix(1.00512 0 0 1 683 164)"/></g><path d="M0 0 0 2.375" stroke="#000000" stroke-width="0.7125" stroke-linejoin="round" fill="none" transform="matrix(1.00512 0 0 1 710.952 319.677)"/><text font-family="Verdana,Verdana_MSFontService,sans-serif" font-weight="400" font-size="12" transform="matrix(0.477431 0 0 0.475 709.131 328)">1</text><g><path d="M60.5525 155.676 60.5525 5.13" stroke="#808080" stroke-width="0.38" stroke-linejoin="round" stroke-dasharray="0.38 0.627" stroke-opacity="0.4" fill="none" transform="matrix(1.00512 0 0 1 683 164)"/></g><path d="M0 0 0 2.375" stroke="#000000" stroke-width="0.7125" stroke-linejoin="round" fill="none" transform="matrix(1.00512 0 0 1 743.862 319.677)"/><text font-family="Verdana,Verdana_MSFontService,sans-serif" font-weight="400" font-size="12" transform="matrix(0.477431 0 0 0.475 742.041 328)">2</text><g><path d="M93.2952 155.676 93.2952 5.13" stroke="#808080" stroke-width="0.38" stroke-linejoin="round" stroke-dasharray="0.38 0.627" stroke-opacity="0.4" fill="none" transform="matrix(1.00512 0 0 1 683 164)"/></g><path d="M0 0 0 2.375" stroke="#000000" stroke-width="0.7125" stroke-linejoin="round" fill="none" transform="matrix(1.00512 0 0 1 776.773 319.677)"/><text font-family="Verdana,Verdana_MSFontService,sans-serif" font-weight="400" font-size="12" transform="matrix(0.477431 0 0 0.475 774.951 328)">3</text><g><path d="M126.038 155.676 126.038 5.13" stroke="#808080" stroke-width="0.38" stroke-linejoin="round" stroke-dasharray="0.38 0.627" stroke-opacity="0.4" fill="none" transform="matrix(1.00512 0 0 1 683 164)"/></g><path d="M0 0 0 2.375" stroke="#000000" stroke-width="0.7125" stroke-linejoin="round" fill="none" transform="matrix(1.00512 0 0 1 809.683 319.677)"/><text font-family="Verdana,Verdana_MSFontService,sans-serif" font-weight="400" font-size="12" transform="matrix(0.477431 0 0 0.475 807.862 328)">4</text><g><path d="M158.781 155.676 158.781 5.13" stroke="#808080" stroke-width="0.38" stroke-linejoin="round" stroke-dasharray="0.38 0.627" stroke-opacity="0.4" fill="none" transform="matrix(1.00512 0 0 1 683 164)"/></g><path d="M0 0 0 2.375" stroke="#000000" stroke-width="0.7125" stroke-linejoin="round" fill="none" transform="matrix(1.00512 0 0 1 842.594 319.677)"/><text font-family="Verdana,Verdana_MSFontService,sans-serif" font-weight="400" font-size="12" transform="matrix(0.477431 0 0 0.475 840.772 328)">5</text><g><path d="M191.524 155.676 191.524 5.13" stroke="#808080" stroke-width="0.38" stroke-linejoin="round" stroke-dasharray="0.38 0.627" stroke-opacity="0.4" fill="none" transform="matrix(1.00512 0 0 1 683 164)"/></g><path d="M0 0 0 2.375" stroke="#000000" stroke-width="0.7125" stroke-linejoin="round" fill="none" transform="matrix(1.00512 0 0 1 875.504 319.677)"/><text font-family="Verdana,Verdana_MSFontService,sans-serif" font-weight="400" font-size="12" transform="matrix(0.477431 0 0 0.475 873.683 328)">6</text><g><path d="M224.267 155.676 224.267 5.13" stroke="#808080" stroke-width="0.38" stroke-linejoin="round" stroke-dasharray="0.38 0.627" stroke-opacity="0.4" fill="none" transform="matrix(1.00512 0 0 1 683 164)"/></g><path d="M0 0 0 2.375" stroke="#000000" stroke-width="0.7125" stroke-linejoin="round" fill="none" transform="matrix(1.00512 0 0 1 908.415 319.677)"/><text font-family="Verdana,Verdana_MSFontService,sans-serif" font-weight="400" font-size="12" transform="matrix(0.477431 0 0 0.475 906.593 328)">7</text><g><path d="M257.01 155.676 257.01 5.13" stroke="#808080" stroke-width="0.38" stroke-linejoin="round" stroke-dasharray="0.38 0.627" stroke-opacity="0.4" fill="none" transform="matrix(1.00512 0 0 1 683 164)"/></g><path d="M0 0 0 2.375" stroke="#000000" stroke-width="0.7125" stroke-linejoin="round" fill="none" transform="matrix(1.00512 0 0 1 941.325 319.677)"/><text font-family="Verdana,Verdana_MSFontService,sans-serif" font-weight="400" font-size="12" transform="matrix(0.477431 0 0 0.475 939.504 328)">8</text><g><path d="M16.3495 153.182 268.47 153.182" stroke="#808080" stroke-width="0.38" stroke-linejoin="round" stroke-dasharray="0.38 0.627" stroke-opacity="0.4" fill="none" transform="matrix(1.00512 0 0 1 683 164)"/></g><path d="M0 0-2.375 0" stroke="#000000" stroke-width="0.7125" stroke-linejoin="round" fill="none" transform="matrix(1.00512 0 0 1 699.433 317.182)"/><text font-family="Verdana,Verdana_MSFontService,sans-serif" font-weight="400" font-size="12" transform="matrix(0.477431 0 0 0.475 688.09 319)">50</text><g><path d="M16.3495 130.295 268.47 130.295" stroke="#808080" stroke-width="0.38" stroke-linejoin="round" stroke-dasharray="0.38 0.627" stroke-opacity="0.4" fill="none" transform="matrix(1.00512 0 0 1 683 164)"/></g><path d="M0 0-2.375 0" stroke="#000000" stroke-width="0.7125" stroke-linejoin="round" fill="none" transform="matrix(1.00512 0 0 1 699.433 294.295)"/><text font-family="Verdana,Verdana_MSFontService,sans-serif" font-weight="400" font-size="12" transform="matrix(0.477431 0 0 0.475 688.09 296)">55</text><g><path d="M16.3495 107.409 268.47 107.409" stroke="#808080" stroke-width="0.38" stroke-linejoin="round" stroke-dasharray="0.38 0.627" stroke-opacity="0.4" fill="none" transform="matrix(1.00512 0 0 1 683 164)"/></g><path d="M0 0-2.375 0" stroke="#000000" stroke-width="0.7125" stroke-linejoin="round" fill="none" transform="matrix(1.00512 0 0 1 699.433 271.409)"/><text font-family="Verdana,Verdana_MSFontService,sans-serif" font-weight="400" font-size="12" transform="matrix(0.477431 0 0 0.475 688.09 274)">60</text><g><path d="M16.3495 84.5229 268.47 84.5229" stroke="#808080" stroke-width="0.38" stroke-linejoin="round" stroke-dasharray="0.38 0.627" stroke-opacity="0.4" fill="none" transform="matrix(1.00512 0 0 1 683 164)"/></g><path d="M0 0-2.375 0" stroke="#000000" stroke-width="0.7125" stroke-linejoin="round" fill="none" transform="matrix(1.00512 0 0 1 699.433 248.523)"/><text font-family="Verdana,Verdana_MSFontService,sans-serif" font-weight="400" font-size="12" transform="matrix(0.477431 0 0 0.475 688.09 251)">65</text><g><path d="M16.3495 61.6365 268.47 61.6365" stroke="#808080" stroke-width="0.38" stroke-linejoin="round" stroke-dasharray="0.38 0.627" stroke-opacity="0.4" fill="none" transform="matrix(1.00512 0 0 1 683 164)"/></g><path d="M0 0-2.375 0" stroke="#000000" stroke-width="0.7125" stroke-linejoin="round" fill="none" transform="matrix(1.00512 0 0 1 699.433 225.636)"/><text font-family="Verdana,Verdana_MSFontService,sans-serif" font-weight="400" font-size="12" transform="matrix(0.477431 0 0 0.475 688.09 228)">70</text><g><path d="M16.3495 38.7501 268.47 38.7501" stroke="#808080" stroke-width="0.38" stroke-linejoin="round" stroke-dasharray="0.38 0.627" stroke-opacity="0.4" fill="none" transform="matrix(1.00512 0 0 1 683 164)"/></g><path d="M0 0-2.375 0" stroke="#000000" stroke-width="0.7125" stroke-linejoin="round" fill="none" transform="matrix(1.00512 0 0 1 699.433 202.75)"/><text font-family="Verdana,Verdana_MSFontService,sans-serif" font-weight="400" font-size="12" transform="matrix(0.477431 0 0 0.475 688.09 205)">75</text><g><path d="M16.3495 15.8637 268.47 15.8637" stroke="#808080" stroke-width="0.38" stroke-linejoin="round" stroke-dasharray="0.38 0.627" stroke-opacity="0.4" fill="none" transform="matrix(1.00512 0 0 1 683 164)"/></g><path d="M0 0-2.375 0" stroke="#000000" stroke-width="0.7125" stroke-linejoin="round" fill="none" transform="matrix(1.00512 0 0 1 699.433 179.864)"/><text font-family="Verdana,Verdana_MSFontService,sans-serif" font-weight="400" font-size="12" transform="matrix(0.477431 0 0 0.475 688.09 182)">80</text><g><path d="M27.8095 11.973 257.01 11.973" stroke="#0066CC" stroke-width="1.1875" stroke-linejoin="round" stroke-dasharray="4.39375 1.9" stroke-opacity="0.8" fill="none" transform="matrix(1.00512 0 0 1 683 164)"/></g><g><path d="M27.8095 44.7005 60.5525 93.2197 93.2952 38.0635 126.038 41.9542 158.781 61.6365 191.524 120.454 224.267 139.908 257.01 148.834" stroke="#FF3333" stroke-width="1.1875" stroke-linecap="square" stroke-linejoin="round" fill="none" transform="matrix(1.00512 0 0 1 683 164)"/></g><g><path d="M0 1.9C0.503885 1.9 0.987202 1.69981 1.3435 1.3435 1.69981 0.987202 1.9 0.503885 1.9 0 1.9-0.503885 1.69981-0.987202 1.3435-1.3435 0.987202-1.69981 0.503885-1.9 0-1.9-0.503885-1.9-0.987202-1.69981-1.3435-1.3435-1.69981-0.987202-1.9-0.503885-1.9 0-1.9 0.503885-1.69981 0.987202-1.3435 1.3435-0.987202 1.69981-0.503885 1.9 0 1.9Z" stroke="#FFFFFF" stroke-width="0.7125" stroke-linejoin="round" fill="#FF3333" transform="matrix(1.00512 0 0 1 710.952 208.701)"/><path d="M0 1.9C0.503885 1.9 0.987202 1.69981 1.3435 1.3435 1.69981 0.987202 1.9 0.503885 1.9 0 1.9-0.503885 1.69981-0.987202 1.3435-1.3435 0.987202-1.69981 0.503885-1.9 0-1.9-0.503885-1.9-0.987202-1.69981-1.3435-1.3435-1.69981-0.987202-1.9-0.503885-1.9 0-1.9 0.503885-1.69981 0.987202-1.3435 1.3435-0.987202 1.69981-0.503885 1.9 0 1.9Z" stroke="#FFFFFF" stroke-width="0.7125" stroke-linejoin="round" fill="#FF3333" transform="matrix(1.00512 0 0 1 743.862 257.22)"/><path d="M0 1.9C0.503885 1.9 0.987202 1.69981 1.3435 1.3435 1.69981 0.987202 1.9 0.503885 1.9 0 1.9-0.503885 1.69981-0.987202 1.3435-1.3435 0.987202-1.69981 0.503885-1.9 0-1.9-0.503885-1.9-0.987202-1.69981-1.3435-1.3435-1.69981-0.987202-1.9-0.503885-1.9 0-1.9 0.503885-1.69981 0.987202-1.3435 1.3435-0.987202 1.69981-0.503885 1.9 0 1.9Z" stroke="#FFFFFF" stroke-width="0.7125" stroke-linejoin="round" fill="#FF3333" transform="matrix(1.00512 0 0 1 776.773 202.063)"/><path d="M0 1.9C0.503885 1.9 0.987202 1.69981 1.3435 1.3435 1.69981 0.987202 1.9 0.503885 1.9 0 1.9-0.503885 1.69981-0.987202 1.3435-1.3435 0.987202-1.69981 0.503885-1.9 0-1.9-0.503885-1.9-0.987202-1.69981-1.3435-1.3435-1.69981-0.987202-1.9-0.503885-1.9 0-1.9 0.503885-1.69981 0.987202-1.3435 1.3435-0.987202 1.69981-0.503885 1.9 0 1.9Z" stroke="#FFFFFF" stroke-width="0.7125" stroke-linejoin="round" fill="#FF3333" transform="matrix(1.00512 0 0 1 809.683 205.954)"/><path d="M0 1.9C0.503885 1.9 0.987202 1.69981 1.3435 1.3435 1.69981 0.987202 1.9 0.503885 1.9 0 1.9-0.503885 1.69981-0.987202 1.3435-1.3435 0.987202-1.69981 0.503885-1.9 0-1.9-0.503885-1.9-0.987202-1.69981-1.3435-1.3435-1.69981-0.987202-1.9-0.503885-1.9 0-1.9 0.503885-1.69981 0.987202-1.3435 1.3435-0.987202 1.69981-0.503885 1.9 0 1.9Z" stroke="#FFFFFF" stroke-width="0.7125" stroke-linejoin="round" fill="#FF3333" transform="matrix(1.00512 0 0 1 842.594 225.636)"/><path d="M0 1.9C0.503885 1.9 0.987202 1.69981 1.3435 1.3435 1.69981 0.987202 1.9 0.503885 1.9 0 1.9-0.503885 1.69981-0.987202 1.3435-1.3435 0.987202-1.69981 0.503885-1.9 0-1.9-0.503885-1.9-0.987202-1.69981-1.3435-1.3435-1.69981-0.987202-1.9-0.503885-1.9 0-1.9 0.503885-1.69981 0.987202-1.3435 1.3435-0.987202 1.69981-0.503885 1.9 0 1.9Z" stroke="#FFFFFF" stroke-width="0.7125" stroke-linejoin="round" fill="#FF3333" transform="matrix(1.00512 0 0 1 875.504 284.454)"/><path d="M0 1.9C0.503885 1.9 0.987202 1.69981 1.3435 1.3435 1.69981 0.987202 1.9 0.503885 1.9 0 1.9-0.503885 1.69981-0.987202 1.3435-1.3435 0.987202-1.69981 0.503885-1.9 0-1.9-0.503885-1.9-0.987202-1.69981-1.3435-1.3435-1.69981-0.987202-1.9-0.503885-1.9 0-1.9 0.503885-1.69981 0.987202-1.3435 1.3435-0.987202 1.69981-0.503885 1.9 0 1.9Z" stroke="#FFFFFF" stroke-width="0.7125" stroke-linejoin="round" fill="#FF3333" transform="matrix(1.00512 0 0 1 908.415 303.908)"/><path d="M0 1.9C0.503885 1.9 0.987202 1.69981 1.3435 1.3435 1.69981 0.987202 1.9 0.503885 1.9 0 1.9-0.503885 1.69981-0.987202 1.3435-1.3435 0.987202-1.69981 0.503885-1.9 0-1.9-0.503885-1.9-0.987202-1.69981-1.3435-1.3435-1.69981-0.987202-1.9-0.503885-1.9 0-1.9 0.503885-1.69981 0.987202-1.3435 1.3435-0.987202 1.69981-0.503885 1.9 0 1.9Z" stroke="#FFFFFF" stroke-width="0.7125" stroke-linejoin="round" fill="#FF3333" transform="matrix(1.00512 0 0 1 941.325 312.834)"/></g><g><path d="M27.8095 42.183 60.5525 45.616 93.2952 71.2486 126.038 62.5518 158.781 59.5769 191.524 93.6771 224.267 82.6918 257.01 99.17" stroke="#00994D" stroke-width="1.1875" stroke-linecap="square" stroke-linejoin="round" fill="none" transform="matrix(1.00512 0 0 1 683 164)"/></g><g><path d="M-1.9 1.9 1.9 1.9 1.9-1.9-1.9-1.9Z" stroke="#FFFFFF" stroke-width="0.7125" fill="#00994D" transform="matrix(1.00512 0 0 1 710.952 206.183)"/><path d="M-1.9 1.9 1.9 1.9 1.9-1.9-1.9-1.9Z" stroke="#FFFFFF" stroke-width="0.7125" fill="#00994D" transform="matrix(1.00512 0 0 1 743.862 209.616)"/><path d="M-1.9 1.9 1.9 1.9 1.9-1.9-1.9-1.9Z" stroke="#FFFFFF" stroke-width="0.7125" fill="#00994D" transform="matrix(1.00512 0 0 1 776.773 235.249)"/><path d="M-1.9 1.9 1.9 1.9 1.9-1.9-1.9-1.9Z" stroke="#FFFFFF" stroke-width="0.7125" fill="#00994D" transform="matrix(1.00512 0 0 1 809.683 226.552)"/><path d="M-1.9 1.9 1.9 1.9 1.9-1.9-1.9-1.9Z" stroke="#FFFFFF" stroke-width="0.7125" fill="#00994D" transform="matrix(1.00512 0 0 1 842.594 223.577)"/><path d="M-1.9 1.9 1.9 1.9 1.9-1.9-1.9-1.9Z" stroke="#FFFFFF" stroke-width="0.7125" fill="#00994D" transform="matrix(1.00512 0 0 1 875.504 257.677)"/><path d="M-1.9 1.9 1.9 1.9 1.9-1.9-1.9-1.9Z" stroke="#FFFFFF" stroke-width="0.7125" fill="#00994D" transform="matrix(1.00512 0 0 1 908.415 246.692)"/><path d="M-1.9 1.9 1.9 1.9 1.9-1.9-1.9-1.9Z" stroke="#FFFFFF" stroke-width="0.7125" fill="#00994D" transform="matrix(1.00512 0 0 1 941.325 263.17)"/></g><g><path d="M27.8095 53.6261 60.5525 118.852 93.2952 80.8611 126.038 57.5168 158.781 59.8053 191.524 58.6611 224.267 59.3479 257.01 57.9747" stroke="#FF9900" stroke-width="1.1875" stroke-linecap="square" stroke-linejoin="round" fill="none" transform="matrix(1.00512 0 0 1 683 164)"/></g><g><path d="M0 2.687 2.687 0 0-2.687-2.687 0Z" stroke="#FFFFFF" stroke-width="0.7125" fill="#FF9900" transform="matrix(1.00512 0 0 1 710.952 217.626)"/><path d="M0 2.687 2.687 0 0-2.687-2.687 0Z" stroke="#FFFFFF" stroke-width="0.7125" fill="#FF9900" transform="matrix(1.00512 0 0 1 743.862 282.852)"/><path d="M0 2.687 2.687 0 0-2.687-2.687 0Z" stroke="#FFFFFF" stroke-width="0.7125" fill="#FF9900" transform="matrix(1.00512 0 0 1 776.773 244.861)"/><path d="M0 2.687 2.687 0 0-2.687-2.687 0Z" stroke="#FFFFFF" stroke-width="0.7125" fill="#FF9900" transform="matrix(1.00512 0 0 1 809.683 221.517)"/><path d="M0 2.687 2.687 0 0-2.687-2.687 0Z" stroke="#FFFFFF" stroke-width="0.7125" fill="#FF9900" transform="matrix(1.00512 0 0 1 842.594 223.805)"/><path d="M0 2.687 2.687 0 0-2.687-2.687 0Z" stroke="#FFFFFF" stroke-width="0.7125" fill="#FF9900" transform="matrix(1.00512 0 0 1 875.504 222.661)"/><path d="M0 2.687 2.687 0 0-2.687-2.687 0Z" stroke="#FFFFFF" stroke-width="0.7125" fill="#FF9900" transform="matrix(1.00512 0 0 1 908.415 223.348)"/><path d="M0 2.687 2.687 0 0-2.687-2.687 0Z" stroke="#FFFFFF" stroke-width="0.7125" fill="#FF9900" transform="matrix(1.00512 0 0 1 941.325 221.975)"/></g><g><path d="M27.8095 15.406 60.5525 20.6698 93.2952 24.7894 126.038 19.7544 158.781 25.2471 191.524 27.7646 224.267 30.7399 257.01 29.8244" stroke="#9933CC" stroke-width="1.1875" stroke-linecap="square" stroke-linejoin="round" fill="none" transform="matrix(1.00512 0 0 1 683 164)"/></g><g><path d="M0 1.9 1.9-1.9-1.9-1.9Z" stroke="#FFFFFF" stroke-width="0.7125" fill="#9933CC" transform="matrix(1.00512 0 0 1 710.952 179.406)"/><path d="M0 1.9 1.9-1.9-1.9-1.9Z" stroke="#FFFFFF" stroke-width="0.7125" fill="#9933CC" transform="matrix(1.00512 0 0 1 743.862 184.67)"/><path d="M0 1.9 1.9-1.9-1.9-1.9Z" stroke="#FFFFFF" stroke-width="0.7125" fill="#9933CC" transform="matrix(1.00512 0 0 1 776.773 188.789)"/><path d="M0 1.9 1.9-1.9-1.9-1.9Z" stroke="#FFFFFF" stroke-width="0.7125" fill="#9933CC" transform="matrix(1.00512 0 0 1 809.683 183.754)"/><path d="M0 1.9 1.9-1.9-1.9-1.9Z" stroke="#FFFFFF" stroke-width="0.7125" fill="#9933CC" transform="matrix(1.00512 0 0 1 842.594 189.247)"/><path d="M0 1.9 1.9-1.9-1.9-1.9Z" stroke="#FFFFFF" stroke-width="0.7125" fill="#9933CC" transform="matrix(1.00512 0 0 1 875.504 191.765)"/><path d="M0 1.9 1.9-1.9-1.9-1.9Z" stroke="#FFFFFF" stroke-width="0.7125" fill="#9933CC" transform="matrix(1.00512 0 0 1 908.415 194.74)"/><path d="M0 1.9 1.9-1.9-1.9-1.9Z" stroke="#FFFFFF" stroke-width="0.7125" fill="#9933CC" transform="matrix(1.00512 0 0 1 941.325 193.824)"/></g><g><path d="M27.8095 13.5751 257.01 13.5751" stroke="#0099CC" stroke-width="1.1875" stroke-linejoin="round" stroke-dasharray="4.39375 1.9" stroke-opacity="0.8" fill="none" transform="matrix(1.00512 0 0 1 683 164)"/></g><g><path d="M27.8095 116.564 257.01 116.564" stroke="#FF3399" stroke-width="1.1875" stroke-linejoin="round" stroke-dasharray="4.39375 1.9" stroke-opacity="0.8" fill="none" transform="matrix(1.00512 0 0 1 683 164)"/></g><g><path d="M27.8095 47.6758 257.01 47.6758" stroke="#CCCC00" stroke-width="1.1875" stroke-linejoin="round" stroke-dasharray="4.39375 1.9" stroke-opacity="0.8" fill="none" transform="matrix(1.00512 0 0 1 683 164)"/></g><path d="M16.3495 155.676 16.3495 5.13" stroke="#000000" stroke-width="0.7125" stroke-linecap="square" fill="none" transform="matrix(1.00512 0 0 1 683 164)"/><path d="M268.47 155.676 268.47 5.13" stroke="#000000" stroke-width="0.7125" stroke-linecap="square" fill="none" transform="matrix(1.00512 0 0 1 683 164)"/><path d="M16.3495 155.676 268.47 155.676" stroke="#000000" stroke-width="0.7125" stroke-linecap="square" fill="none" transform="matrix(1.00512 0 0 1 683 164)"/><path d="M16.3495 5.13 268.47 5.13" stroke="#000000" stroke-width="0.7125" stroke-linecap="square" fill="none" transform="matrix(1.00512 0 0 1 683 164)"/></g></g></g><g><g><g><g><path d="M27.8911 155.904 27.8911 5.1375" stroke="#808080" stroke-width="0.380556" stroke-linejoin="round" stroke-dasharray="0.380556 0.627917" stroke-opacity="0.4" fill="none" transform="matrix(1 0 0 1.00438 99 164)"/></g><path d="M0 0 0 2.37847" stroke="#000000" stroke-width="0.713542" stroke-linejoin="round" fill="none" transform="matrix(1 0 0 1.00438 126.891 320.587)"/><text font-family="Verdana,Verdana_MSFontService,sans-serif" font-weight="400" font-size="12" transform="matrix(0.475694 0 0 0.477778 125.077 329)">1</text><g><path d="M60.6763 155.904 60.6763 5.1375" stroke="#808080" stroke-width="0.380556" stroke-linejoin="round" stroke-dasharray="0.380556 0.627917" stroke-opacity="0.4" fill="none" transform="matrix(1 0 0 1.00438 99 164)"/></g><path d="M0 0 0 2.37847" stroke="#000000" stroke-width="0.713542" stroke-linejoin="round" fill="none" transform="matrix(1 0 0 1.00438 159.676 320.587)"/><text font-family="Verdana,Verdana_MSFontService,sans-serif" font-weight="400" font-size="12" transform="matrix(0.475694 0 0 0.477778 157.862 329)">2</text><g><path d="M93.4616 155.904 93.4616 5.1375" stroke="#808080" stroke-width="0.380556" stroke-linejoin="round" stroke-dasharray="0.380556 0.627917" stroke-opacity="0.4" fill="none" transform="matrix(1 0 0 1.00438 99 164)"/></g><path d="M0 0 0 2.37847" stroke="#000000" stroke-width="0.713542" stroke-linejoin="round" fill="none" transform="matrix(1 0 0 1.00438 192.462 320.587)"/><text font-family="Verdana,Verdana_MSFontService,sans-serif" font-weight="400" font-size="12" transform="matrix(0.475694 0 0 0.477778 190.647 329)">3</text><g><path d="M126.247 155.904 126.247 5.1375" stroke="#808080" stroke-width="0.380556" stroke-linejoin="round" stroke-dasharray="0.380556 0.627917" stroke-opacity="0.4" fill="none" transform="matrix(1 0 0 1.00438 99 164)"/></g><path d="M0 0 0 2.37847" stroke="#000000" stroke-width="0.713542" stroke-linejoin="round" fill="none" transform="matrix(1 0 0 1.00438 225.247 320.587)"/><text font-family="Verdana,Verdana_MSFontService,sans-serif" font-weight="400" font-size="12" transform="matrix(0.475694 0 0 0.477778 223.432 329)">4</text><g><path d="M159.032 155.904 159.032 5.1375" stroke="#808080" stroke-width="0.380556" stroke-linejoin="round" stroke-dasharray="0.380556 0.627917" stroke-opacity="0.4" fill="none" transform="matrix(1 0 0 1.00438 99 164)"/></g><path d="M0 0 0 2.37847" stroke="#000000" stroke-width="0.713542" stroke-linejoin="round" fill="none" transform="matrix(1 0 0 1.00438 258.032 320.587)"/><text font-family="Verdana,Verdana_MSFontService,sans-serif" font-weight="400" font-size="12" transform="matrix(0.475694 0 0 0.477778 256.217 329)">5</text><g><path d="M191.817 155.904 191.817 5.1375" stroke="#808080" stroke-width="0.380556" stroke-linejoin="round" stroke-dasharray="0.380556 0.627917" stroke-opacity="0.4" fill="none" transform="matrix(1 0 0 1.00438 99 164)"/></g><path d="M0 0 0 2.37847" stroke="#000000" stroke-width="0.713542" stroke-linejoin="round" fill="none" transform="matrix(1 0 0 1.00438 290.817 320.587)"/><text font-family="Verdana,Verdana_MSFontService,sans-serif" font-weight="400" font-size="12" transform="matrix(0.475694 0 0 0.477778 289.003 329)">6</text><g><path d="M224.602 155.904 224.602 5.1375" stroke="#808080" stroke-width="0.380556" stroke-linejoin="round" stroke-dasharray="0.380556 0.627917" stroke-opacity="0.4" fill="none" transform="matrix(1 0 0 1.00438 99 164)"/></g><path d="M0 0 0 2.37847" stroke="#000000" stroke-width="0.713542" stroke-linejoin="round" fill="none" transform="matrix(1 0 0 1.00438 323.602 320.587)"/><text font-family="Verdana,Verdana_MSFontService,sans-serif" font-weight="400" font-size="12" transform="matrix(0.475694 0 0 0.477778 321.788 329)">7</text><g><path d="M257.388 155.904 257.388 5.1375" stroke="#808080" stroke-width="0.380556" stroke-linejoin="round" stroke-dasharray="0.380556 0.627917" stroke-opacity="0.4" fill="none" transform="matrix(1 0 0 1.00438 99 164)"/></g><path d="M0 0 0 2.37847" stroke="#000000" stroke-width="0.713542" stroke-linejoin="round" fill="none" transform="matrix(1 0 0 1.00438 356.388 320.587)"/><text font-family="Verdana,Verdana_MSFontService,sans-serif" font-weight="400" font-size="12" transform="matrix(0.475694 0 0 0.477778 354.573 329)">8</text><g><path d="M16.4162 144.775 268.863 144.775" stroke="#808080" stroke-width="0.380556" stroke-linejoin="round" stroke-dasharray="0.380556 0.627917" stroke-opacity="0.4" fill="none" transform="matrix(1 0 0 1.00438 99 164)"/></g><path d="M0 0-2.37847 0" stroke="#000000" stroke-width="0.713542" stroke-linejoin="round" fill="none" transform="matrix(1 0 0 1.00438 115.416 309.409)"/><text font-family="Verdana,Verdana_MSFontService,sans-serif" font-weight="400" font-size="12" transform="matrix(0.475694 0 0 0.477778 104.115 312)">30</text><g><path d="M16.4162 119.204 268.863 119.204" stroke="#808080" stroke-width="0.380556" stroke-linejoin="round" stroke-dasharray="0.380556 0.627917" stroke-opacity="0.4" fill="none" transform="matrix(1 0 0 1.00438 99 164)"/></g><path d="M0 0-2.37847 0" stroke="#000000" stroke-width="0.713542" stroke-linejoin="round" fill="none" transform="matrix(1 0 0 1.00438 115.416 283.726)"/><text font-family="Verdana,Verdana_MSFontService,sans-serif" font-weight="400" font-size="12" transform="matrix(0.475694 0 0 0.477778 104.115 286)">40</text><g><path d="M16.4162 93.6328 268.863 93.6328" stroke="#808080" stroke-width="0.380556" stroke-linejoin="round" stroke-dasharray="0.380556 0.627917" stroke-opacity="0.4" fill="none" transform="matrix(1 0 0 1.00438 99 164)"/></g><path d="M0 0-2.37847 0" stroke="#000000" stroke-width="0.713542" stroke-linejoin="round" fill="none" transform="matrix(1 0 0 1.00438 115.416 258.043)"/><text font-family="Verdana,Verdana_MSFontService,sans-serif" font-weight="400" font-size="12" transform="matrix(0.475694 0 0 0.477778 104.115 260)">50</text><g><path d="M16.4162 68.0619 268.863 68.0619" stroke="#808080" stroke-width="0.380556" stroke-linejoin="round" stroke-dasharray="0.380556 0.627917" stroke-opacity="0.4" fill="none" transform="matrix(1 0 0 1.00438 99 164)"/></g><path d="M0 0-2.37847 0" stroke="#000000" stroke-width="0.713542" stroke-linejoin="round" fill="none" transform="matrix(1 0 0 1.00438 115.416 232.36)"/><text font-family="Verdana,Verdana_MSFontService,sans-serif" font-weight="400" font-size="12" transform="matrix(0.475694 0 0 0.477778 104.115 235)">60</text><g><path d="M16.4162 42.4908 268.863 42.4908" stroke="#808080" stroke-width="0.380556" stroke-linejoin="round" stroke-dasharray="0.380556 0.627917" stroke-opacity="0.4" fill="none" transform="matrix(1 0 0 1.00438 99 164)"/></g><path d="M0 0-2.37847 0" stroke="#000000" stroke-width="0.713542" stroke-linejoin="round" fill="none" transform="matrix(1 0 0 1.00438 115.416 206.677)"/><text font-family="Verdana,Verdana_MSFontService,sans-serif" font-weight="400" font-size="12" transform="matrix(0.475694 0 0 0.477778 104.115 209)">70</text><g><path d="M16.4162 16.9199 268.863 16.9199" stroke="#808080" stroke-width="0.380556" stroke-linejoin="round" stroke-dasharray="0.380556 0.627917" stroke-opacity="0.4" fill="none" transform="matrix(1 0 0 1.00438 99 164)"/></g><path d="M0 0-2.37847 0" stroke="#000000" stroke-width="0.713542" stroke-linejoin="round" fill="none" transform="matrix(1 0 0 1.00438 115.416 180.994)"/><text font-family="Verdana,Verdana_MSFontService,sans-serif" font-weight="400" font-size="12" transform="matrix(0.475694 0 0 0.477778 104.115 183)">80</text><g><path d="M27.8911 12.3923 257.388 12.3923" stroke="#0066CC" stroke-width="1.18924" stroke-linejoin="round" stroke-dasharray="4.40017 1.90278" stroke-opacity="0.8" fill="none" transform="matrix(1 0 0 1.00438 99 164)"/></g><g><path d="M27.8911 23.5542 60.6763 36.1935 93.4616 29.3536 126.247 26.2912 159.032 32.0812 191.817 44.0713 224.602 48.3272 257.388 50.7257" stroke="#FF3333" stroke-width="1.18924" stroke-linecap="square" stroke-linejoin="round" fill="none" transform="matrix(1 0 0 1.00438 99 164)"/></g><g><path d="M0 1.90278C0.504621 1.90278 0.988645 1.70229 1.34547 1.34547 1.70229 0.988645 1.90278 0.504621 1.90278 0 1.90278-0.504621 1.70229-0.988645 1.34547-1.34547 0.988645-1.70229 0.504621-1.90278 0-1.90278-0.504621-1.90278-0.988645-1.70229-1.34547-1.34547-1.70229-0.988645-1.90278-0.504621-1.90278 0-1.90278 0.504621-1.70229 0.988645-1.34547 1.34547-0.988645 1.70229-0.504621 1.90278 0 1.90278Z" stroke="#FFFFFF" stroke-width="0.713542" stroke-linejoin="round" fill="#FF3333" transform="matrix(1 0 0 1.00438 126.891 187.657)"/><path d="M0 1.90278C0.504621 1.90278 0.988645 1.70229 1.34547 1.34547 1.70229 0.988645 1.90278 0.504621 1.90278 0 1.90278-0.504621 1.70229-0.988645 1.34547-1.34547 0.988645-1.70229 0.504621-1.90278 0-1.90278-0.504621-1.90278-0.988645-1.70229-1.34547-1.34547-1.70229-0.988645-1.90278-0.504621-1.90278 0-1.90278 0.504621-1.70229 0.988645-1.34547 1.34547-0.988645 1.70229-0.504621 1.90278 0 1.90278Z" stroke="#FFFFFF" stroke-width="0.713542" stroke-linejoin="round" fill="#FF3333" transform="matrix(1 0 0 1.00438 159.676 200.352)"/><path d="M0 1.90278C0.504621 1.90278 0.988645 1.70229 1.34547 1.34547 1.70229 0.988645 1.90278 0.504621 1.90278 0 1.90278-0.504621 1.70229-0.988645 1.34547-1.34547 0.988645-1.70229 0.504621-1.90278 0-1.90278-0.504621-1.90278-0.988645-1.70229-1.34547-1.34547-1.70229-0.988645-1.90278-0.504621-1.90278 0-1.90278 0.504621-1.70229 0.988645-1.34547 1.34547-0.988645 1.70229-0.504621 1.90278 0 1.90278Z" stroke="#FFFFFF" stroke-width="0.713542" stroke-linejoin="round" fill="#FF3333" transform="matrix(1 0 0 1.00438 192.462 193.482)"/><path d="M0 1.90278C0.504621 1.90278 0.988645 1.70229 1.34547 1.34547 1.70229 0.988645 1.90278 0.504621 1.90278 0 1.90278-0.504621 1.70229-0.988645 1.34547-1.34547 0.988645-1.70229 0.504621-1.90278 0-1.90278-0.504621-1.90278-0.988645-1.70229-1.34547-1.34547-1.70229-0.988645-1.90278-0.504621-1.90278 0-1.90278 0.504621-1.70229 0.988645-1.34547 1.34547-0.988645 1.70229-0.504621 1.90278 0 1.90278Z" stroke="#FFFFFF" stroke-width="0.713542" stroke-linejoin="round" fill="#FF3333" transform="matrix(1 0 0 1.00438 225.247 190.406)"/><path d="M0 1.90278C0.504621 1.90278 0.988645 1.70229 1.34547 1.34547 1.70229 0.988645 1.90278 0.504621 1.90278 0 1.90278-0.504621 1.70229-0.988645 1.34547-1.34547 0.988645-1.70229 0.504621-1.90278 0-1.90278-0.504621-1.90278-0.988645-1.70229-1.34547-1.34547-1.70229-0.988645-1.90278-0.504621-1.90278 0-1.90278 0.504621-1.70229 0.988645-1.34547 1.34547-0.988645 1.70229-0.504621 1.90278 0 1.90278Z" stroke="#FFFFFF" stroke-width="0.713542" stroke-linejoin="round" fill="#FF3333" transform="matrix(1 0 0 1.00438 258.032 196.222)"/><path d="M0 1.90278C0.504621 1.90278 0.988645 1.70229 1.34547 1.34547 1.70229 0.988645 1.90278 0.504621 1.90278 0 1.90278-0.504621 1.70229-0.988645 1.34547-1.34547 0.988645-1.70229 0.504621-1.90278 0-1.90278-0.504621-1.90278-0.988645-1.70229-1.34547-1.34547-1.70229-0.988645-1.90278-0.504621-1.90278 0-1.90278 0.504621-1.70229 0.988645-1.34547 1.34547-0.988645 1.70229-0.504621 1.90278 0 1.90278Z" stroke="#FFFFFF" stroke-width="0.713542" stroke-linejoin="round" fill="#FF3333" transform="matrix(1 0 0 1.00438 290.817 208.264)"/><path d="M0 1.90278C0.504621 1.90278 0.988645 1.70229 1.34547 1.34547 1.70229 0.988645 1.90278 0.504621 1.90278 0 1.90278-0.504621 1.70229-0.988645 1.34547-1.34547 0.988645-1.70229 0.504621-1.90278 0-1.90278-0.504621-1.90278-0.988645-1.70229-1.34547-1.34547-1.70229-0.988645-1.90278-0.504621-1.90278 0-1.90278 0.504621-1.70229 0.988645-1.34547 1.34547-0.988645 1.70229-0.504621 1.90278 0 1.90278Z" stroke="#FFFFFF" stroke-width="0.713542" stroke-linejoin="round" fill="#FF3333" transform="matrix(1 0 0 1.00438 323.602 212.539)"/><path d="M0 1.90278C0.504621 1.90278 0.988645 1.70229 1.34547 1.34547 1.70229 0.988645 1.90278 0.504621 1.90278 0 1.90278-0.504621 1.70229-0.988645 1.34547-1.34547 0.988645-1.70229 0.504621-1.90278 0-1.90278-0.504621-1.90278-0.988645-1.70229-1.34547-1.34547-1.70229-0.988645-1.90278-0.504621-1.90278 0-1.90278 0.504621-1.70229 0.988645-1.34547 1.34547-0.988645 1.70229-0.504621 1.90278 0 1.90278Z" stroke="#FFFFFF" stroke-width="0.713542" stroke-linejoin="round" fill="#FF3333" transform="matrix(1 0 0 1.00438 356.388 214.948)"/></g><g><path d="M27.8911 24.7526 60.6763 33.8131 93.4616 51.9996 126.247 52.9386 159.032 34.3773 191.817 52.1033 224.602 48.0042 257.388 48.9818" stroke="#00994D" stroke-width="1.18924" stroke-linecap="square" stroke-linejoin="round" fill="none" transform="matrix(1 0 0 1.00438 99 164)"/></g><g><path d="M-1.90278 1.90278 1.90278 1.90278 1.90278-1.90278-1.90278-1.90278Z" stroke="#FFFFFF" stroke-width="0.713542" fill="#00994D" transform="matrix(1 0 0 1.00438 126.891 188.861)"/><path d="M-1.90278 1.90278 1.90278 1.90278 1.90278-1.90278-1.90278-1.90278Z" stroke="#FFFFFF" stroke-width="0.713542" fill="#00994D" transform="matrix(1 0 0 1.00438 159.676 197.961)"/><path d="M-1.90278 1.90278 1.90278 1.90278 1.90278-1.90278-1.90278-1.90278Z" stroke="#FFFFFF" stroke-width="0.713542" fill="#00994D" transform="matrix(1 0 0 1.00438 192.462 216.227)"/><path d="M-1.90278 1.90278 1.90278 1.90278 1.90278-1.90278-1.90278-1.90278Z" stroke="#FFFFFF" stroke-width="0.713542" fill="#00994D" transform="matrix(1 0 0 1.00438 225.247 217.17)"/><path d="M-1.90278 1.90278 1.90278 1.90278 1.90278-1.90278-1.90278-1.90278Z" stroke="#FFFFFF" stroke-width="0.713542" fill="#00994D" transform="matrix(1 0 0 1.00438 258.032 198.528)"/><path d="M-1.90278 1.90278 1.90278 1.90278 1.90278-1.90278-1.90278-1.90278Z" stroke="#FFFFFF" stroke-width="0.713542" fill="#00994D" transform="matrix(1 0 0 1.00438 290.817 216.331)"/><path d="M-1.90278 1.90278 1.90278 1.90278 1.90278-1.90278-1.90278-1.90278Z" stroke="#FFFFFF" stroke-width="0.713542" fill="#00994D" transform="matrix(1 0 0 1.00438 323.602 212.214)"/><path d="M-1.90278 1.90278 1.90278 1.90278 1.90278-1.90278-1.90278-1.90278Z" stroke="#FFFFFF" stroke-width="0.713542" fill="#00994D" transform="matrix(1 0 0 1.00438 356.388 213.196)"/></g><g><path d="M27.8911 26.9706 60.6763 42.7989 93.4616 32.5867 126.247 26.3736 159.032 27.4148 191.817 27.1692 224.602 27.6094 257.388 27.0811" stroke="#FF9900" stroke-width="1.18924" stroke-linecap="square" stroke-linejoin="round" fill="none" transform="matrix(1 0 0 1.00438 99 164)"/></g><g><path d="M0 2.69093 2.69093 0 0-2.69093-2.69093 0Z" stroke="#FFFFFF" stroke-width="0.713542" fill="#FF9900" transform="matrix(1 0 0 1.00438 126.891 191.089)"/><path d="M0 2.69093 2.69093 0 0-2.69093-2.69093 0Z" stroke="#FFFFFF" stroke-width="0.713542" fill="#FF9900" transform="matrix(1 0 0 1.00438 159.676 206.986)"/><path d="M0 2.69093 2.69093 0 0-2.69093-2.69093 0Z" stroke="#FFFFFF" stroke-width="0.713542" fill="#FF9900" transform="matrix(1 0 0 1.00438 192.462 196.729)"/><path d="M0 2.69093 2.69093 0 0-2.69093-2.69093 0Z" stroke="#FFFFFF" stroke-width="0.713542" fill="#FF9900" transform="matrix(1 0 0 1.00438 225.247 190.489)"/><path d="M0 2.69093 2.69093 0 0-2.69093-2.69093 0Z" stroke="#FFFFFF" stroke-width="0.713542" fill="#FF9900" transform="matrix(1 0 0 1.00438 258.032 191.535)"/><path d="M0 2.69093 2.69093 0 0-2.69093-2.69093 0Z" stroke="#FFFFFF" stroke-width="0.713542" fill="#FF9900" transform="matrix(1 0 0 1.00438 290.817 191.288)"/><path d="M0 2.69093 2.69093 0 0-2.69093-2.69093 0Z" stroke="#FFFFFF" stroke-width="0.713542" fill="#FF9900" transform="matrix(1 0 0 1.00438 323.602 191.73)"/><path d="M0 2.69093 2.69093 0 0-2.69093-2.69093 0Z" stroke="#FFFFFF" stroke-width="0.713542" fill="#FF9900" transform="matrix(1 0 0 1.00438 356.388 191.2)"/></g><g><path d="M27.8911 14.9909 60.6763 19.0983 93.4616 19.1065 126.247 17.3154 159.032 21.0293 191.817 22.883 224.602 25.3794 257.388 24.3966" stroke="#9933CC" stroke-width="1.18924" stroke-linecap="square" stroke-linejoin="round" fill="none" transform="matrix(1 0 0 1.00438 99 164)"/></g><g><path d="M0 1.90278 1.90278-1.90278-1.90278-1.90278Z" stroke="#FFFFFF" stroke-width="0.713542" fill="#9933CC" transform="matrix(1 0 0 1.00438 126.891 179.057)"/><path d="M0 1.90278 1.90278-1.90278-1.90278-1.90278Z" stroke="#FFFFFF" stroke-width="0.713542" fill="#9933CC" transform="matrix(1 0 0 1.00438 159.676 183.182)"/><path d="M0 1.90278 1.90278-1.90278-1.90278-1.90278Z" stroke="#FFFFFF" stroke-width="0.713542" fill="#9933CC" transform="matrix(1 0 0 1.00438 192.462 183.19)"/><path d="M0 1.90278 1.90278-1.90278-1.90278-1.90278Z" stroke="#FFFFFF" stroke-width="0.713542" fill="#9933CC" transform="matrix(1 0 0 1.00438 225.247 181.391)"/><path d="M0 1.90278 1.90278-1.90278-1.90278-1.90278Z" stroke="#FFFFFF" stroke-width="0.713542" fill="#9933CC" transform="matrix(1 0 0 1.00438 258.032 185.121)"/><path d="M0 1.90278 1.90278-1.90278-1.90278-1.90278Z" stroke="#FFFFFF" stroke-width="0.713542" fill="#9933CC" transform="matrix(1 0 0 1.00438 290.817 186.983)"/><path d="M0 1.90278 1.90278-1.90278-1.90278-1.90278Z" stroke="#FFFFFF" stroke-width="0.713542" fill="#9933CC" transform="matrix(1 0 0 1.00438 323.602 189.491)"/><path d="M0 1.90278 1.90278-1.90278-1.90278-1.90278Z" stroke="#FFFFFF" stroke-width="0.713542" fill="#9933CC" transform="matrix(1 0 0 1.00438 356.388 188.503)"/></g><g><path d="M27.8911 11.9905 257.388 11.9905" stroke="#0099CC" stroke-width="1.18924" stroke-linejoin="round" stroke-dasharray="4.40017 1.90278" stroke-opacity="0.8" fill="none" transform="matrix(1 0 0 1.00438 99 164)"/></g><g><path d="M27.8911 149.051 257.388 149.051" stroke="#FF3399" stroke-width="1.18924" stroke-linejoin="round" stroke-dasharray="4.40017 1.90278" stroke-opacity="0.8" fill="none" transform="matrix(1 0 0 1.00438 99 164)"/></g><g><path d="M27.8911 50.5949 257.388 50.5949" stroke="#CCCC00" stroke-width="1.18924" stroke-linejoin="round" stroke-dasharray="4.40017 1.90278" stroke-opacity="0.8" fill="none" transform="matrix(1 0 0 1.00438 99 164)"/></g><path d="M16.4162 155.904 16.4162 5.1375" stroke="#000000" stroke-width="0.713542" stroke-linecap="square" fill="none" transform="matrix(1 0 0 1.00438 99 164)"/><path d="M268.863 155.904 268.863 5.1375" stroke="#000000" stroke-width="0.713542" stroke-linecap="square" fill="none" transform="matrix(1 0 0 1.00438 99 164)"/><path d="M16.4162 155.904 268.863 155.904" stroke="#000000" stroke-width="0.713542" stroke-linecap="square" fill="none" transform="matrix(1 0 0 1.00438 99 164)"/><path d="M16.4162 5.1375 268.863 5.1375" stroke="#000000" stroke-width="0.713542" stroke-linecap="square" fill="none" transform="matrix(1 0 0 1.00438 99 164)"/></g></g></g></g></svg>